<svg width="55" height="55" viewBox="0 0 55 55" fill="none" xmlns="http://www.w3.org/2000/svg">
<path d="M9.67982 4.65666L27.4998 22.4767L45.2465 4.73C45.5575 4.39896 45.9322 4.13414 46.348 3.95143C46.7638 3.76871 47.2123 3.67185 47.6665 3.66666C48.639 3.66666 49.5716 4.05297 50.2592 4.74061C50.9469 5.42824 51.3332 6.36087 51.3332 7.33333C51.3417 7.78287 51.2583 8.22942 51.0881 8.64556C50.9178 9.06171 50.6643 9.43868 50.3432 9.75333L32.4132 27.5L50.3432 45.43C50.9475 46.0212 51.3019 46.8218 51.3332 47.6667C51.3332 48.6391 50.9469 49.5717 50.2592 50.2594C49.5716 50.947 48.639 51.3333 47.6665 51.3333C47.1992 51.3527 46.733 51.2747 46.2974 51.1043C45.8619 50.9339 45.4665 50.6747 45.1365 50.3433L27.4998 32.5233L9.71649 50.3067C9.40668 50.6267 9.03656 50.8821 8.6275 51.0583C8.21844 51.2346 7.77853 51.328 7.33316 51.3333C6.3607 51.3333 5.42807 50.947 4.74043 50.2594C4.0528 49.5717 3.66649 48.6391 3.66649 47.6667C3.65794 47.2171 3.74135 46.7706 3.91159 46.3544C4.08183 45.9383 4.33532 45.5613 4.65649 45.2467L22.5865 27.5L4.65649 9.57C4.05217 8.97878 3.6978 8.17817 3.66649 7.33333C3.66649 6.36087 4.0528 5.42824 4.74043 4.74061C5.42807 4.05297 6.3607 3.66666 7.33316 3.66666C8.21316 3.67766 9.05649 4.03333 9.67982 4.65666Z" fill="#6C3483"/>
</svg>
