<svg width="35" height="26" viewBox="0 0 35 26" fill="none" xmlns="http://www.w3.org/2000/svg">
<path d="M29.039 2.6671C26.8923 1.73241 24.5913 1.04155 22.1851 0.648711C22.1637 0.644739 22.1415 0.647298 22.1216 0.656036C22.1018 0.664773 22.0852 0.679255 22.0742 0.697477C21.7796 1.19733 21.4513 1.84891 21.2212 2.36366C18.6692 1.99553 16.0746 1.99553 13.5226 2.36366C13.2663 1.79318 12.9773 1.23692 12.6569 0.697477C12.6461 0.679031 12.6297 0.664221 12.6098 0.655023C12.59 0.645826 12.5678 0.642679 12.5461 0.646001C10.1413 1.03884 7.84025 1.7297 5.69218 2.66575C5.6737 2.67323 5.65803 2.68599 5.64728 2.70232C1.28097 8.89972 0.0841675 14.9441 0.672047 20.9125C0.673683 20.9271 0.678383 20.9413 0.68586 20.9541C0.693338 20.9669 0.703437 20.9781 0.715542 20.987C3.26404 22.7784 6.10655 24.1431 9.12405 25.0238C9.14508 25.0301 9.16758 25.03 9.18861 25.0238C9.20963 25.0175 9.22821 25.0052 9.24191 24.9886C9.89012 24.1487 10.4682 23.2614 10.9621 22.3295C10.9915 22.2753 10.9635 22.2103 10.9045 22.1886C9.99816 21.859 9.11996 21.4614 8.27801 20.9992C8.26288 20.9909 8.25013 20.979 8.24091 20.9648C8.23168 20.9505 8.22627 20.9343 8.22516 20.9175C8.22405 20.9007 8.22727 20.8839 8.23453 20.8686C8.2418 20.8533 8.25288 20.84 8.26678 20.8299C8.44357 20.7039 8.62035 20.5725 8.78872 20.4411C8.80387 20.4293 8.82213 20.4218 8.84145 20.4194C8.86077 20.417 8.8804 20.4198 8.89816 20.4276C14.408 22.8171 20.3751 22.8171 25.8204 20.4276C25.8382 20.4194 25.858 20.4162 25.8776 20.4183C25.8972 20.4205 25.9158 20.4279 25.9312 20.4398C26.0996 20.5725 26.275 20.7039 26.4532 20.8299C26.4672 20.8398 26.4785 20.8529 26.486 20.8681C26.4935 20.8833 26.497 20.9 26.4961 20.9167C26.4953 20.9335 26.4902 20.9498 26.4812 20.9642C26.4722 20.9786 26.4597 20.9906 26.4448 20.9992C25.6057 21.4652 24.733 21.8594 23.8168 22.1872C23.8028 22.1922 23.7899 22.1999 23.7792 22.21C23.7685 22.2201 23.7602 22.2323 23.7547 22.2458C23.7493 22.2592 23.7469 22.2737 23.7477 22.2881C23.7485 22.3025 23.7524 22.3166 23.7593 22.3295C24.2644 23.2601 24.8425 24.146 25.4781 24.9872C25.4913 25.0045 25.5097 25.0174 25.5308 25.0242C25.5519 25.031 25.5746 25.0313 25.5959 25.0252C28.6186 24.1469 31.4657 22.7816 34.017 20.987C34.0295 20.9786 34.0399 20.9678 34.0477 20.9551C34.0554 20.9425 34.0603 20.9285 34.0619 20.9139C34.7635 14.0134 32.8862 8.01786 29.0825 2.70503C29.0732 2.68776 29.0577 2.6743 29.039 2.6671ZM11.7856 17.2781C10.1272 17.2781 8.75925 15.83 8.75925 14.0541C8.75925 12.2768 10.1006 10.8301 11.7856 10.8301C13.4833 10.8301 14.8387 12.289 14.812 14.0541C14.812 15.8313 13.4707 17.2781 11.7856 17.2781ZM22.975 17.2781C21.3152 17.2781 19.9486 15.83 19.9486 14.0541C19.9486 12.2768 21.2885 10.8301 22.975 10.8301C24.6727 10.8301 26.0281 12.289 26.0014 14.0541C26.0014 15.8313 24.6741 17.2781 22.975 17.2781Z" fill="white"/>
</svg>
