<svg width="48" height="48" viewBox="0 0 48 48" fill="none" xmlns="http://www.w3.org/2000/svg">
<path d="M41.875 2H5.625C3.62297 2 2 3.62297 2 5.625V41.875C2 43.877 3.62297 45.5 5.625 45.5H41.875C43.877 45.5 45.5 43.877 45.5 41.875V5.625C45.5 3.62297 43.877 2 41.875 2Z" stroke="#6C3483" stroke-width="4" stroke-linecap="round" stroke-linejoin="round"/>
<path d="M10.4583 32.2084V15.2917H20.1249" stroke="#6C3483" stroke-width="4" stroke-linecap="round" stroke-linejoin="round"/>
<path d="M10.4583 23.75H19.5208" stroke="#6C3483" stroke-width="4" stroke-linecap="round" stroke-linejoin="round"/>
<path d="M10.4583 32.2083H19.5208" stroke="#6C3483" stroke-width="4" stroke-linecap="round" stroke-linejoin="round"/>
<path d="M26.1667 32.2083V17.7083" stroke="#6C3483" stroke-width="4" stroke-linecap="round" stroke-linejoin="round"/>
<path d="M26.1667 32.2084V24.3542C26.1667 22.9121 26.7396 21.529 27.7594 20.5093C28.7791 19.4896 30.1621 18.9167 31.6042 18.9167C33.0464 18.9167 34.4294 19.4896 35.4491 20.5093C36.4689 21.529 37.0417 22.9121 37.0417 24.3542V32.2084" stroke="#6C3483" stroke-width="4" stroke-linecap="round" stroke-linejoin="round"/>
</svg>
