<svg width="44" height="30" viewBox="0 0 44 30" fill="none" xmlns="http://www.w3.org/2000/svg">
<path fill-rule="evenodd" clip-rule="evenodd" d="M0.125 15C0.125 14.5856 0.28962 14.1882 0.582646 13.8952C0.875671 13.6021 1.2731 13.4375 1.6875 13.4375H38.5406L28.7062 3.60627C28.4129 3.31288 28.248 2.91494 28.248 2.50002C28.248 2.0851 28.4129 1.68717 28.7062 1.39377C28.9996 1.10037 29.3976 0.935547 29.8125 0.935547C30.2274 0.935547 30.6254 1.10037 30.9188 1.39377L43.4188 13.8938C43.5643 14.0389 43.6797 14.2113 43.7585 14.4012C43.8372 14.591 43.8778 14.7945 43.8778 15C43.8778 15.2055 43.8372 15.409 43.7585 15.5989C43.6797 15.7887 43.5643 15.9611 43.4188 16.1063L30.9188 28.6063C30.6254 28.8997 30.2274 29.0645 29.8125 29.0645C29.3976 29.0645 28.9996 28.8997 28.7062 28.6063C28.4129 28.3129 28.248 27.9149 28.248 27.5C28.248 27.0851 28.4129 26.6872 28.7062 26.3938L38.5406 16.5625H1.6875C1.2731 16.5625 0.875671 16.3979 0.582646 16.1049C0.28962 15.8118 0.125 15.4144 0.125 15Z" fill="black"/>
</svg>
