<svg width="44" height="30" viewBox="0 0 44 30" fill="none" xmlns="http://www.w3.org/2000/svg">
<path fill-rule="evenodd" clip-rule="evenodd" d="M43.875 15C43.875 15.4144 43.7104 15.8118 43.4174 16.1048C43.1243 16.3979 42.7269 16.5625 42.3125 16.5625L5.45937 16.5625L15.2938 26.3937C15.5871 26.6871 15.752 27.0851 15.752 27.5C15.752 27.9149 15.5871 28.3128 15.2938 28.6062C15.0004 28.8996 14.6024 29.0645 14.1875 29.0645C13.7726 29.0645 13.3746 28.8996 13.0812 28.6062L0.581249 16.1062C0.435741 15.9611 0.320293 15.7887 0.241524 15.5988C0.162754 15.409 0.122208 15.2055 0.122208 15C0.122208 14.7945 0.162754 14.591 0.241524 14.4011C0.320293 14.2113 0.435741 14.0389 0.581249 13.8937L13.0812 1.39373C13.3746 1.10033 13.7726 0.935507 14.1875 0.935507C14.6024 0.935507 15.0004 1.10033 15.2938 1.39373C15.5871 1.68713 15.752 2.08506 15.752 2.49998C15.752 2.9149 15.5871 3.31284 15.2938 3.60623L5.45937 13.4375L42.3125 13.4375C42.7269 13.4375 43.1243 13.6021 43.4174 13.8951C43.7104 14.1882 43.875 14.5856 43.875 15Z" fill="black"/>
</svg>
