<svg width="281" height="851" viewBox="0 0 281 851" fill="none" xmlns="http://www.w3.org/2000/svg">
<path d="M136.064 650.544C136.064 650.784 136.256 651 136.496 651H142.352C146.984 651 150.776 647.232 150.776 642.576C150.776 637.968 146.984 634.2 142.352 634.2H136.496C136.256 634.2 136.064 634.416 136.064 634.656V650.544ZM139.808 647.448V637.728H142.112C144.824 637.728 146.792 639.864 146.792 642.576C146.792 645.312 144.824 647.448 142.112 647.448H139.808ZM152.523 650.544C152.523 650.784 152.739 651 152.979 651H155.427C155.811 651 155.955 650.832 155.955 650.544V645.576C155.955 644.76 156.507 644.208 157.227 644.208C157.443 644.208 157.683 644.28 157.803 644.328C158.067 644.424 158.235 644.28 158.331 644.112L159.507 642.192C159.843 641.64 158.907 641.16 157.587 641.16C156.339 641.16 155.451 642.048 154.971 642.744L154.539 641.688C154.467 641.544 154.371 641.4 154.107 641.4H152.979C152.739 641.4 152.523 641.592 152.523 641.856V650.544ZM159.958 646.176C159.958 648.936 162.214 651.24 164.95 651.24C167.686 651.24 169.942 648.936 169.942 646.176C169.942 643.464 167.686 641.16 164.95 641.16C162.214 641.16 159.958 643.464 159.958 646.176ZM163.054 646.176C163.054 645.12 163.894 644.256 164.95 644.256C166.006 644.256 166.846 645.12 166.846 646.176C166.846 647.256 166.006 648.144 164.95 648.144C163.894 648.144 163.054 647.256 163.054 646.176ZM173.54 638.496C174.596 638.496 175.46 637.656 175.46 636.6C175.46 635.544 174.596 634.68 173.54 634.68C172.484 634.68 171.644 635.544 171.644 636.6C171.644 637.656 172.484 638.496 173.54 638.496ZM171.788 650.544C171.788 650.784 172.004 651 172.244 651H174.884C175.124 651 175.34 650.784 175.34 650.544V641.856C175.34 641.592 175.124 641.4 174.884 641.4H172.244C172.004 641.4 171.788 641.592 171.788 641.856V650.544ZM178.313 647.904C178.313 650.088 179.369 651.24 181.193 651.24C182.393 651.24 184.097 650.712 184.097 650.712C184.337 650.64 184.457 650.376 184.409 650.16L183.881 648.168C183.809 647.904 183.593 647.808 183.353 647.856C183.113 647.904 182.753 648.024 182.417 648.024C182.129 648.024 181.769 647.976 181.769 647.448V644.448H183.545C183.809 644.448 184.001 644.232 184.001 643.992V641.856C184.001 641.592 183.809 641.4 183.545 641.4H181.769V638.736C181.769 638.496 181.577 638.28 181.337 638.28H178.769C178.529 638.28 178.313 638.496 178.313 638.736V641.4H177.689C177.449 641.4 177.257 641.592 177.257 641.856V643.992C177.257 644.232 177.449 644.448 177.689 644.448H178.313V647.904ZM190.78 646.2C190.78 648.96 192.82 651.24 195.532 651.24C197.644 651.24 198.748 649.728 198.748 649.728L199.036 650.52C199.132 650.784 199.3 651 199.54 651H200.668C200.908 651 201.124 650.784 201.124 650.544V634.656C201.124 634.416 200.908 634.2 200.668 634.2H198.004C197.764 634.2 197.548 634.416 197.548 634.656V641.616C197.26 641.448 196.372 641.16 195.556 641.16C192.988 641.16 190.78 642.816 190.78 646.2ZM194.068 646.176C194.068 645.096 194.908 644.256 196.012 644.256C197.116 644.256 197.932 645.096 197.932 646.176C197.932 647.28 197.116 648.144 196.012 648.144C194.908 648.144 194.068 647.28 194.068 646.176ZM202.99 646.2C202.99 648.96 205.15 651.24 208.006 651.24C209.518 651.24 210.718 650.712 211.558 649.872C211.774 649.656 211.726 649.368 211.582 649.176L210.382 647.736C210.238 647.568 209.998 647.568 209.782 647.736C209.398 648.024 208.702 648.312 208.102 648.312C206.854 648.312 206.326 647.376 206.254 646.728H212.014C212.23 646.728 212.446 646.56 212.47 646.32C212.494 646.152 212.518 645.84 212.518 645.672C212.518 643.032 210.406 641.16 207.958 641.16C205.126 641.16 202.99 643.488 202.99 646.2ZM206.566 644.856C206.662 644.232 207.214 643.728 207.862 643.728C208.486 643.728 209.086 644.232 209.134 644.856H206.566ZM222.866 651C222.938 651.12 223.13 651.24 223.274 651.24H223.394C223.538 651.24 223.73 651.12 223.802 651L228.362 642.048C228.53 641.736 228.314 641.4 227.954 641.4H225.53C225.194 641.4 225.026 641.376 224.882 641.664L223.37 644.928C223.346 644.928 223.322 644.928 223.298 644.928L221.882 641.664C221.81 641.52 221.618 641.4 221.45 641.4H218.762C218.402 641.4 218.186 641.736 218.354 642.048L222.866 651ZM228.958 646.176C228.958 648.936 231.214 651.24 233.95 651.24C236.686 651.24 238.942 648.936 238.942 646.176C238.942 643.464 236.686 641.16 233.95 641.16C231.214 641.16 228.958 643.464 228.958 646.176ZM232.054 646.176C232.054 645.12 232.894 644.256 233.95 644.256C235.006 644.256 235.846 645.12 235.846 646.176C235.846 647.256 235.006 648.144 233.95 648.144C232.894 648.144 232.054 647.256 232.054 646.176ZM241.172 647.904C241.172 650.088 242.228 651.24 244.052 651.24C245.252 651.24 246.956 650.712 246.956 650.712C247.196 650.64 247.316 650.376 247.268 650.16L246.74 648.168C246.668 647.904 246.452 647.808 246.212 647.856C245.972 647.904 245.612 648.024 245.276 648.024C244.988 648.024 244.628 647.976 244.628 647.448V644.448H246.404C246.668 644.448 246.86 644.232 246.86 643.992V641.856C246.86 641.592 246.668 641.4 246.404 641.4H244.628V638.736C244.628 638.496 244.436 638.28 244.196 638.28H241.628C241.388 638.28 241.172 638.496 241.172 638.736V641.4H240.548C240.308 641.4 240.116 641.592 240.116 641.856V643.992C240.116 644.232 240.308 644.448 240.548 644.448H241.172V647.904ZM248.318 646.2C248.318 648.96 250.478 651.24 253.334 651.24C254.846 651.24 256.046 650.712 256.886 649.872C257.102 649.656 257.054 649.368 256.91 649.176L255.71 647.736C255.566 647.568 255.326 647.568 255.11 647.736C254.726 648.024 254.03 648.312 253.43 648.312C252.182 648.312 251.654 647.376 251.582 646.728H257.342C257.558 646.728 257.774 646.56 257.798 646.32C257.822 646.152 257.846 645.84 257.846 645.672C257.846 643.032 255.734 641.16 253.286 641.16C250.454 641.16 248.318 643.488 248.318 646.2ZM251.894 644.856C251.99 644.232 252.542 643.728 253.19 643.728C253.814 643.728 254.414 644.232 254.462 644.856H251.894ZM134.6 670.2C134.6 672.96 136.64 675.24 139.352 675.24C141.464 675.24 142.568 673.728 142.568 673.728L142.856 674.52C142.952 674.784 143.12 675 143.36 675H144.488C144.728 675 144.944 674.784 144.944 674.544V658.656C144.944 658.416 144.728 658.2 144.488 658.2H141.824C141.584 658.2 141.368 658.416 141.368 658.656V665.616C141.08 665.448 140.192 665.16 139.376 665.16C136.808 665.16 134.6 666.816 134.6 670.2ZM137.888 670.176C137.888 669.096 138.728 668.256 139.832 668.256C140.936 668.256 141.752 669.096 141.752 670.176C141.752 671.28 140.936 672.144 139.832 672.144C138.728 672.144 137.888 671.28 137.888 670.176ZM146.81 670.2C146.81 672.96 148.97 675.24 151.826 675.24C153.338 675.24 154.538 674.712 155.378 673.872C155.594 673.656 155.546 673.368 155.402 673.176L154.202 671.736C154.058 671.568 153.818 671.568 153.602 671.736C153.218 672.024 152.522 672.312 151.922 672.312C150.674 672.312 150.146 671.376 150.074 670.728H155.834C156.05 670.728 156.266 670.56 156.29 670.32C156.314 670.152 156.338 669.84 156.338 669.672C156.338 667.032 154.226 665.16 151.778 665.16C148.946 665.16 146.81 667.488 146.81 670.2ZM150.386 668.856C150.482 668.232 151.034 667.728 151.682 667.728C152.306 667.728 152.906 668.232 152.954 668.856H150.386ZM157.741 674.448C158.221 674.832 159.421 675.24 161.005 675.24C163.717 675.24 165.061 673.872 165.061 672.192C165.061 670.272 163.717 669.504 161.773 668.832C160.957 668.544 160.693 668.304 160.693 668.064C160.693 667.8 160.909 667.728 161.221 667.728C162.157 667.728 163.261 668.28 163.261 668.28C163.453 668.352 163.693 668.28 163.765 668.136L164.653 666.504C164.797 666.264 164.629 666.048 164.413 665.904C163.885 665.568 162.733 665.16 161.221 665.16C158.629 665.16 157.477 666.456 157.477 668.064C157.477 669.552 158.293 670.632 160.165 671.28C161.389 671.712 161.533 672.048 161.533 672.288C161.533 672.576 161.317 672.72 161.077 672.72C160.045 672.72 158.917 672.096 158.917 672.096C158.725 672 158.485 672.144 158.413 672.288L157.573 673.944C157.453 674.16 157.573 674.304 157.741 674.448ZM172.784 674.544C172.784 674.784 173 675 173.24 675H176C176.24 675 176.456 674.784 176.456 674.544V668.448H178.664C178.928 668.448 179.12 668.232 179.12 667.992V665.856C179.12 665.592 178.928 665.4 178.664 665.4H176.456V663.192C176.456 662.016 176.864 661.2 177.872 661.2C178.352 661.2 178.808 661.416 179.12 661.584C179.312 661.68 179.6 661.584 179.672 661.416L180.68 659.424C180.776 659.256 180.728 658.992 180.584 658.872C180.176 658.488 178.904 657.96 177.656 657.96C174.872 657.96 172.784 659.832 172.784 663.192V665.4H172.28C172.016 665.4 171.824 665.592 171.824 665.856V667.992C171.824 668.232 172.016 668.448 172.28 668.448H172.784V674.544ZM180.115 670.2C180.115 672.96 182.275 675.24 185.131 675.24C186.643 675.24 187.843 674.712 188.683 673.872C188.899 673.656 188.851 673.368 188.707 673.176L187.507 671.736C187.363 671.568 187.123 671.568 186.907 671.736C186.523 672.024 185.827 672.312 185.227 672.312C183.979 672.312 183.451 671.376 183.379 670.728H189.139C189.355 670.728 189.571 670.56 189.595 670.32C189.619 670.152 189.643 669.84 189.643 669.672C189.643 667.032 187.531 665.16 185.083 665.16C182.251 665.16 180.115 667.488 180.115 670.2ZM183.691 668.856C183.787 668.232 184.339 667.728 184.987 667.728C185.611 667.728 186.211 668.232 186.259 668.856H183.691ZM191.382 674.544C191.382 674.784 191.574 675 191.838 675H194.358C194.598 675 194.814 674.784 194.814 674.544V669.936C194.814 668.952 195.534 668.256 196.494 668.256C197.574 668.256 198.006 669.096 198.006 670.056V674.544C198.006 674.784 198.198 675 198.462 675H200.766C201.03 675 201.222 674.784 201.222 674.544V669.888C201.222 668.952 201.99 668.256 202.83 668.256C203.934 668.256 204.438 669.096 204.438 670.056V674.544C204.438 674.784 204.63 675 204.894 675H207.438C207.702 675 207.894 674.784 207.894 674.544V670.2C207.894 667.464 206.43 665.16 203.454 665.16C201.822 665.16 200.694 666.072 200.142 666.624C199.278 665.664 198.342 665.16 196.998 665.16C195.462 665.16 194.358 666.024 193.758 666.648L193.35 665.664C193.278 665.52 193.11 665.4 192.942 665.4H191.838C191.574 665.4 191.382 665.592 191.382 665.856V674.544ZM210.249 674.544C210.249 674.784 210.441 675 210.705 675H213.225C213.465 675 213.681 674.784 213.681 674.544V669.936C213.681 668.952 214.401 668.256 215.361 668.256C216.441 668.256 216.873 669.096 216.873 670.056V674.544C216.873 674.784 217.065 675 217.329 675H219.633C219.897 675 220.089 674.784 220.089 674.544V669.888C220.089 668.952 220.857 668.256 221.697 668.256C222.801 668.256 223.305 669.096 223.305 670.056V674.544C223.305 674.784 223.497 675 223.761 675H226.305C226.569 675 226.761 674.784 226.761 674.544V670.2C226.761 667.464 225.297 665.16 222.321 665.16C220.689 665.16 219.561 666.072 219.009 666.624C218.145 665.664 217.209 665.16 215.865 665.16C214.329 665.16 213.225 666.024 212.625 666.648L212.217 665.664C212.145 665.52 211.977 665.4 211.809 665.4H210.705C210.441 665.4 210.249 665.592 210.249 665.856V674.544ZM228.396 670.2C228.396 672.96 230.556 675.24 233.412 675.24C234.924 675.24 236.124 674.712 236.964 673.872C237.18 673.656 237.132 673.368 236.988 673.176L235.788 671.736C235.644 671.568 235.404 671.568 235.188 671.736C234.804 672.024 234.108 672.312 233.508 672.312C232.26 672.312 231.732 671.376 231.66 670.728H237.42C237.636 670.728 237.852 670.56 237.876 670.32C237.9 670.152 237.924 669.84 237.924 669.672C237.924 667.032 235.812 665.16 233.364 665.16C230.532 665.16 228.396 667.488 228.396 670.2ZM231.972 668.856C232.068 668.232 232.62 667.728 233.268 667.728C233.892 667.728 234.492 668.232 234.54 668.856H231.972ZM239.327 674.448C239.807 674.832 241.007 675.24 242.591 675.24C245.303 675.24 246.647 673.872 246.647 672.192C246.647 670.272 245.303 669.504 243.359 668.832C242.543 668.544 242.279 668.304 242.279 668.064C242.279 667.8 242.495 667.728 242.807 667.728C243.743 667.728 244.847 668.28 244.847 668.28C245.039 668.352 245.279 668.28 245.351 668.136L246.239 666.504C246.383 666.264 246.215 666.048 245.999 665.904C245.471 665.568 244.319 665.16 242.807 665.16C240.215 665.16 239.063 666.456 239.063 668.064C239.063 669.552 239.879 670.632 241.751 671.28C242.975 671.712 243.119 672.048 243.119 672.288C243.119 672.576 242.903 672.72 242.663 672.72C241.631 672.72 240.503 672.096 240.503 672.096C240.311 672 240.071 672.144 239.999 672.288L239.159 673.944C239.039 674.16 239.159 674.304 239.327 674.448ZM253.866 674.544C253.866 674.784 254.082 675 254.322 675H256.962C257.202 675 257.418 674.784 257.418 674.544V658.656C257.418 658.416 257.202 658.2 256.962 658.2H254.322C254.082 658.2 253.866 658.416 253.866 658.656V674.544ZM259.287 670.2C259.287 672.96 261.447 675.24 264.303 675.24C265.815 675.24 267.015 674.712 267.855 673.872C268.071 673.656 268.023 673.368 267.879 673.176L266.679 671.736C266.535 671.568 266.295 671.568 266.079 671.736C265.695 672.024 264.999 672.312 264.399 672.312C263.151 672.312 262.623 671.376 262.551 670.728H268.311C268.527 670.728 268.743 670.56 268.767 670.32C268.791 670.152 268.815 669.84 268.815 669.672C268.815 667.032 266.703 665.16 264.255 665.16C261.423 665.16 259.287 667.488 259.287 670.2ZM262.863 668.856C262.959 668.232 263.511 667.728 264.159 667.728C264.783 667.728 265.383 668.232 265.431 668.856H262.863ZM134.552 698.544C134.552 698.784 134.744 699 135.008 699H144.608C144.848 699 145.064 698.784 145.064 698.544V696.384C145.064 696.144 144.848 695.928 144.608 695.928H140.384C141.512 694.344 143.48 691.776 144.248 690.408C144.824 689.28 145.184 688.56 145.184 687.288C145.184 684.624 143.168 682.44 139.736 682.44C136.88 682.44 134.936 684.792 134.936 684.792C134.768 684.984 134.792 685.272 134.96 685.416L136.424 686.904C136.616 687.096 136.904 687.096 137.096 686.904C137.552 686.4 138.44 685.704 139.424 685.704C140.768 685.704 141.536 686.52 141.536 687.432C141.536 688.104 141.224 688.776 140.912 689.256C139.496 691.416 135.944 696.24 134.552 698.064V698.544ZM149.664 698.544C149.664 698.784 149.856 699 150.12 699H152.784C153.024 699 153.216 698.784 153.216 698.544V683.136C153.216 682.896 153.024 682.68 152.784 682.68H150.576L147.072 685.416C147 685.488 146.928 685.68 146.928 685.776V687.288C146.928 687.528 147.12 687.744 147.36 687.744H149.664V698.544ZM161.25 696.072C161.25 697.968 162.666 699.24 164.562 699.24C166.074 699.24 166.914 698.544 167.466 698.04L167.802 698.688C167.922 698.952 168.09 699 168.234 699H169.29C169.53 699 169.746 698.784 169.746 698.544V693.24C169.746 690.408 168.666 689.16 165.69 689.16C164.394 689.16 162.714 689.448 162.498 689.52C162.282 689.592 162.066 689.76 162.138 690.168L162.354 691.68C162.402 692.04 162.57 692.304 162.93 692.184C163.554 691.992 164.682 691.824 165.33 691.824C166.482 691.824 166.626 692.304 166.626 693.24C166.626 693.24 165.858 692.856 164.778 692.856C162.594 692.856 161.25 694.224 161.25 696.072ZM164.37 695.832C164.37 695.28 164.826 694.824 165.402 694.824C165.978 694.824 166.434 695.28 166.458 695.832C166.458 696.408 165.978 696.888 165.402 696.888C164.826 696.888 164.37 696.408 164.37 695.832ZM175.428 699C175.5 699.12 175.692 699.24 175.836 699.24H175.956C176.1 699.24 176.292 699.12 176.364 699L180.924 690.048C181.092 689.736 180.876 689.4 180.516 689.4H178.092C177.756 689.4 177.588 689.376 177.444 689.664L175.932 692.928C175.908 692.928 175.884 692.928 175.86 692.928L174.444 689.664C174.372 689.52 174.18 689.4 174.012 689.4H171.324C170.964 689.4 170.748 689.736 170.916 690.048L175.428 699ZM182.335 698.544C182.335 698.784 182.551 699 182.791 699H185.239C185.623 699 185.767 698.832 185.767 698.544V693.576C185.767 692.76 186.319 692.208 187.039 692.208C187.255 692.208 187.495 692.28 187.615 692.328C187.879 692.424 188.047 692.28 188.143 692.112L189.319 690.192C189.655 689.64 188.719 689.16 187.399 689.16C186.151 689.16 185.263 690.048 184.783 690.744L184.351 689.688C184.279 689.544 184.183 689.4 183.919 689.4H182.791C182.551 689.4 182.335 689.592 182.335 689.856V698.544ZM192.361 686.496C193.417 686.496 194.281 685.656 194.281 684.6C194.281 683.544 193.417 682.68 192.361 682.68C191.305 682.68 190.465 683.544 190.465 684.6C190.465 685.656 191.305 686.496 192.361 686.496ZM190.609 698.544C190.609 698.784 190.825 699 191.065 699H193.705C193.945 699 194.161 698.784 194.161 698.544V689.856C194.161 689.592 193.945 689.4 193.705 689.4H191.065C190.825 689.4 190.609 689.592 190.609 689.856V698.544ZM196.749 698.544C196.749 698.784 196.965 699 197.205 699H199.845C200.085 699 200.301 698.784 200.301 698.544V682.656C200.301 682.416 200.085 682.2 199.845 682.2H197.205C196.965 682.2 196.749 682.416 196.749 682.656V698.544ZM210.227 698.544C210.227 698.784 210.419 699 210.683 699H213.347C213.587 699 213.779 698.784 213.779 698.544V683.136C213.779 682.896 213.587 682.68 213.347 682.68H211.139L207.635 685.416C207.563 685.488 207.491 685.68 207.491 685.776V687.288C207.491 687.528 207.683 687.744 207.923 687.744H210.227V698.544ZM218.363 697.152L219.059 699C219.179 699.336 219.443 699.48 219.803 699.384C222.011 698.736 227.867 695.88 227.867 688.824C227.867 685.08 225.803 682.296 222.083 682.296C219.083 682.296 216.587 684.768 216.587 687.792C216.587 691.344 219.107 693 221.363 693C222.011 693 223.019 692.784 223.643 692.52C223.139 694.992 219.947 696.096 218.819 696.456C218.339 696.6 218.267 696.864 218.363 697.152ZM222.131 690.24C220.859 690.24 219.827 689.184 219.827 687.912C219.827 686.664 220.859 685.608 222.131 685.608C223.403 685.608 224.435 686.664 224.435 687.912C224.435 689.184 223.403 690.24 222.131 690.24ZM229.55 695.616H236.582V698.544C236.582 698.784 236.798 699 237.038 699H239.606C239.846 699 240.062 698.784 240.062 698.544L240.038 695.592H241.934C242.198 695.592 242.39 695.376 242.39 695.136V693.144C242.39 692.904 242.198 692.712 241.934 692.712H240.038L240.014 682.872C240.014 682.608 239.798 682.416 239.558 682.416H237.83C237.614 682.416 237.542 682.488 237.47 682.56L229.094 692.616V695.16C229.094 695.4 229.286 695.616 229.55 695.616ZM232.862 692.64L236.678 688.176V692.64H232.862ZM243.94 695.616H250.972V698.544C250.972 698.784 251.188 699 251.428 699H253.996C254.236 699 254.452 698.784 254.452 698.544L254.428 695.592H256.324C256.588 695.592 256.78 695.376 256.78 695.136V693.144C256.78 692.904 256.588 692.712 256.324 692.712H254.428L254.404 682.872C254.404 682.608 254.188 682.416 253.948 682.416H252.22C252.004 682.416 251.932 682.488 251.86 682.56L243.484 692.616V695.16C243.484 695.4 243.676 695.616 243.94 695.616ZM247.252 692.64L251.068 688.176V692.64H247.252Z" fill="black"/>
<path d="M58.064 446.544C58.064 446.784 58.256 447 58.496 447H64.352C68.984 447 72.776 443.232 72.776 438.576C72.776 433.968 68.984 430.2 64.352 430.2H58.496C58.256 430.2 58.064 430.416 58.064 430.656V446.544ZM61.808 443.448V433.728H64.112C66.824 433.728 68.792 435.864 68.792 438.576C68.792 441.312 66.824 443.448 64.112 443.448H61.808ZM74.5226 446.544C74.5226 446.784 74.7386 447 74.9786 447H77.4266C77.8106 447 77.9546 446.832 77.9546 446.544V441.576C77.9546 440.76 78.5066 440.208 79.2266 440.208C79.4426 440.208 79.6826 440.28 79.8026 440.328C80.0666 440.424 80.2346 440.28 80.3306 440.112L81.5066 438.192C81.8426 437.64 80.9066 437.16 79.5866 437.16C78.3386 437.16 77.4506 438.048 76.9706 438.744L76.5386 437.688C76.4666 437.544 76.3706 437.4 76.1066 437.4H74.9786C74.7386 437.4 74.5226 437.592 74.5226 437.856V446.544ZM81.9583 442.176C81.9583 444.936 84.2143 447.24 86.9503 447.24C89.6863 447.24 91.9423 444.936 91.9423 442.176C91.9423 439.464 89.6863 437.16 86.9503 437.16C84.2143 437.16 81.9583 439.464 81.9583 442.176ZM85.0543 442.176C85.0543 441.12 85.8943 440.256 86.9503 440.256C88.0063 440.256 88.8463 441.12 88.8463 442.176C88.8463 443.256 88.0063 444.144 86.9503 444.144C85.8943 444.144 85.0543 443.256 85.0543 442.176ZM95.5402 434.496C96.5962 434.496 97.4602 433.656 97.4602 432.6C97.4602 431.544 96.5962 430.68 95.5402 430.68C94.4842 430.68 93.6442 431.544 93.6442 432.6C93.6442 433.656 94.4842 434.496 95.5402 434.496ZM93.7882 446.544C93.7882 446.784 94.0042 447 94.2442 447H96.8842C97.1242 447 97.3402 446.784 97.3402 446.544V437.856C97.3402 437.592 97.1242 437.4 96.8842 437.4H94.2442C94.0042 437.4 93.7882 437.592 93.7882 437.856V446.544ZM100.313 443.904C100.313 446.088 101.369 447.24 103.193 447.24C104.393 447.24 106.097 446.712 106.097 446.712C106.337 446.64 106.457 446.376 106.409 446.16L105.881 444.168C105.809 443.904 105.593 443.808 105.353 443.856C105.113 443.904 104.753 444.024 104.417 444.024C104.129 444.024 103.769 443.976 103.769 443.448V440.448H105.545C105.809 440.448 106.001 440.232 106.001 439.992V437.856C106.001 437.592 105.809 437.4 105.545 437.4H103.769V434.736C103.769 434.496 103.577 434.28 103.337 434.28H100.769C100.529 434.28 100.313 434.496 100.313 434.736V437.4H99.6888C99.4488 437.4 99.2568 437.592 99.2568 437.856V439.992C99.2568 440.232 99.4488 440.448 99.6888 440.448H100.313V443.904ZM112.78 442.2C112.78 444.96 114.82 447.24 117.532 447.24C119.644 447.24 120.748 445.728 120.748 445.728L121.036 446.52C121.132 446.784 121.3 447 121.54 447H122.668C122.908 447 123.124 446.784 123.124 446.544V430.656C123.124 430.416 122.908 430.2 122.668 430.2H120.004C119.764 430.2 119.548 430.416 119.548 430.656V437.616C119.26 437.448 118.372 437.16 117.556 437.16C114.988 437.16 112.78 438.816 112.78 442.2ZM116.068 442.176C116.068 441.096 116.908 440.256 118.012 440.256C119.116 440.256 119.932 441.096 119.932 442.176C119.932 443.28 119.116 444.144 118.012 444.144C116.908 444.144 116.068 443.28 116.068 442.176ZM124.99 442.2C124.99 444.96 127.15 447.24 130.006 447.24C131.518 447.24 132.718 446.712 133.558 445.872C133.774 445.656 133.726 445.368 133.582 445.176L132.382 443.736C132.238 443.568 131.998 443.568 131.782 443.736C131.398 444.024 130.702 444.312 130.102 444.312C128.854 444.312 128.326 443.376 128.254 442.728H134.014C134.23 442.728 134.446 442.56 134.47 442.32C134.494 442.152 134.518 441.84 134.518 441.672C134.518 439.032 132.406 437.16 129.958 437.16C127.126 437.16 124.99 439.488 124.99 442.2ZM128.566 440.856C128.662 440.232 129.214 439.728 129.862 439.728C130.486 439.728 131.086 440.232 131.134 440.856H128.566ZM144.866 447C144.938 447.12 145.13 447.24 145.274 447.24H145.394C145.538 447.24 145.73 447.12 145.802 447L150.362 438.048C150.53 437.736 150.314 437.4 149.954 437.4H147.53C147.194 437.4 147.026 437.376 146.882 437.664L145.37 440.928C145.346 440.928 145.322 440.928 145.298 440.928L143.882 437.664C143.81 437.52 143.618 437.4 143.45 437.4H140.762C140.402 437.4 140.186 437.736 140.354 438.048L144.866 447ZM150.958 442.176C150.958 444.936 153.214 447.24 155.95 447.24C158.686 447.24 160.942 444.936 160.942 442.176C160.942 439.464 158.686 437.16 155.95 437.16C153.214 437.16 150.958 439.464 150.958 442.176ZM154.054 442.176C154.054 441.12 154.894 440.256 155.95 440.256C157.006 440.256 157.846 441.12 157.846 442.176C157.846 443.256 157.006 444.144 155.95 444.144C154.894 444.144 154.054 443.256 154.054 442.176ZM163.172 443.904C163.172 446.088 164.228 447.24 166.052 447.24C167.252 447.24 168.956 446.712 168.956 446.712C169.196 446.64 169.316 446.376 169.268 446.16L168.74 444.168C168.668 443.904 168.452 443.808 168.212 443.856C167.972 443.904 167.612 444.024 167.276 444.024C166.988 444.024 166.628 443.976 166.628 443.448V440.448H168.404C168.668 440.448 168.86 440.232 168.86 439.992V437.856C168.86 437.592 168.668 437.4 168.404 437.4H166.628V434.736C166.628 434.496 166.436 434.28 166.196 434.28H163.628C163.388 434.28 163.172 434.496 163.172 434.736V437.4H162.548C162.308 437.4 162.116 437.592 162.116 437.856V439.992C162.116 440.232 162.308 440.448 162.548 440.448H163.172V443.904ZM170.318 442.2C170.318 444.96 172.478 447.24 175.334 447.24C176.846 447.24 178.046 446.712 178.886 445.872C179.102 445.656 179.054 445.368 178.91 445.176L177.71 443.736C177.566 443.568 177.326 443.568 177.11 443.736C176.726 444.024 176.03 444.312 175.43 444.312C174.182 444.312 173.654 443.376 173.582 442.728H179.342C179.558 442.728 179.774 442.56 179.798 442.32C179.822 442.152 179.846 441.84 179.846 441.672C179.846 439.032 177.734 437.16 175.286 437.16C172.454 437.16 170.318 439.488 170.318 442.2ZM173.894 440.856C173.99 440.232 174.542 439.728 175.19 439.728C175.814 439.728 176.414 440.232 176.462 440.856H173.894ZM60.872 470.784C61.16 470.952 62.048 471.24 62.864 471.24C65.432 471.24 67.64 469.584 67.64 466.2C67.64 463.44 65.6 461.16 62.888 461.16C60.776 461.16 59.672 462.672 59.672 462.672L59.384 461.88C59.288 461.616 59.12 461.4 58.88 461.4H57.752C57.512 461.4 57.296 461.616 57.296 461.856V477.744C57.296 477.984 57.512 478.2 57.752 478.2H60.416C60.656 478.2 60.872 477.984 60.872 477.744V470.784ZM60.488 466.224C60.488 465.12 61.304 464.256 62.408 464.256C63.512 464.256 64.352 465.12 64.352 466.224C64.352 467.304 63.512 468.144 62.408 468.144C61.304 468.144 60.488 467.304 60.488 466.224ZM68.7864 466.176C68.7864 468.936 71.0424 471.24 73.7784 471.24C76.5144 471.24 78.7704 468.936 78.7704 466.176C78.7704 463.464 76.5144 461.16 73.7784 461.16C71.0424 461.16 68.7864 463.464 68.7864 466.176ZM71.8824 466.176C71.8824 465.12 72.7224 464.256 73.7784 464.256C74.8344 464.256 75.6744 465.12 75.6744 466.176C75.6744 467.256 74.8344 468.144 73.7784 468.144C72.7224 468.144 71.8824 467.256 71.8824 466.176ZM80.4003 466.2C80.4003 468.936 81.7683 471.24 84.6243 471.24C86.4723 471.24 87.2403 470.376 87.8643 469.776L88.2243 470.664C88.2963 470.832 88.4643 471 88.6803 471H89.8083C90.0483 471 90.2643 470.784 90.2643 470.544V461.856C90.2643 461.592 90.0483 461.4 89.8083 461.4H87.3603C87.1203 461.4 86.8563 461.472 86.8563 461.856V466.44C86.8563 467.256 86.3523 468.144 85.4163 468.144C84.4323 468.144 83.8803 467.28 83.8803 466.296V461.856C83.8803 461.592 83.6643 461.4 83.4243 461.4H80.8563C80.6163 461.4 80.4003 461.592 80.4003 461.856V466.2ZM92.8507 470.544C92.8507 470.784 93.0667 471 93.3067 471H95.7547C96.1387 471 96.2827 470.832 96.2827 470.544V465.576C96.2827 464.76 96.8347 464.208 97.5547 464.208C97.7707 464.208 98.0107 464.28 98.1307 464.328C98.3947 464.424 98.5627 464.28 98.6587 464.112L99.8347 462.192C100.171 461.64 99.2347 461.16 97.9147 461.16C96.6667 461.16 95.7787 462.048 95.2987 462.744L94.8667 461.688C94.7947 461.544 94.6987 461.4 94.4347 461.4H93.3067C93.0667 461.4 92.8507 461.592 92.8507 461.856V470.544ZM106.421 470.544C106.421 470.784 106.637 471 106.877 471H109.517C109.757 471 109.973 470.784 109.973 470.544V454.656C109.973 454.416 109.757 454.2 109.517 454.2H106.877C106.637 454.2 106.421 454.416 106.421 454.656V470.544ZM111.842 466.2C111.842 468.96 114.002 471.24 116.858 471.24C118.37 471.24 119.57 470.712 120.41 469.872C120.626 469.656 120.578 469.368 120.434 469.176L119.234 467.736C119.09 467.568 118.85 467.568 118.634 467.736C118.25 468.024 117.554 468.312 116.954 468.312C115.706 468.312 115.178 467.376 115.106 466.728H120.866C121.082 466.728 121.298 466.56 121.322 466.32C121.346 466.152 121.37 465.84 121.37 465.672C121.37 463.032 119.258 461.16 116.81 461.16C113.978 461.16 111.842 463.488 111.842 466.2ZM115.418 464.856C115.514 464.232 116.066 463.728 116.714 463.728C117.338 463.728 117.938 464.232 117.986 464.856H115.418ZM122.773 470.448C123.253 470.832 124.453 471.24 126.037 471.24C128.749 471.24 130.093 469.872 130.093 468.192C130.093 466.272 128.749 465.504 126.805 464.832C125.989 464.544 125.725 464.304 125.725 464.064C125.725 463.8 125.941 463.728 126.253 463.728C127.189 463.728 128.293 464.28 128.293 464.28C128.485 464.352 128.725 464.28 128.797 464.136L129.685 462.504C129.829 462.264 129.661 462.048 129.445 461.904C128.917 461.568 127.765 461.16 126.253 461.16C123.661 461.16 122.509 462.456 122.509 464.064C122.509 465.552 123.325 466.632 125.197 467.28C126.421 467.712 126.565 468.048 126.565 468.288C126.565 468.576 126.349 468.72 126.109 468.72C125.077 468.72 123.949 468.096 123.949 468.096C123.757 468 123.517 468.144 123.445 468.288L122.604 469.944C122.485 470.16 122.604 470.304 122.773 470.448ZM57.8 494.544C57.8 494.784 58.016 495 58.256 495H61.016C61.256 495 61.472 494.784 61.472 494.544V488.448H63.68C63.944 488.448 64.136 488.232 64.136 487.992V485.856C64.136 485.592 63.944 485.4 63.68 485.4H61.472V483.192C61.472 482.016 61.88 481.2 62.888 481.2C63.368 481.2 63.824 481.416 64.136 481.584C64.328 481.68 64.616 481.584 64.688 481.416L65.696 479.424C65.792 479.256 65.744 478.992 65.6 478.872C65.192 478.488 63.92 477.96 62.672 477.96C59.888 477.96 57.8 479.832 57.8 483.192V485.4H57.296C57.032 485.4 56.84 485.592 56.84 485.856V487.992C56.84 488.232 57.032 488.448 57.296 488.448H57.8V494.544ZM65.1307 490.2C65.1307 492.96 67.2907 495.24 70.1467 495.24C71.6587 495.24 72.8587 494.712 73.6987 493.872C73.9147 493.656 73.8667 493.368 73.7227 493.176L72.5227 491.736C72.3787 491.568 72.1387 491.568 71.9227 491.736C71.5387 492.024 70.8427 492.312 70.2427 492.312C68.9947 492.312 68.4667 491.376 68.3947 490.728H74.1547C74.3707 490.728 74.5867 490.56 74.6107 490.32C74.6347 490.152 74.6587 489.84 74.6587 489.672C74.6587 487.032 72.5467 485.16 70.0987 485.16C67.2667 485.16 65.1307 487.488 65.1307 490.2ZM68.7067 488.856C68.8027 488.232 69.3547 487.728 70.0027 487.728C70.6267 487.728 71.2267 488.232 71.2747 488.856H68.7067ZM76.3976 494.544C76.3976 494.784 76.5896 495 76.8536 495H79.3736C79.6136 495 79.8296 494.784 79.8296 494.544V489.936C79.8296 488.952 80.5496 488.256 81.5096 488.256C82.5896 488.256 83.0216 489.096 83.0216 490.056V494.544C83.0216 494.784 83.2136 495 83.4776 495H85.7816C86.0456 495 86.2376 494.784 86.2376 494.544V489.888C86.2376 488.952 87.0056 488.256 87.8456 488.256C88.9496 488.256 89.4536 489.096 89.4536 490.056V494.544C89.4536 494.784 89.6456 495 89.9096 495H92.4536C92.7176 495 92.9096 494.784 92.9096 494.544V490.2C92.9096 487.464 91.4456 485.16 88.4696 485.16C86.8376 485.16 85.7096 486.072 85.1576 486.624C84.2936 485.664 83.3576 485.16 82.0136 485.16C80.4776 485.16 79.3736 486.024 78.7736 486.648L78.3656 485.664C78.2936 485.52 78.1256 485.4 77.9576 485.4H76.8536C76.5896 485.4 76.3976 485.592 76.3976 485.856V494.544ZM95.2648 494.544C95.2648 494.784 95.4568 495 95.7208 495H98.2408C98.4808 495 98.6968 494.784 98.6968 494.544V489.936C98.6968 488.952 99.4168 488.256 100.377 488.256C101.457 488.256 101.889 489.096 101.889 490.056V494.544C101.889 494.784 102.081 495 102.345 495H104.649C104.913 495 105.105 494.784 105.105 494.544V489.888C105.105 488.952 105.873 488.256 106.713 488.256C107.817 488.256 108.321 489.096 108.321 490.056V494.544C108.321 494.784 108.513 495 108.777 495H111.321C111.585 495 111.777 494.784 111.777 494.544V490.2C111.777 487.464 110.313 485.16 107.337 485.16C105.705 485.16 104.577 486.072 104.025 486.624C103.161 485.664 102.225 485.16 100.881 485.16C99.3448 485.16 98.2408 486.024 97.6408 486.648L97.2328 485.664C97.1608 485.52 96.9928 485.4 96.8248 485.4H95.7208C95.4568 485.4 95.2648 485.592 95.2648 485.856V494.544ZM113.412 490.2C113.412 492.96 115.572 495.24 118.428 495.24C119.94 495.24 121.14 494.712 121.98 493.872C122.196 493.656 122.148 493.368 122.004 493.176L120.804 491.736C120.66 491.568 120.42 491.568 120.204 491.736C119.82 492.024 119.124 492.312 118.524 492.312C117.276 492.312 116.748 491.376 116.676 490.728H122.436C122.652 490.728 122.868 490.56 122.892 490.32C122.916 490.152 122.94 489.84 122.94 489.672C122.94 487.032 120.828 485.16 118.38 485.16C115.548 485.16 113.412 487.488 113.412 490.2ZM116.988 488.856C117.084 488.232 117.636 487.728 118.284 487.728C118.908 487.728 119.508 488.232 119.556 488.856H116.988ZM124.343 494.448C124.823 494.832 126.023 495.24 127.607 495.24C130.319 495.24 131.663 493.872 131.663 492.192C131.663 490.272 130.319 489.504 128.375 488.832C127.559 488.544 127.295 488.304 127.295 488.064C127.295 487.8 127.511 487.728 127.823 487.728C128.759 487.728 129.863 488.28 129.863 488.28C130.055 488.352 130.295 488.28 130.367 488.136L131.255 486.504C131.399 486.264 131.231 486.048 131.015 485.904C130.487 485.568 129.335 485.16 127.823 485.16C125.231 485.16 124.079 486.456 124.079 488.064C124.079 489.552 124.895 490.632 126.767 491.28C127.991 491.712 128.135 492.048 128.135 492.288C128.135 492.576 127.919 492.72 127.679 492.72C126.647 492.72 125.519 492.096 125.519 492.096C125.327 492 125.087 492.144 125.015 492.288L124.175 493.944C124.055 494.16 124.175 494.304 124.343 494.448ZM138.162 490.2C138.162 492.96 140.322 495.24 143.178 495.24C144.69 495.24 145.89 494.712 146.73 493.872C146.946 493.656 146.898 493.368 146.754 493.176L145.554 491.736C145.41 491.568 145.17 491.568 144.954 491.736C144.57 492.024 143.874 492.312 143.274 492.312C142.026 492.312 141.498 491.376 141.426 490.728H147.186C147.402 490.728 147.618 490.56 147.642 490.32C147.666 490.152 147.69 489.84 147.69 489.672C147.69 487.032 145.578 485.16 143.13 485.16C140.298 485.16 138.162 487.488 138.162 490.2ZM141.738 488.856C141.834 488.232 142.386 487.728 143.034 487.728C143.658 487.728 144.258 488.232 144.306 488.856H141.738ZM149.429 494.544C149.429 494.784 149.645 495 149.885 495H152.405C152.741 495 152.837 494.76 152.837 494.544V489.936C152.837 488.952 153.701 488.256 154.661 488.256C155.741 488.256 156.293 489.096 156.293 490.056V494.544C156.293 494.784 156.485 495 156.749 495H159.317C159.557 495 159.773 494.784 159.773 494.544V490.176C159.773 487.44 158.189 485.16 155.213 485.16C153.461 485.16 152.357 486.072 151.829 486.648L151.445 485.688C151.373 485.52 151.157 485.4 151.013 485.4H149.885C149.645 485.4 149.429 485.592 149.429 485.856V494.544ZM56.312 519H58.952C59.432 519 59.696 518.712 59.816 518.424L60.68 516.504H67.208L68.072 518.4C68.288 518.856 68.48 519 68.912 519H71.576C71.936 519 72.128 518.688 71.984 518.376L64.472 502.224C64.4 502.08 64.232 501.96 64.064 501.96H63.824C63.656 501.96 63.488 502.08 63.416 502.224L55.904 518.376C55.76 518.688 55.952 519 56.312 519ZM62.12 513.24L63.92 509.28H63.944L65.768 513.24H62.12ZM73.046 518.544C73.046 518.784 73.262 519 73.502 519H76.022C76.358 519 76.454 518.76 76.454 518.544V513.936C76.454 512.952 77.318 512.256 78.278 512.256C79.358 512.256 79.91 513.096 79.91 514.056V518.544C79.91 518.784 80.102 519 80.366 519H82.934C83.174 519 83.39 518.784 83.39 518.544V514.176C83.39 511.44 81.806 509.16 78.83 509.16C77.078 509.16 75.974 510.072 75.446 510.648L75.062 509.688C74.99 509.52 74.774 509.4 74.63 509.4H73.502C73.262 509.4 73.046 509.592 73.046 509.856V518.544ZM84.6937 518.136C84.6937 520.032 86.2297 520.704 86.5417 520.8V520.872C86.2777 521.016 85.0777 521.736 85.0777 523.176C85.0777 524.688 86.3737 526.44 90.0937 526.44C93.8857 526.44 95.4937 524.568 95.4937 522.264C95.4937 520.128 93.6217 518.76 91.3657 518.76H88.4857C88.1257 518.76 87.7177 518.568 87.7177 518.112C87.7177 517.728 88.0057 517.464 88.5097 517.464H90.2377C92.7817 517.464 94.3897 515.592 94.3897 513.84C94.3897 512.256 93.4777 511.512 93.4777 511.512L94.8697 511.008C95.0137 510.936 95.1337 510.768 95.1337 510.6V509.616C95.1337 509.352 94.9417 509.16 94.6777 509.16H90.1417C87.8137 509.16 85.9177 511.08 85.9177 513.312C85.9177 514.776 86.6137 515.496 86.6137 515.496C86.6137 515.496 84.6937 516.24 84.6937 518.136ZM88.9657 513.528C88.9657 512.808 89.5177 512.28 90.2377 512.28C90.9817 512.28 91.5097 512.808 91.5097 513.528C91.5097 514.248 90.9817 514.776 90.2377 514.776C89.5177 514.776 88.9657 514.248 88.9657 513.528ZM88.3657 522.504C88.3657 521.808 89.2297 521.496 90.0937 521.496C91.3897 521.496 91.8217 522 91.8217 522.504C91.8217 523.152 91.2937 523.632 90.0937 523.632C88.9417 523.632 88.3657 523.176 88.3657 522.504ZM96.8819 518.544C96.8819 518.784 97.0979 519 97.3379 519H99.9779C100.218 519 100.434 518.784 100.434 518.544V502.656C100.434 502.416 100.218 502.2 99.9779 502.2H97.3379C97.0979 502.2 96.8819 502.416 96.8819 502.656V518.544ZM102.303 514.2C102.303 516.96 104.463 519.24 107.319 519.24C108.831 519.24 110.031 518.712 110.871 517.872C111.087 517.656 111.039 517.368 110.895 517.176L109.695 515.736C109.551 515.568 109.311 515.568 109.095 515.736C108.711 516.024 108.015 516.312 107.415 516.312C106.167 516.312 105.639 515.376 105.567 514.728H111.327C111.543 514.728 111.759 514.56 111.783 514.32C111.807 514.152 111.831 513.84 111.831 513.672C111.831 511.032 109.719 509.16 107.271 509.16C104.439 509.16 102.303 511.488 102.303 514.2ZM105.879 512.856C105.975 512.232 106.527 511.728 107.175 511.728C107.799 511.728 108.399 512.232 108.447 512.856H105.879ZM113.953 515.904C113.953 518.088 115.009 519.24 116.833 519.24C118.033 519.24 119.737 518.712 119.737 518.712C119.977 518.64 120.097 518.376 120.049 518.16L119.521 516.168C119.449 515.904 119.233 515.808 118.993 515.856C118.753 515.904 118.393 516.024 118.057 516.024C117.769 516.024 117.409 515.976 117.409 515.448V512.448H119.185C119.449 512.448 119.641 512.232 119.641 511.992V509.856C119.641 509.592 119.449 509.4 119.185 509.4H117.409V506.736C117.409 506.496 117.217 506.28 116.977 506.28H114.409C114.169 506.28 113.953 506.496 113.953 506.736V509.4H113.329C113.089 509.4 112.897 509.592 112.897 509.856V511.992C112.897 512.232 113.089 512.448 113.329 512.448H113.953V515.904ZM121.099 514.2C121.099 516.96 123.259 519.24 126.115 519.24C127.627 519.24 128.827 518.712 129.667 517.872C129.883 517.656 129.835 517.368 129.691 517.176L128.491 515.736C128.347 515.568 128.107 515.568 127.891 515.736C127.507 516.024 126.811 516.312 126.211 516.312C124.963 516.312 124.435 515.376 124.363 514.728H130.123C130.339 514.728 130.555 514.56 130.579 514.32C130.603 514.152 130.627 513.84 130.627 513.672C130.627 511.032 128.515 509.16 126.067 509.16C123.235 509.16 121.099 511.488 121.099 514.2ZM124.675 512.856C124.771 512.232 125.323 511.728 125.971 511.728C126.595 511.728 127.195 512.232 127.243 512.856H124.675ZM132.366 518.544C132.366 518.784 132.582 519 132.822 519H135.27C135.654 519 135.798 518.832 135.798 518.544V513.576C135.798 512.76 136.35 512.208 137.07 512.208C137.286 512.208 137.526 512.28 137.646 512.328C137.91 512.424 138.078 512.28 138.174 512.112L139.35 510.192C139.686 509.64 138.75 509.16 137.43 509.16C136.182 509.16 135.294 510.048 134.814 510.744L134.382 509.688C134.31 509.544 134.214 509.4 133.95 509.4H132.822C132.582 509.4 132.366 509.592 132.366 509.856V518.544ZM140.64 518.544C140.64 518.784 140.856 519 141.096 519H143.544C143.928 519 144.072 518.832 144.072 518.544V513.576C144.072 512.76 144.624 512.208 145.344 512.208C145.56 512.208 145.8 512.28 145.92 512.328C146.184 512.424 146.352 512.28 146.448 512.112L147.624 510.192C147.96 509.64 147.024 509.16 145.704 509.16C144.456 509.16 143.568 510.048 143.088 510.744L142.656 509.688C142.584 509.544 142.488 509.4 142.224 509.4H141.096C140.856 509.4 140.64 509.592 140.64 509.856V518.544ZM148.099 514.2C148.099 516.96 150.259 519.24 153.115 519.24C154.627 519.24 155.827 518.712 156.667 517.872C156.883 517.656 156.835 517.368 156.691 517.176L155.491 515.736C155.347 515.568 155.107 515.568 154.891 515.736C154.507 516.024 153.811 516.312 153.211 516.312C151.963 516.312 151.435 515.376 151.363 514.728H157.123C157.339 514.728 157.555 514.56 157.579 514.32C157.603 514.152 157.627 513.84 157.627 513.672C157.627 511.032 155.515 509.16 153.067 509.16C150.235 509.16 148.099 511.488 148.099 514.2ZM151.675 512.856C151.771 512.232 152.323 511.728 152.971 511.728C153.595 511.728 154.195 512.232 154.243 512.856H151.675Z" fill="black"/>
<path d="M134.664 243.488C135.072 243.992 136.224 245.24 138.312 245.24C141.12 245.24 143.472 243.32 143.472 239.984V228.656C143.472 228.416 143.28 228.2 143.016 228.2H140.088C139.824 228.2 139.632 228.416 139.632 228.656V239.96C139.632 241.16 138.888 241.784 138.216 241.784C137.568 241.784 137.28 241.568 136.992 241.28C136.8 241.088 136.536 241.112 136.344 241.28L134.712 242.888C134.568 243.056 134.544 243.296 134.664 243.488ZM145.349 240.176C145.349 242.936 147.605 245.24 150.341 245.24C153.077 245.24 155.333 242.936 155.333 240.176C155.333 237.464 153.077 235.16 150.341 235.16C147.605 235.16 145.349 237.464 145.349 240.176ZM148.445 240.176C148.445 239.12 149.285 238.256 150.341 238.256C151.397 238.256 152.237 239.12 152.237 240.176C152.237 241.256 151.397 242.144 150.341 242.144C149.285 242.144 148.445 241.256 148.445 240.176ZM156.963 240.2C156.963 242.936 158.331 245.24 161.187 245.24C163.035 245.24 163.803 244.376 164.427 243.776L164.787 244.664C164.859 244.832 165.027 245 165.243 245H166.371C166.611 245 166.827 244.784 166.827 244.544V235.856C166.827 235.592 166.611 235.4 166.371 235.4H163.923C163.683 235.4 163.419 235.472 163.419 235.856V240.44C163.419 241.256 162.915 242.144 161.979 242.144C160.995 242.144 160.443 241.28 160.443 240.296V235.856C160.443 235.592 160.227 235.4 159.987 235.4H157.419C157.179 235.4 156.963 235.592 156.963 235.856V240.2ZM169.413 244.544C169.413 244.784 169.629 245 169.869 245H172.317C172.701 245 172.845 244.832 172.845 244.544V239.576C172.845 238.76 173.397 238.208 174.117 238.208C174.333 238.208 174.573 238.28 174.693 238.328C174.957 238.424 175.125 238.28 175.221 238.112L176.397 236.192C176.733 235.64 175.797 235.16 174.477 235.16C173.229 235.16 172.341 236.048 171.861 236.744L171.429 235.688C171.357 235.544 171.261 235.4 170.997 235.4H169.869C169.629 235.4 169.413 235.592 169.413 235.856V244.544ZM177.687 244.544C177.687 244.784 177.903 245 178.143 245H180.663C180.999 245 181.095 244.76 181.095 244.544V239.936C181.095 238.952 181.959 238.256 182.919 238.256C183.999 238.256 184.551 239.096 184.551 240.056V244.544C184.551 244.784 184.743 245 185.007 245H187.575C187.815 245 188.031 244.784 188.031 244.544V240.176C188.031 237.44 186.447 235.16 183.471 235.16C181.719 235.16 180.615 236.072 180.087 236.648L179.703 235.688C179.631 235.52 179.415 235.4 179.271 235.4H178.143C177.903 235.4 177.687 235.592 177.687 235.856V244.544ZM189.646 240.2C189.646 242.96 191.806 245.24 194.662 245.24C196.174 245.24 197.374 244.712 198.214 243.872C198.43 243.656 198.382 243.368 198.238 243.176L197.038 241.736C196.894 241.568 196.654 241.568 196.438 241.736C196.054 242.024 195.358 242.312 194.758 242.312C193.51 242.312 192.982 241.376 192.91 240.728H198.67C198.886 240.728 199.102 240.56 199.126 240.32C199.15 240.152 199.174 239.84 199.174 239.672C199.174 237.032 197.062 235.16 194.614 235.16C191.782 235.16 189.646 237.488 189.646 240.2ZM193.222 238.856C193.318 238.232 193.87 237.728 194.518 237.728C195.142 237.728 195.742 238.232 195.79 238.856H193.222ZM192.958 232.712L197.326 230.744C197.518 230.624 197.662 230.384 197.47 230.024L196.654 228.608C196.534 228.392 196.174 228.44 196.03 228.536L191.95 231.032C191.83 231.128 191.71 231.296 191.806 231.488L192.31 232.496C192.43 232.736 192.646 232.904 192.958 232.712ZM200.193 240.2C200.193 242.96 202.353 245.24 205.209 245.24C206.721 245.24 207.921 244.712 208.761 243.872C208.977 243.656 208.929 243.368 208.785 243.176L207.585 241.736C207.441 241.568 207.201 241.568 206.985 241.736C206.601 242.024 205.905 242.312 205.305 242.312C204.057 242.312 203.529 241.376 203.457 240.728H209.217C209.433 240.728 209.649 240.56 209.673 240.32C209.697 240.152 209.721 239.84 209.721 239.672C209.721 237.032 207.609 235.16 205.161 235.16C202.329 235.16 200.193 237.488 200.193 240.2ZM203.769 238.856C203.865 238.232 204.417 237.728 205.065 237.728C205.689 237.728 206.289 238.232 206.337 238.856H203.769ZM136.296 268.544C136.296 268.784 136.488 269 136.752 269H139.272C139.512 269 139.728 268.784 139.728 268.544V263.936C139.728 262.952 140.448 262.256 141.408 262.256C142.488 262.256 142.92 263.096 142.92 264.056V268.544C142.92 268.784 143.112 269 143.376 269H145.68C145.944 269 146.136 268.784 146.136 268.544V263.888C146.136 262.952 146.904 262.256 147.744 262.256C148.848 262.256 149.352 263.096 149.352 264.056V268.544C149.352 268.784 149.544 269 149.808 269H152.352C152.616 269 152.808 268.784 152.808 268.544V264.2C152.808 261.464 151.344 259.16 148.368 259.16C146.736 259.16 145.608 260.072 145.056 260.624C144.192 259.664 143.256 259.16 141.912 259.16C140.376 259.16 139.272 260.024 138.672 260.648L138.264 259.664C138.192 259.52 138.024 259.4 137.856 259.4H136.752C136.488 259.4 136.296 259.592 136.296 259.856V268.544ZM154.419 264.176C154.419 266.936 156.675 269.24 159.411 269.24C162.147 269.24 164.403 266.936 164.403 264.176C164.403 261.464 162.147 259.16 159.411 259.16C156.675 259.16 154.419 261.464 154.419 264.176ZM157.515 264.176C157.515 263.12 158.355 262.256 159.411 262.256C160.467 262.256 161.307 263.12 161.307 264.176C161.307 265.256 160.467 266.144 159.411 266.144C158.355 266.144 157.515 265.256 157.515 264.176ZM166.249 268.544C166.249 268.784 166.465 269 166.705 269H169.225C169.561 269 169.657 268.76 169.657 268.544V263.936C169.657 262.952 170.521 262.256 171.481 262.256C172.561 262.256 173.113 263.096 173.113 264.056V268.544C173.113 268.784 173.305 269 173.569 269H176.137C176.377 269 176.593 268.784 176.593 268.544V264.176C176.593 261.44 175.009 259.16 172.033 259.16C170.281 259.16 169.177 260.072 168.649 260.648L168.265 259.688C168.193 259.52 167.977 259.4 167.833 259.4H166.705C166.465 259.4 166.249 259.592 166.249 259.856V268.544ZM178.233 264.2C178.233 266.96 180.273 269.24 182.985 269.24C185.097 269.24 186.201 267.728 186.201 267.728L186.489 268.52C186.585 268.784 186.753 269 186.993 269H188.121C188.361 269 188.577 268.784 188.577 268.544V252.656C188.577 252.416 188.361 252.2 188.121 252.2H185.457C185.217 252.2 185.001 252.416 185.001 252.656V259.616C184.713 259.448 183.825 259.16 183.009 259.16C180.441 259.16 178.233 260.816 178.233 264.2ZM181.521 264.176C181.521 263.096 182.361 262.256 183.465 262.256C184.569 262.256 185.385 263.096 185.385 264.176C185.385 265.28 184.569 266.144 183.465 266.144C182.361 266.144 181.521 265.28 181.521 264.176ZM192.915 256.496C193.971 256.496 194.835 255.656 194.835 254.6C194.835 253.544 193.971 252.68 192.915 252.68C191.859 252.68 191.019 253.544 191.019 254.6C191.019 255.656 191.859 256.496 192.915 256.496ZM191.163 268.544C191.163 268.784 191.379 269 191.619 269H194.259C194.499 269 194.715 268.784 194.715 268.544V259.856C194.715 259.592 194.499 259.4 194.259 259.4H191.619C191.379 259.4 191.163 259.592 191.163 259.856V268.544ZM196.656 266.072C196.656 267.968 198.072 269.24 199.968 269.24C201.48 269.24 202.32 268.544 202.872 268.04L203.208 268.688C203.328 268.952 203.496 269 203.64 269H204.696C204.936 269 205.152 268.784 205.152 268.544V263.24C205.152 260.408 204.072 259.16 201.096 259.16C199.8 259.16 198.12 259.448 197.904 259.52C197.688 259.592 197.472 259.76 197.544 260.168L197.76 261.68C197.808 262.04 197.976 262.304 198.336 262.184C198.96 261.992 200.088 261.824 200.736 261.824C201.888 261.824 202.032 262.304 202.032 263.24C202.032 263.24 201.264 262.856 200.184 262.856C198 262.856 196.656 264.224 196.656 266.072ZM199.776 265.832C199.776 265.28 200.232 264.824 200.808 264.824C201.384 264.824 201.84 265.28 201.864 265.832C201.864 266.408 201.384 266.888 200.808 266.888C200.232 266.888 199.776 266.408 199.776 265.832ZM207.593 268.544C207.593 268.784 207.809 269 208.049 269H210.689C210.929 269 211.145 268.784 211.145 268.544V252.656C211.145 252.416 210.929 252.2 210.689 252.2H208.049C207.809 252.2 207.593 252.416 207.593 252.656V268.544ZM213.014 264.2C213.014 266.96 215.174 269.24 218.03 269.24C219.542 269.24 220.742 268.712 221.582 267.872C221.798 267.656 221.75 267.368 221.606 267.176L220.406 265.736C220.262 265.568 220.022 265.568 219.806 265.736C219.422 266.024 218.726 266.312 218.126 266.312C216.878 266.312 216.35 265.376 216.278 264.728H222.038C222.254 264.728 222.47 264.56 222.494 264.32C222.518 264.152 222.542 263.84 222.542 263.672C222.542 261.032 220.43 259.16 217.982 259.16C215.15 259.16 213.014 261.488 213.014 264.2ZM216.59 262.856C216.686 262.232 217.238 261.728 217.886 261.728C218.51 261.728 219.11 262.232 219.158 262.856H216.59ZM228.881 264.2C228.881 266.96 230.921 269.24 233.633 269.24C235.745 269.24 236.849 267.728 236.849 267.728L237.137 268.52C237.233 268.784 237.401 269 237.641 269H238.769C239.009 269 239.225 268.784 239.225 268.544V252.656C239.225 252.416 239.009 252.2 238.769 252.2H236.105C235.865 252.2 235.649 252.416 235.649 252.656V259.616C235.361 259.448 234.473 259.16 233.657 259.16C231.089 259.16 228.881 260.816 228.881 264.2ZM232.169 264.176C232.169 263.096 233.009 262.256 234.113 262.256C235.217 262.256 236.033 263.096 236.033 264.176C236.033 265.28 235.217 266.144 234.113 266.144C233.009 266.144 232.169 265.28 232.169 264.176ZM241.092 264.2C241.092 266.96 243.252 269.24 246.108 269.24C247.62 269.24 248.82 268.712 249.66 267.872C249.876 267.656 249.828 267.368 249.684 267.176L248.484 265.736C248.34 265.568 248.1 265.568 247.884 265.736C247.5 266.024 246.804 266.312 246.204 266.312C244.956 266.312 244.428 265.376 244.356 264.728H250.116C250.332 264.728 250.548 264.56 250.572 264.32C250.596 264.152 250.62 263.84 250.62 263.672C250.62 261.032 248.508 259.16 246.06 259.16C243.228 259.16 241.092 261.488 241.092 264.2ZM244.668 262.856C244.764 262.232 245.316 261.728 245.964 261.728C246.588 261.728 247.188 262.232 247.236 262.856H244.668ZM257.655 268.544C257.655 268.784 257.871 269 258.111 269H260.751C260.991 269 261.207 268.784 261.207 268.544V252.656C261.207 252.416 260.991 252.2 260.751 252.2H258.111C257.871 252.2 257.655 252.416 257.655 252.656V268.544ZM263.148 266.072C263.148 267.968 264.564 269.24 266.46 269.24C267.972 269.24 268.812 268.544 269.364 268.04L269.7 268.688C269.82 268.952 269.988 269 270.132 269H271.188C271.428 269 271.644 268.784 271.644 268.544V263.24C271.644 260.408 270.564 259.16 267.588 259.16C266.292 259.16 264.612 259.448 264.396 259.52C264.18 259.592 263.964 259.76 264.036 260.168L264.252 261.68C264.3 262.04 264.468 262.304 264.828 262.184C265.452 261.992 266.58 261.824 267.228 261.824C268.38 261.824 268.524 262.304 268.524 263.24C268.524 263.24 267.756 262.856 266.676 262.856C264.492 262.856 263.148 264.224 263.148 266.072ZM266.268 265.832C266.268 265.28 266.724 264.824 267.3 264.824C267.876 264.824 268.332 265.28 268.356 265.832C268.356 266.408 267.876 266.888 267.3 266.888C266.724 266.888 266.268 266.408 266.268 265.832ZM136.8 292.544C136.8 292.784 137.016 293 137.256 293H140.016C140.256 293 140.472 292.784 140.472 292.544V286.448H142.68C142.944 286.448 143.136 286.232 143.136 285.992V283.856C143.136 283.592 142.944 283.4 142.68 283.4H140.472V281.192C140.472 280.016 140.88 279.2 141.888 279.2C142.368 279.2 142.824 279.416 143.136 279.584C143.328 279.68 143.616 279.584 143.688 279.416L144.696 277.424C144.792 277.256 144.744 276.992 144.6 276.872C144.192 276.488 142.92 275.96 141.672 275.96C138.888 275.96 136.8 277.832 136.8 281.192V283.4H136.296C136.032 283.4 135.84 283.592 135.84 283.856V285.992C135.84 286.232 136.032 286.448 136.296 286.448H136.8V292.544ZM144.131 288.2C144.131 290.96 146.291 293.24 149.147 293.24C150.659 293.24 151.859 292.712 152.699 291.872C152.915 291.656 152.867 291.368 152.723 291.176L151.523 289.736C151.379 289.568 151.139 289.568 150.923 289.736C150.539 290.024 149.843 290.312 149.243 290.312C147.995 290.312 147.467 289.376 147.395 288.728H153.155C153.371 288.728 153.587 288.56 153.611 288.32C153.635 288.152 153.659 287.84 153.659 287.672C153.659 285.032 151.547 283.16 149.099 283.16C146.267 283.16 144.131 285.488 144.131 288.2ZM147.707 286.856C147.803 286.232 148.355 285.728 149.003 285.728C149.627 285.728 150.227 286.232 150.275 286.856H147.707ZM155.398 292.544C155.398 292.784 155.59 293 155.854 293H158.374C158.614 293 158.83 292.784 158.83 292.544V287.936C158.83 286.952 159.55 286.256 160.51 286.256C161.59 286.256 162.022 287.096 162.022 288.056V292.544C162.022 292.784 162.214 293 162.478 293H164.782C165.046 293 165.238 292.784 165.238 292.544V287.888C165.238 286.952 166.006 286.256 166.846 286.256C167.95 286.256 168.454 287.096 168.454 288.056V292.544C168.454 292.784 168.646 293 168.91 293H171.454C171.718 293 171.91 292.784 171.91 292.544V288.2C171.91 285.464 170.446 283.16 167.47 283.16C165.838 283.16 164.71 284.072 164.158 284.624C163.294 283.664 162.358 283.16 161.014 283.16C159.478 283.16 158.374 284.024 157.774 284.648L157.366 283.664C157.294 283.52 157.126 283.4 156.958 283.4H155.854C155.59 283.4 155.398 283.592 155.398 283.856V292.544ZM174.265 292.544C174.265 292.784 174.457 293 174.721 293H177.241C177.481 293 177.697 292.784 177.697 292.544V287.936C177.697 286.952 178.417 286.256 179.377 286.256C180.457 286.256 180.889 287.096 180.889 288.056V292.544C180.889 292.784 181.081 293 181.345 293H183.649C183.913 293 184.105 292.784 184.105 292.544V287.888C184.105 286.952 184.873 286.256 185.713 286.256C186.817 286.256 187.321 287.096 187.321 288.056V292.544C187.321 292.784 187.513 293 187.777 293H190.321C190.585 293 190.777 292.784 190.777 292.544V288.2C190.777 285.464 189.313 283.16 186.337 283.16C184.705 283.16 183.577 284.072 183.025 284.624C182.161 283.664 181.225 283.16 179.881 283.16C178.345 283.16 177.241 284.024 176.641 284.648L176.233 283.664C176.161 283.52 175.993 283.4 175.825 283.4H174.721C174.457 283.4 174.265 283.592 174.265 283.856V292.544ZM192.412 288.2C192.412 290.96 194.572 293.24 197.428 293.24C198.94 293.24 200.14 292.712 200.98 291.872C201.196 291.656 201.148 291.368 201.004 291.176L199.804 289.736C199.66 289.568 199.42 289.568 199.204 289.736C198.82 290.024 198.124 290.312 197.524 290.312C196.276 290.312 195.748 289.376 195.676 288.728H201.436C201.652 288.728 201.868 288.56 201.892 288.32C201.916 288.152 201.94 287.84 201.94 287.672C201.94 285.032 199.828 283.16 197.38 283.16C194.548 283.16 192.412 285.488 192.412 288.2ZM195.988 286.856C196.084 286.232 196.636 285.728 197.284 285.728C197.908 285.728 198.508 286.232 198.556 286.856H195.988ZM138.048 304.496C139.104 304.496 139.968 303.656 139.968 302.6C139.968 301.544 139.104 300.68 138.048 300.68C136.992 300.68 136.152 301.544 136.152 302.6C136.152 303.656 136.992 304.496 138.048 304.496ZM136.296 316.544C136.296 316.784 136.512 317 136.752 317H139.392C139.632 317 139.848 316.784 139.848 316.544V307.856C139.848 307.592 139.632 307.4 139.392 307.4H136.752C136.512 307.4 136.296 307.592 136.296 307.856V316.544ZM142.437 316.544C142.437 316.784 142.653 317 142.893 317H145.413C145.749 317 145.845 316.76 145.845 316.544V311.936C145.845 310.952 146.709 310.256 147.669 310.256C148.749 310.256 149.301 311.096 149.301 312.056V316.544C149.301 316.784 149.493 317 149.757 317H152.325C152.565 317 152.781 316.784 152.781 316.544V312.176C152.781 309.44 151.197 307.16 148.221 307.16C146.469 307.16 145.365 308.072 144.837 308.648L144.453 307.688C144.381 307.52 144.165 307.4 144.021 307.4H142.893C142.653 307.4 142.437 307.592 142.437 307.856V316.544ZM154.78 316.448C155.26 316.832 156.46 317.24 158.044 317.24C160.756 317.24 162.1 315.872 162.1 314.192C162.1 312.272 160.756 311.504 158.812 310.832C157.996 310.544 157.732 310.304 157.732 310.064C157.732 309.8 157.948 309.728 158.26 309.728C159.196 309.728 160.3 310.28 160.3 310.28C160.492 310.352 160.732 310.28 160.804 310.136L161.692 308.504C161.836 308.264 161.668 308.048 161.452 307.904C160.924 307.568 159.772 307.16 158.26 307.16C155.668 307.16 154.516 308.456 154.516 310.064C154.516 311.552 155.332 312.632 157.204 313.28C158.428 313.712 158.572 314.048 158.572 314.288C158.572 314.576 158.356 314.72 158.116 314.72C157.084 314.72 155.956 314.096 155.956 314.096C155.764 314 155.524 314.144 155.452 314.288L154.612 315.944C154.492 316.16 154.612 316.304 154.78 316.448ZM164.407 313.904C164.407 316.088 165.463 317.24 167.287 317.24C168.487 317.24 170.191 316.712 170.191 316.712C170.431 316.64 170.551 316.376 170.503 316.16L169.975 314.168C169.903 313.904 169.687 313.808 169.447 313.856C169.207 313.904 168.847 314.024 168.511 314.024C168.223 314.024 167.863 313.976 167.863 313.448V310.448H169.639C169.903 310.448 170.095 310.232 170.095 309.992V307.856C170.095 307.592 169.903 307.4 169.639 307.4H167.863V304.736C167.863 304.496 167.671 304.28 167.431 304.28H164.863C164.623 304.28 164.407 304.496 164.407 304.736V307.4H163.783C163.543 307.4 163.351 307.592 163.351 307.856V309.992C163.351 310.232 163.543 310.448 163.783 310.448H164.407V313.904ZM171.625 314.072C171.625 315.968 173.041 317.24 174.937 317.24C176.449 317.24 177.289 316.544 177.841 316.04L178.177 316.688C178.297 316.952 178.465 317 178.609 317H179.665C179.905 317 180.121 316.784 180.121 316.544V311.24C180.121 308.408 179.041 307.16 176.065 307.16C174.769 307.16 173.089 307.448 172.873 307.52C172.657 307.592 172.441 307.76 172.513 308.168L172.729 309.68C172.777 310.04 172.945 310.304 173.305 310.184C173.929 309.992 175.057 309.824 175.705 309.824C176.857 309.824 177.001 310.304 177.001 311.24C177.001 311.24 176.233 310.856 175.153 310.856C172.969 310.856 171.625 312.224 171.625 314.072ZM174.745 313.832C174.745 313.28 175.201 312.824 175.777 312.824C176.353 312.824 176.809 313.28 176.833 313.832C176.833 314.408 176.353 314.888 175.777 314.888C175.201 314.888 174.745 314.408 174.745 313.832ZM182.346 312.2C182.346 314.936 183.714 317.24 186.57 317.24C188.418 317.24 189.186 316.376 189.81 315.776L190.17 316.664C190.242 316.832 190.41 317 190.626 317H191.754C191.994 317 192.21 316.784 192.21 316.544V307.856C192.21 307.592 191.994 307.4 191.754 307.4H189.306C189.066 307.4 188.802 307.472 188.802 307.856V312.44C188.802 313.256 188.298 314.144 187.362 314.144C186.378 314.144 185.826 313.28 185.826 312.296V307.856C185.826 307.592 185.61 307.4 185.37 307.4H182.802C182.562 307.4 182.346 307.592 182.346 307.856V312.2ZM194.796 316.544C194.796 316.784 195.012 317 195.252 317H197.7C198.084 317 198.228 316.832 198.228 316.544V311.576C198.228 310.76 198.78 310.208 199.5 310.208C199.716 310.208 199.956 310.28 200.076 310.328C200.34 310.424 200.508 310.28 200.604 310.112L201.78 308.192C202.116 307.64 201.18 307.16 199.86 307.16C198.612 307.16 197.724 308.048 197.244 308.744L196.812 307.688C196.74 307.544 196.644 307.4 196.38 307.4H195.252C195.012 307.4 194.796 307.592 194.796 307.856V316.544ZM202.256 312.2C202.256 314.96 204.416 317.24 207.272 317.24C208.784 317.24 209.984 316.712 210.824 315.872C211.04 315.656 210.992 315.368 210.848 315.176L209.648 313.736C209.504 313.568 209.264 313.568 209.048 313.736C208.664 314.024 207.968 314.312 207.368 314.312C206.12 314.312 205.592 313.376 205.52 312.728H211.28C211.496 312.728 211.712 312.56 211.736 312.32C211.76 312.152 211.784 311.84 211.784 311.672C211.784 309.032 209.672 307.16 207.224 307.16C204.392 307.16 202.256 309.488 202.256 312.2ZM205.832 310.856C205.928 310.232 206.48 309.728 207.128 309.728C207.752 309.728 208.352 310.232 208.4 310.856H205.832ZM205.568 304.712L209.936 302.744C210.128 302.624 210.272 302.384 210.08 302.024L209.264 300.608C209.144 300.392 208.784 300.44 208.64 300.536L204.56 303.032C204.44 303.128 204.32 303.296 204.416 303.488L204.92 304.496C205.04 304.736 205.256 304.904 205.568 304.712ZM212.803 312.2C212.803 314.96 214.963 317.24 217.819 317.24C219.331 317.24 220.531 316.712 221.371 315.872C221.587 315.656 221.539 315.368 221.395 315.176L220.195 313.736C220.051 313.568 219.811 313.568 219.595 313.736C219.211 314.024 218.515 314.312 217.915 314.312C216.667 314.312 216.139 313.376 216.067 312.728H221.827C222.043 312.728 222.259 312.56 222.283 312.32C222.307 312.152 222.331 311.84 222.331 311.672C222.331 309.032 220.219 307.16 217.771 307.16C214.939 307.16 212.803 309.488 212.803 312.2ZM216.379 310.856C216.475 310.232 217.027 309.728 217.675 309.728C218.299 309.728 218.899 310.232 218.947 310.856H216.379Z" fill="black"/>
<path d="M57.84 40.624C57.84 45.424 61.704 49.24 66.504 49.24C68.64 49.24 70.704 48.496 72.336 46.912C72.504 46.744 72.528 46.432 72.36 46.264L70.488 44.272C70.344 44.104 70.032 44.104 69.864 44.248C69 44.992 67.776 45.4 66.648 45.4C63.936 45.4 61.92 43.192 61.92 40.528C61.92 37.84 63.912 35.584 66.624 35.584C67.8 35.584 68.976 36.016 69.864 36.808C70.032 36.976 70.296 36.976 70.464 36.808L72.336 34.864C72.528 34.672 72.528 34.384 72.312 34.192C70.68 32.704 68.904 31.96 66.504 31.96C61.704 31.96 57.84 35.824 57.84 40.624ZM73.9757 48.544C73.9757 48.784 74.1917 49 74.4317 49H76.8797C77.2637 49 77.4077 48.832 77.4077 48.544V43.576C77.4077 42.76 77.9597 42.208 78.6797 42.208C78.8957 42.208 79.1357 42.28 79.2557 42.328C79.5197 42.424 79.6877 42.28 79.7837 42.112L80.9597 40.192C81.2957 39.64 80.3597 39.16 79.0397 39.16C77.7917 39.16 76.9037 40.048 76.4237 40.744L75.9917 39.688C75.9197 39.544 75.8237 39.4 75.5597 39.4H74.4317C74.1917 39.4 73.9757 39.592 73.9757 39.856V48.544ZM81.4354 44.2C81.4354 46.96 83.5954 49.24 86.4514 49.24C87.9634 49.24 89.1634 48.712 90.0034 47.872C90.2194 47.656 90.1714 47.368 90.0274 47.176L88.8274 45.736C88.6834 45.568 88.4434 45.568 88.2274 45.736C87.8434 46.024 87.1474 46.312 86.5474 46.312C85.2994 46.312 84.7714 45.376 84.6994 44.728H90.4594C90.6754 44.728 90.8914 44.56 90.9154 44.32C90.9394 44.152 90.9634 43.84 90.9634 43.672C90.9634 41.032 88.8514 39.16 86.4034 39.16C83.5714 39.16 81.4354 41.488 81.4354 44.2ZM85.0114 42.856C85.1074 42.232 85.6594 41.728 86.3074 41.728C86.9314 41.728 87.5314 42.232 87.5794 42.856H85.0114ZM84.7474 36.712L89.1154 34.744C89.3074 34.624 89.4514 34.384 89.2594 34.024L88.4434 32.608C88.3234 32.392 87.9634 32.44 87.8194 32.536L83.7394 35.032C83.6194 35.128 83.4994 35.296 83.5954 35.488L84.0994 36.496C84.2194 36.736 84.4354 36.904 84.7474 36.712ZM92.0543 46.072C92.0543 47.968 93.4703 49.24 95.3663 49.24C96.8783 49.24 97.7183 48.544 98.2703 48.04L98.6063 48.688C98.7263 48.952 98.8943 49 99.0383 49H100.094C100.334 49 100.55 48.784 100.55 48.544V43.24C100.55 40.408 99.4703 39.16 96.4943 39.16C95.1983 39.16 93.5183 39.448 93.3023 39.52C93.0863 39.592 92.8703 39.76 92.9423 40.168L93.1583 41.68C93.2063 42.04 93.3743 42.304 93.7343 42.184C94.3583 41.992 95.4863 41.824 96.1343 41.824C97.2863 41.824 97.4303 42.304 97.4303 43.24C97.4303 43.24 96.6623 42.856 95.5823 42.856C93.3983 42.856 92.0543 44.224 92.0543 46.072ZM95.1743 45.832C95.1743 45.28 95.6303 44.824 96.2063 44.824C96.7823 44.824 97.2383 45.28 97.2623 45.832C97.2623 46.408 96.7823 46.888 96.2063 46.888C95.6303 46.888 95.1743 46.408 95.1743 45.832ZM103.375 45.904C103.375 48.088 104.431 49.24 106.255 49.24C107.455 49.24 109.159 48.712 109.159 48.712C109.399 48.64 109.519 48.376 109.471 48.16L108.943 46.168C108.871 45.904 108.655 45.808 108.415 45.856C108.175 45.904 107.815 46.024 107.479 46.024C107.191 46.024 106.831 45.976 106.831 45.448V42.448H108.607C108.871 42.448 109.063 42.232 109.063 41.992V39.856C109.063 39.592 108.871 39.4 108.607 39.4H106.831V36.736C106.831 36.496 106.639 36.28 106.399 36.28H103.831C103.591 36.28 103.375 36.496 103.375 36.736V39.4H102.751C102.511 39.4 102.319 39.592 102.319 39.856V41.992C102.319 42.232 102.511 42.448 102.751 42.448H103.375V45.904ZM112.993 36.496C114.049 36.496 114.913 35.656 114.913 34.6C114.913 33.544 114.049 32.68 112.993 32.68C111.937 32.68 111.097 33.544 111.097 34.6C111.097 35.656 111.937 36.496 112.993 36.496ZM111.241 48.544C111.241 48.784 111.457 49 111.697 49H114.337C114.577 49 114.793 48.784 114.793 48.544V39.856C114.793 39.592 114.577 39.4 114.337 39.4H111.697C111.457 39.4 111.241 39.592 111.241 39.856V48.544ZM116.638 44.176C116.638 46.936 118.894 49.24 121.63 49.24C124.366 49.24 126.622 46.936 126.622 44.176C126.622 41.464 124.366 39.16 121.63 39.16C118.894 39.16 116.638 41.464 116.638 44.176ZM119.734 44.176C119.734 43.12 120.574 42.256 121.63 42.256C122.686 42.256 123.526 43.12 123.526 44.176C123.526 45.256 122.686 46.144 121.63 46.144C120.574 46.144 119.734 45.256 119.734 44.176ZM128.468 48.544C128.468 48.784 128.684 49 128.924 49H131.444C131.78 49 131.876 48.76 131.876 48.544V43.936C131.876 42.952 132.74 42.256 133.7 42.256C134.78 42.256 135.332 43.096 135.332 44.056V48.544C135.332 48.784 135.524 49 135.788 49H138.356C138.596 49 138.812 48.784 138.812 48.544V44.176C138.812 41.44 137.228 39.16 134.252 39.16C132.5 39.16 131.396 40.072 130.868 40.648L130.484 39.688C130.412 39.52 130.196 39.4 130.052 39.4H128.924C128.684 39.4 128.468 39.592 128.468 39.856V48.544ZM145.748 44.2C145.748 46.96 147.788 49.24 150.5 49.24C152.612 49.24 153.716 47.728 153.716 47.728L154.004 48.52C154.1 48.784 154.268 49 154.508 49H155.636C155.876 49 156.092 48.784 156.092 48.544V32.656C156.092 32.416 155.876 32.2 155.636 32.2H152.972C152.732 32.2 152.516 32.416 152.516 32.656V39.616C152.228 39.448 151.34 39.16 150.524 39.16C147.956 39.16 145.748 40.816 145.748 44.2ZM149.036 44.176C149.036 43.096 149.876 42.256 150.98 42.256C152.084 42.256 152.9 43.096 152.9 44.176C152.9 45.28 152.084 46.144 150.98 46.144C149.876 46.144 149.036 45.28 149.036 44.176ZM158.463 44.2C158.463 46.936 159.831 49.24 162.687 49.24C164.535 49.24 165.303 48.376 165.927 47.776L166.287 48.664C166.359 48.832 166.527 49 166.743 49H167.871C168.111 49 168.327 48.784 168.327 48.544V39.856C168.327 39.592 168.111 39.4 167.871 39.4H165.423C165.183 39.4 164.919 39.472 164.919 39.856V44.44C164.919 45.256 164.415 46.144 163.479 46.144C162.495 46.144 161.943 45.28 161.943 44.296V39.856C161.943 39.592 161.727 39.4 161.487 39.4H158.919C158.679 39.4 158.463 39.592 158.463 39.856V44.2ZM58.296 72.544C58.296 72.784 58.488 73 58.752 73H61.272C61.512 73 61.728 72.784 61.728 72.544V67.936C61.728 66.952 62.448 66.256 63.408 66.256C64.488 66.256 64.92 67.096 64.92 68.056V72.544C64.92 72.784 65.112 73 65.376 73H67.68C67.944 73 68.136 72.784 68.136 72.544V67.888C68.136 66.952 68.904 66.256 69.744 66.256C70.848 66.256 71.352 67.096 71.352 68.056V72.544C71.352 72.784 71.544 73 71.808 73H74.352C74.616 73 74.808 72.784 74.808 72.544V68.2C74.808 65.464 73.344 63.16 70.368 63.16C68.736 63.16 67.608 64.072 67.056 64.624C66.192 63.664 65.256 63.16 63.912 63.16C62.376 63.16 61.272 64.024 60.672 64.648L60.264 63.664C60.192 63.52 60.024 63.4 59.856 63.4H58.752C58.488 63.4 58.296 63.592 58.296 63.856V72.544ZM76.4192 68.176C76.4192 70.936 78.6752 73.24 81.4112 73.24C84.1472 73.24 86.4032 70.936 86.4032 68.176C86.4032 65.464 84.1472 63.16 81.4112 63.16C78.6752 63.16 76.4192 65.464 76.4192 68.176ZM79.5152 68.176C79.5152 67.12 80.3552 66.256 81.4112 66.256C82.4672 66.256 83.3072 67.12 83.3072 68.176C83.3072 69.256 82.4672 70.144 81.4112 70.144C80.3552 70.144 79.5152 69.256 79.5152 68.176ZM88.0331 68.2C88.0331 70.936 89.4011 73.24 92.2571 73.24C94.1051 73.24 94.8731 72.376 95.4971 71.776L95.8571 72.664C95.9291 72.832 96.0971 73 96.3131 73H97.4411C97.6811 73 97.8971 72.784 97.8971 72.544V63.856C97.8971 63.592 97.6811 63.4 97.4411 63.4H94.9931C94.7531 63.4 94.4891 63.472 94.4891 63.856V68.44C94.4891 69.256 93.9851 70.144 93.0491 70.144C92.0651 70.144 91.5131 69.28 91.5131 68.296V63.856C91.5131 63.592 91.2971 63.4 91.0571 63.4H88.4891C88.2491 63.4 88.0331 63.592 88.0331 63.856V68.2ZM103.796 73C103.868 73.12 104.06 73.24 104.204 73.24H104.324C104.468 73.24 104.66 73.12 104.732 73L109.292 64.048C109.46 63.736 109.244 63.4 108.884 63.4H106.46C106.124 63.4 105.956 63.376 105.812 63.664L104.3 66.928C104.276 66.928 104.252 66.928 104.228 66.928L102.812 63.664C102.74 63.52 102.548 63.4 102.38 63.4H99.6915C99.3315 63.4 99.1155 63.736 99.2835 64.048L103.796 73ZM109.912 68.2C109.912 70.96 112.072 73.24 114.928 73.24C116.44 73.24 117.64 72.712 118.48 71.872C118.696 71.656 118.648 71.368 118.504 71.176L117.304 69.736C117.16 69.568 116.92 69.568 116.704 69.736C116.32 70.024 115.624 70.312 115.024 70.312C113.776 70.312 113.248 69.376 113.176 68.728H118.936C119.152 68.728 119.368 68.56 119.392 68.32C119.416 68.152 119.44 67.84 119.44 67.672C119.44 65.032 117.328 63.16 114.88 63.16C112.048 63.16 109.912 65.488 109.912 68.2ZM113.488 66.856C113.584 66.232 114.136 65.728 114.784 65.728C115.408 65.728 116.008 66.232 116.056 66.856H113.488ZM121.179 72.544C121.179 72.784 121.371 73 121.635 73H124.155C124.395 73 124.611 72.784 124.611 72.544V67.936C124.611 66.952 125.331 66.256 126.291 66.256C127.371 66.256 127.803 67.096 127.803 68.056V72.544C127.803 72.784 127.995 73 128.259 73H130.563C130.827 73 131.019 72.784 131.019 72.544V67.888C131.019 66.952 131.787 66.256 132.627 66.256C133.731 66.256 134.235 67.096 134.235 68.056V72.544C134.235 72.784 134.427 73 134.691 73H137.235C137.499 73 137.691 72.784 137.691 72.544V68.2C137.691 65.464 136.227 63.16 133.251 63.16C131.619 63.16 130.491 64.072 129.939 64.624C129.075 63.664 128.139 63.16 126.795 63.16C125.259 63.16 124.155 64.024 123.555 64.648L123.147 63.664C123.075 63.52 122.907 63.4 122.739 63.4H121.635C121.371 63.4 121.179 63.592 121.179 63.856V72.544ZM139.326 68.2C139.326 70.96 141.486 73.24 144.342 73.24C145.854 73.24 147.054 72.712 147.894 71.872C148.11 71.656 148.062 71.368 147.918 71.176L146.718 69.736C146.574 69.568 146.334 69.568 146.118 69.736C145.734 70.024 145.038 70.312 144.438 70.312C143.19 70.312 142.662 69.376 142.59 68.728H148.35C148.566 68.728 148.782 68.56 148.806 68.32C148.83 68.152 148.854 67.84 148.854 67.672C148.854 65.032 146.742 63.16 144.294 63.16C141.462 63.16 139.326 65.488 139.326 68.2ZM142.902 66.856C142.998 66.232 143.55 65.728 144.198 65.728C144.822 65.728 145.422 66.232 145.47 66.856H142.902ZM150.593 72.544C150.593 72.784 150.809 73 151.049 73H153.569C153.905 73 154.001 72.76 154.001 72.544V67.936C154.001 66.952 154.865 66.256 155.825 66.256C156.905 66.256 157.457 67.096 157.457 68.056V72.544C157.457 72.784 157.649 73 157.913 73H160.481C160.721 73 160.937 72.784 160.937 72.544V68.176C160.937 65.44 159.353 63.16 156.377 63.16C154.625 63.16 153.521 64.072 152.993 64.648L152.609 63.688C152.537 63.52 152.321 63.4 152.177 63.4H151.049C150.809 63.4 150.593 63.592 150.593 63.856V72.544ZM163.586 69.904C163.586 72.088 164.642 73.24 166.466 73.24C167.666 73.24 169.37 72.712 169.37 72.712C169.61 72.64 169.73 72.376 169.682 72.16L169.154 70.168C169.082 69.904 168.866 69.808 168.626 69.856C168.386 69.904 168.026 70.024 167.69 70.024C167.402 70.024 167.042 69.976 167.042 69.448V66.448H168.818C169.082 66.448 169.274 66.232 169.274 65.992V63.856C169.274 63.592 169.082 63.4 168.818 63.4H167.042V60.736C167.042 60.496 166.85 60.28 166.61 60.28H164.042C163.802 60.28 163.586 60.496 163.586 60.736V63.4H162.962C162.722 63.4 162.53 63.592 162.53 63.856V65.992C162.53 66.232 162.722 66.448 162.962 66.448H163.586V69.904ZM57.6 92.2C57.6 94.96 59.64 97.24 62.352 97.24C64.464 97.24 65.568 95.728 65.568 95.728L65.856 96.52C65.952 96.784 66.12 97 66.36 97H67.488C67.728 97 67.944 96.784 67.944 96.544V80.656C67.944 80.416 67.728 80.2 67.488 80.2H64.824C64.584 80.2 64.368 80.416 64.368 80.656V87.616C64.08 87.448 63.192 87.16 62.376 87.16C59.808 87.16 57.6 88.816 57.6 92.2ZM60.888 92.176C60.888 91.096 61.728 90.256 62.832 90.256C63.936 90.256 64.752 91.096 64.752 92.176C64.752 93.28 63.936 94.144 62.832 94.144C61.728 94.144 60.888 93.28 60.888 92.176ZM69.8104 92.2C69.8104 94.96 71.9704 97.24 74.8264 97.24C76.3384 97.24 77.5384 96.712 78.3784 95.872C78.5944 95.656 78.5464 95.368 78.4024 95.176L77.2024 93.736C77.0584 93.568 76.8184 93.568 76.6024 93.736C76.2184 94.024 75.5224 94.312 74.9224 94.312C73.6744 94.312 73.1464 93.376 73.0744 92.728H78.8344C79.0504 92.728 79.2664 92.56 79.2904 92.32C79.3144 92.152 79.3384 91.84 79.3384 91.672C79.3384 89.032 77.2264 87.16 74.7784 87.16C71.9464 87.16 69.8104 89.488 69.8104 92.2ZM73.3864 90.856C73.4824 90.232 74.0344 89.728 74.6824 89.728C75.3064 89.728 75.9064 90.232 75.9544 90.856H73.3864ZM80.7413 96.448C81.2213 96.832 82.4213 97.24 84.0053 97.24C86.7173 97.24 88.0613 95.872 88.0613 94.192C88.0613 92.272 86.7173 91.504 84.7733 90.832C83.9573 90.544 83.6933 90.304 83.6933 90.064C83.6933 89.8 83.9093 89.728 84.2213 89.728C85.1573 89.728 86.2613 90.28 86.2613 90.28C86.4533 90.352 86.6933 90.28 86.7653 90.136L87.6533 88.504C87.7973 88.264 87.6293 88.048 87.4133 87.904C86.8853 87.568 85.7333 87.16 84.2213 87.16C81.6293 87.16 80.4773 88.456 80.4773 90.064C80.4773 91.552 81.2933 92.632 83.1653 93.28C84.3893 93.712 84.5333 94.048 84.5333 94.288C84.5333 94.576 84.3173 94.72 84.0773 94.72C83.0453 94.72 81.9173 94.096 81.9173 94.096C81.7253 94 81.4853 94.144 81.4133 94.288L80.5732 95.944C80.4533 96.16 80.5732 96.304 80.7413 96.448ZM58.224 119.392C58.776 119.944 60.504 121.24 63.624 121.24C67.152 121.24 69.288 118.744 69.288 116.272C69.288 113.008 66.312 111.544 64.44 110.8C62.544 110.032 61.824 109.36 61.824 108.472C61.824 107.824 62.472 107.248 63.336 107.248C64.8 107.248 66.552 108.568 66.768 108.688C66.984 108.856 67.416 108.64 67.584 108.376L68.808 106.528C68.904 106.36 68.952 105.928 68.664 105.76C67.944 105.232 66.024 103.96 63.528 103.96C59.832 103.96 57.984 106.36 57.984 108.736C57.984 111.616 60.576 113.224 62.64 114.04C64.272 114.688 65.112 115.456 65.112 116.464C65.112 117.304 64.416 117.904 63.456 117.904C61.872 117.904 60.144 116.632 60.048 116.584C59.88 116.464 59.424 116.416 59.232 116.728L58.104 118.72C57.912 119.056 57.984 119.152 58.224 119.392ZM70.9003 116.2C70.9003 118.936 72.2683 121.24 75.1243 121.24C76.9723 121.24 77.7403 120.376 78.3643 119.776L78.7243 120.664C78.7963 120.832 78.9643 121 79.1803 121H80.3083C80.5483 121 80.7643 120.784 80.7643 120.544V111.856C80.7643 111.592 80.5483 111.4 80.3083 111.4H77.8603C77.6203 111.4 77.3563 111.472 77.3563 111.856V116.44C77.3563 117.256 76.8523 118.144 75.9163 118.144C74.9323 118.144 74.3803 117.28 74.3803 116.296V111.856C74.3803 111.592 74.1643 111.4 73.9243 111.4H71.3563C71.1163 111.4 70.9003 111.592 70.9003 111.856V116.2ZM83.8547 120.544C83.8547 120.784 84.0707 121 84.3107 121H87.0707C87.3107 121 87.5267 120.784 87.5267 120.544V114.448H91.3187V120.544C91.3187 120.784 91.5347 121 91.7747 121H94.5347C94.7747 121 94.9907 120.784 94.9907 120.544V114.448H97.1987C97.4627 114.448 97.6547 114.232 97.6547 113.992V111.856C97.6547 111.592 97.4627 111.4 97.1987 111.4H94.9907V109.192C94.9907 108.016 95.3987 107.2 96.4067 107.2C96.8867 107.2 97.3427 107.416 97.6547 107.584C97.8467 107.68 98.1347 107.584 98.2067 107.416L99.2147 105.424C99.3107 105.256 99.2627 104.992 99.1187 104.872C98.7107 104.488 97.4387 103.96 96.1907 103.96C94.7507 103.96 93.5267 104.464 92.6387 105.376C91.9907 104.824 90.8627 104.2 89.2067 104.2C86.3027 104.2 83.8547 106.072 83.8547 109.552V111.4H83.3507C83.0867 111.4 82.8947 111.592 82.8947 111.856V113.992C82.8947 114.232 83.0867 114.448 83.3507 114.448H83.8547V120.544ZM87.5267 111.4V109.552C87.5267 108.376 88.2947 107.44 89.4707 107.44C90.4067 107.44 91.0547 107.92 91.3667 108.28C91.3427 108.568 91.3187 108.88 91.3187 109.192V111.4H87.5267ZM99.3585 120.544C99.3585 120.784 99.5745 121 99.8145 121H102.263C102.647 121 102.791 120.832 102.791 120.544V115.576C102.791 114.76 103.343 114.208 104.062 114.208C104.279 114.208 104.519 114.28 104.639 114.328C104.903 114.424 105.071 114.28 105.167 114.112L106.343 112.192C106.679 111.64 105.743 111.16 104.423 111.16C103.175 111.16 102.287 112.048 101.807 112.744L101.375 111.688C101.303 111.544 101.207 111.4 100.943 111.4H99.8145C99.5745 111.4 99.3585 111.592 99.3585 111.856V120.544ZM106.984 118.072C106.984 119.968 108.4 121.24 110.296 121.24C111.808 121.24 112.648 120.544 113.2 120.04L113.536 120.688C113.656 120.952 113.824 121 113.968 121H115.024C115.264 121 115.48 120.784 115.48 120.544V115.24C115.48 112.408 114.4 111.16 111.424 111.16C110.128 111.16 108.448 111.448 108.232 111.52C108.016 111.592 107.8 111.76 107.872 112.168L108.088 113.68C108.136 114.04 108.304 114.304 108.664 114.184C109.288 113.992 110.416 113.824 111.064 113.824C112.216 113.824 112.36 114.304 112.36 115.24C112.36 115.24 111.592 114.856 110.512 114.856C108.328 114.856 106.984 116.224 106.984 118.072ZM110.104 117.832C110.104 117.28 110.56 116.824 111.136 116.824C111.712 116.824 112.168 117.28 112.192 117.832C112.192 118.408 111.712 118.888 111.136 118.888C110.56 118.888 110.104 118.408 110.104 117.832ZM116.889 120.136C116.889 122.032 118.425 122.704 118.737 122.8V122.872C118.473 123.016 117.273 123.736 117.273 125.176C117.273 126.688 118.569 128.44 122.289 128.44C126.081 128.44 127.689 126.568 127.689 124.264C127.689 122.128 125.817 120.76 123.561 120.76H120.681C120.321 120.76 119.913 120.568 119.913 120.112C119.913 119.728 120.201 119.464 120.705 119.464H122.433C124.977 119.464 126.585 117.592 126.585 115.84C126.585 114.256 125.673 113.512 125.673 113.512L127.065 113.008C127.209 112.936 127.329 112.768 127.329 112.6V111.616C127.329 111.352 127.137 111.16 126.873 111.16H122.337C120.009 111.16 118.113 113.08 118.113 115.312C118.113 116.776 118.809 117.496 118.809 117.496C118.809 117.496 116.889 118.24 116.889 120.136ZM121.161 115.528C121.161 114.808 121.713 114.28 122.433 114.28C123.177 114.28 123.705 114.808 123.705 115.528C123.705 116.248 123.177 116.776 122.433 116.776C121.713 116.776 121.161 116.248 121.161 115.528ZM120.561 124.504C120.561 123.808 121.425 123.496 122.289 123.496C123.585 123.496 124.017 124 124.017 124.504C124.017 125.152 123.489 125.632 122.289 125.632C121.137 125.632 120.561 125.176 120.561 124.504ZM128.357 116.2C128.357 118.96 130.517 121.24 133.373 121.24C134.885 121.24 136.085 120.712 136.925 119.872C137.141 119.656 137.093 119.368 136.949 119.176L135.749 117.736C135.605 117.568 135.365 117.568 135.149 117.736C134.765 118.024 134.069 118.312 133.469 118.312C132.221 118.312 131.693 117.376 131.621 116.728H137.381C137.597 116.728 137.813 116.56 137.837 116.32C137.861 116.152 137.885 115.84 137.885 115.672C137.885 113.032 135.773 111.16 133.325 111.16C130.493 111.16 128.357 113.488 128.357 116.2ZM131.933 114.856C132.029 114.232 132.581 113.728 133.229 113.728C133.853 113.728 134.453 114.232 134.501 114.856H131.933ZM140.008 117.904C140.008 120.088 141.064 121.24 142.888 121.24C144.088 121.24 145.792 120.712 145.792 120.712C146.032 120.64 146.152 120.376 146.104 120.16L145.576 118.168C145.504 117.904 145.288 117.808 145.048 117.856C144.808 117.904 144.448 118.024 144.112 118.024C143.824 118.024 143.464 117.976 143.464 117.448V114.448H145.24C145.504 114.448 145.696 114.232 145.696 113.992V111.856C145.696 111.592 145.504 111.4 145.24 111.4H143.464V108.736C143.464 108.496 143.272 108.28 143.032 108.28H140.464C140.224 108.28 140.008 108.496 140.008 108.736V111.4H139.384C139.144 111.4 138.952 111.592 138.952 111.856V113.992C138.952 114.232 139.144 114.448 139.384 114.448H140.008V117.904ZM148.258 117.904C148.258 120.088 149.314 121.24 151.138 121.24C152.338 121.24 154.042 120.712 154.042 120.712C154.282 120.64 154.402 120.376 154.354 120.16L153.826 118.168C153.754 117.904 153.538 117.808 153.298 117.856C153.058 117.904 152.698 118.024 152.362 118.024C152.074 118.024 151.714 117.976 151.714 117.448V114.448H153.49C153.754 114.448 153.946 114.232 153.946 113.992V111.856C153.946 111.592 153.754 111.4 153.49 111.4H151.714V108.736C151.714 108.496 151.522 108.28 151.282 108.28H148.714C148.474 108.28 148.258 108.496 148.258 108.736V111.4H147.634C147.394 111.4 147.202 111.592 147.202 111.856V113.992C147.202 114.232 147.394 114.448 147.634 114.448H148.258V117.904ZM155.404 116.2C155.404 118.96 157.564 121.24 160.42 121.24C161.932 121.24 163.132 120.712 163.972 119.872C164.188 119.656 164.14 119.368 163.996 119.176L162.796 117.736C162.652 117.568 162.412 117.568 162.196 117.736C161.812 118.024 161.116 118.312 160.516 118.312C159.268 118.312 158.74 117.376 158.668 116.728H164.428C164.644 116.728 164.86 116.56 164.884 116.32C164.908 116.152 164.932 115.84 164.932 115.672C164.932 113.032 162.82 111.16 160.372 111.16C157.54 111.16 155.404 113.488 155.404 116.2ZM158.98 114.856C159.076 114.232 159.628 113.728 160.276 113.728C160.9 113.728 161.5 114.232 161.548 114.856H158.98ZM166.335 120.448C166.815 120.832 168.015 121.24 169.599 121.24C172.311 121.24 173.655 119.872 173.655 118.192C173.655 116.272 172.311 115.504 170.367 114.832C169.551 114.544 169.287 114.304 169.287 114.064C169.287 113.8 169.503 113.728 169.815 113.728C170.751 113.728 171.855 114.28 171.855 114.28C172.047 114.352 172.287 114.28 172.359 114.136L173.247 112.504C173.391 112.264 173.223 112.048 173.007 111.904C172.479 111.568 171.327 111.16 169.815 111.16C167.223 111.16 166.071 112.456 166.071 114.064C166.071 115.552 166.887 116.632 168.759 117.28C169.983 117.712 170.127 118.048 170.127 118.288C170.127 118.576 169.911 118.72 169.671 118.72C168.639 118.72 167.511 118.096 167.511 118.096C167.319 118 167.079 118.144 167.007 118.288L166.167 119.944C166.047 120.16 166.167 120.304 166.335 120.448Z" fill="black"/>
<rect x="187.717" y="0.883789" width="76.2833" height="141.312" fill="#9C56B9"/>
<rect x="39.6374" y="205.001" width="76.2833" height="141.312" fill="#9C56B9"/>
<rect x="264" y="134.719" width="76.2637" height="224.363" transform="rotate(90 264 134.719)" fill="#9C56B9"/>
<rect x="187.717" y="399.399" width="76.2833" height="141.312" fill="#9C56B9"/>
<rect x="39.6374" y="603.517" width="76.2833" height="141.312" fill="#9C56B9"/>
<rect x="264" y="330.612" width="76.2637" height="224.363" transform="rotate(90 264 330.612)" fill="#9C56B9"/>
<rect x="264" y="533.234" width="76.2637" height="224.363" transform="rotate(90 264 533.234)" fill="#9C56B9"/>
<path d="M77.4051 851L10.3703 734.922H144.44L77.4051 851Z" fill="#9C56B9"/>
<path d="M208.336 477.544C208.336 477.784 208.528 478 208.792 478H211.456C211.696 478 211.888 477.784 211.888 477.544V462.136C211.888 461.896 211.696 461.68 211.456 461.68H209.248L205.744 464.416C205.672 464.488 205.6 464.68 205.6 464.776V466.288C205.6 466.528 205.792 466.744 206.032 466.744H208.336V477.544ZM216.473 476.152L217.169 478C217.289 478.336 217.553 478.48 217.913 478.384C220.121 477.736 225.977 474.88 225.977 467.824C225.977 464.08 223.913 461.296 220.193 461.296C217.193 461.296 214.697 463.768 214.697 466.792C214.697 470.344 217.217 472 219.473 472C220.121 472 221.129 471.784 221.753 471.52C221.249 473.992 218.057 475.096 216.929 475.456C216.449 475.6 216.377 475.864 216.473 476.152ZM220.241 469.24C218.969 469.24 217.937 468.184 217.937 466.912C217.937 465.664 218.969 464.608 220.241 464.608C221.513 464.608 222.545 465.664 222.545 466.912C222.545 468.184 221.513 469.24 220.241 469.24ZM230.203 477.544C230.203 477.784 230.395 478 230.659 478H233.323C233.563 478 233.755 477.784 233.755 477.544V462.136C233.755 461.896 233.563 461.68 233.323 461.68H231.115L227.611 464.416C227.539 464.488 227.467 464.68 227.467 464.776V466.288C227.467 466.528 227.659 466.744 227.899 466.744H230.203V477.544ZM236.804 473.656C236.804 476.272 239.108 478.24 242.588 478.24C246.188 478.24 248.492 476.272 248.492 473.656C248.492 471.592 246.644 470.224 245.564 469.624V469.528C246.5 468.928 248.036 467.656 248.036 465.832C248.036 463.144 245.636 461.44 242.588 461.44C239.66 461.44 237.26 463.144 237.26 465.832C237.26 467.728 238.796 469.024 239.732 469.552V469.624C239.276 469.888 236.804 471.544 236.804 473.656ZM242.636 467.968C241.508 467.536 240.956 466.84 240.956 465.976C240.956 465.16 241.748 464.416 242.636 464.416C243.548 464.416 244.34 465.16 244.34 465.976C244.34 466.792 243.764 467.56 242.636 467.968ZM240.692 473.488C240.692 472.6 241.388 471.712 242.636 471.28C243.932 471.712 244.604 472.6 244.604 473.488C244.604 474.52 243.62 475.288 242.66 475.288C241.676 475.288 240.692 474.544 240.692 473.488Z" fill="white"/>
<path d="M55.336 681.544C55.336 681.784 55.528 682 55.792 682H58.456C58.696 682 58.888 681.784 58.888 681.544V666.136C58.888 665.896 58.696 665.68 58.456 665.68H56.248L52.744 668.416C52.672 668.488 52.6 668.68 52.6 668.776V670.288C52.6 670.528 52.792 670.744 53.032 670.744H55.336V681.544ZM63.4726 680.152L64.1686 682C64.2886 682.336 64.5526 682.48 64.9126 682.384C67.1206 681.736 72.9766 678.88 72.9766 671.824C72.9766 668.08 70.9126 665.296 67.1926 665.296C64.1926 665.296 61.6966 667.768 61.6966 670.792C61.6966 674.344 64.2166 676 66.4726 676C67.1206 676 68.1286 675.784 68.7526 675.52C68.2486 677.992 65.0566 679.096 63.9286 679.456C63.4486 679.6 63.3766 679.864 63.4726 680.152ZM67.2406 673.24C65.9686 673.24 64.9366 672.184 64.9366 670.912C64.9366 669.664 65.9686 668.608 67.2406 668.608C68.5126 668.608 69.5446 669.664 69.5446 670.912C69.5446 672.184 68.5126 673.24 67.2406 673.24ZM74.6592 678.616H81.6912V681.544C81.6912 681.784 81.9072 682 82.1472 682H84.7152C84.9552 682 85.1712 681.784 85.1712 681.544L85.1472 678.592H87.0432C87.3072 678.592 87.4992 678.376 87.4992 678.136V676.144C87.4992 675.904 87.3072 675.712 87.0432 675.712H85.1472L85.1232 665.872C85.1232 665.608 84.9072 665.416 84.6672 665.416H82.9392C82.7232 665.416 82.6512 665.488 82.5792 665.56L74.2032 675.616V678.16C74.2032 678.4 74.3952 678.616 74.6592 678.616ZM77.9712 675.64L81.7872 671.176V675.64H77.9712ZM89.0498 678.616H96.0818V681.544C96.0818 681.784 96.2978 682 96.5378 682H99.1058C99.3458 682 99.5618 681.784 99.5618 681.544L99.5378 678.592H101.434C101.698 678.592 101.89 678.376 101.89 678.136V676.144C101.89 675.904 101.698 675.712 101.434 675.712H99.5378L99.5138 665.872C99.5138 665.608 99.2978 665.416 99.0578 665.416H97.3298C97.1138 665.416 97.0418 665.488 96.9698 665.56L88.5938 675.616V678.16C88.5938 678.4 88.7858 678.616 89.0498 678.616ZM92.3618 675.64L96.1778 671.176V675.64H92.3618Z" fill="white"/>
<path d="M57.336 270.544C57.336 270.784 57.528 271 57.792 271H60.456C60.696 271 60.888 270.784 60.888 270.544V255.136C60.888 254.896 60.696 254.68 60.456 254.68H58.248L54.744 257.416C54.672 257.488 54.6 257.68 54.6 257.776V259.288C54.6 259.528 54.792 259.744 55.032 259.744H57.336V270.544ZM65.4726 269.152L66.1686 271C66.2886 271.336 66.5526 271.48 66.9126 271.384C69.1206 270.736 74.9766 267.88 74.9766 260.824C74.9766 257.08 72.9126 254.296 69.1926 254.296C66.1926 254.296 63.6966 256.768 63.6966 259.792C63.6966 263.344 66.2166 265 68.4726 265C69.1206 265 70.1286 264.784 70.7526 264.52C70.2486 266.992 67.0566 268.096 65.9286 268.456C65.4486 268.6 65.3766 268.864 65.4726 269.152ZM69.2406 262.24C67.9686 262.24 66.9366 261.184 66.9366 259.912C66.9366 258.664 67.9686 257.608 69.2406 257.608C70.5126 257.608 71.5446 258.664 71.5446 259.912C71.5446 261.184 70.5126 262.24 69.2406 262.24ZM79.2032 270.544C79.2032 270.784 79.3952 271 79.6592 271H82.3232C82.5632 271 82.7552 270.784 82.7552 270.544V255.136C82.7552 254.896 82.5632 254.68 82.3232 254.68H80.1152L76.6112 257.416C76.5392 257.488 76.4672 257.68 76.4672 257.776V259.288C76.4672 259.528 76.6592 259.744 76.8992 259.744H79.2032V270.544ZM92.2614 271.24C96.1734 271.24 98.4054 268.096 98.4054 262.84C98.4054 257.584 96.1734 254.44 92.2614 254.44C88.3494 254.44 86.1174 257.584 86.1174 262.84C86.1174 268.096 88.3494 271.24 92.2614 271.24ZM92.2614 267.76C90.7974 267.76 89.9814 266.008 89.9814 262.84C89.9814 259.696 90.7974 257.92 92.2614 257.92C93.7254 257.92 94.5414 259.696 94.5414 262.84C94.5414 266.008 93.7254 267.76 92.2614 267.76Z" fill="white"/>
<path d="M204.336 79.544C204.336 79.784 204.528 80 204.792 80H207.456C207.696 80 207.888 79.784 207.888 79.544V64.136C207.888 63.896 207.696 63.68 207.456 63.68H205.248L201.744 66.416C201.672 66.488 201.6 66.68 201.6 66.776V68.288C201.6 68.528 201.792 68.744 202.032 68.744H204.336V79.544ZM212.473 78.152L213.169 80C213.289 80.336 213.553 80.48 213.913 80.384C216.121 79.736 221.977 76.88 221.977 69.824C221.977 66.08 219.913 63.296 216.193 63.296C213.193 63.296 210.697 65.768 210.697 68.792C210.697 72.344 213.217 74 215.473 74C216.121 74 217.129 73.784 217.753 73.52C217.249 75.992 214.057 77.096 212.929 77.456C212.449 77.6 212.377 77.864 212.473 78.152ZM216.241 71.24C214.969 71.24 213.937 70.184 213.937 68.912C213.937 67.664 214.969 66.608 216.241 66.608C217.513 66.608 218.545 67.664 218.545 68.912C218.545 70.184 217.513 71.24 216.241 71.24ZM230.355 80.24C234.267 80.24 236.499 77.096 236.499 71.84C236.499 66.584 234.267 63.44 230.355 63.44C226.443 63.44 224.211 66.584 224.211 71.84C224.211 77.096 226.443 80.24 230.355 80.24ZM230.355 76.76C228.891 76.76 228.075 75.008 228.075 71.84C228.075 68.696 228.891 66.92 230.355 66.92C231.819 66.92 232.635 68.696 232.635 71.84C232.635 75.008 231.819 76.76 230.355 76.76ZM238.493 78.104C238.997 78.752 240.533 80.24 243.557 80.24C246.869 80.24 249.149 78.272 249.149 75.656C249.149 73.592 247.373 72.104 246.245 71.624V71.552C247.325 71.048 248.717 69.68 248.717 67.832C248.717 65.144 246.317 63.44 243.533 63.44C240.917 63.44 238.949 65.552 238.949 65.552C238.781 65.72 238.757 66.008 238.949 66.176L240.413 67.616C240.605 67.784 240.893 67.784 241.061 67.592C241.421 67.184 242.093 66.632 243.149 66.632C244.181 66.632 245.069 67.4 245.069 68.432C245.069 69.464 244.181 70.28 242.501 70.28H241.157C240.917 70.28 240.701 70.472 240.701 70.736V72.728C240.701 72.968 240.917 73.184 241.157 73.184H242.501C244.277 73.184 245.357 74.072 245.357 75.128C245.357 76.184 244.301 77.048 243.269 77.048C242.117 77.048 240.629 75.944 240.629 75.944C240.437 75.8 240.197 75.824 240.029 75.992L238.517 77.504C238.373 77.672 238.349 77.936 238.493 78.104Z" fill="white"/>
</svg>
