<svg width="338" height="1903" viewBox="0 0 338 1903" fill="none" xmlns="http://www.w3.org/2000/svg">
<rect x="41.8895" y="429.51" width="80.6176" height="150.607" fill="#9C56B9"/>
<rect x="198.382" y="636.694" width="80.6176" height="150.607" fill="#9C56B9"/>
<rect x="41.8895" y="854.238" width="80.6176" height="150.607" fill="#9C56B9"/>
<rect x="279" y="563.383" width="81.2802" height="237.11" transform="rotate(90 279 563.383)" fill="#9C56B9"/>
<rect x="279" y="779.333" width="81.2801" height="237.11" transform="rotate(90 279 779.333)" fill="#9C56B9"/>
<path d="M81.8032 1118L10.9596 994.287H152.647L81.8032 1118Z" fill="#9C56B9"/>
<path d="M61.336 924.544C61.336 924.784 61.528 925 61.792 925H64.456C64.696 925 64.888 924.784 64.888 924.544V909.136C64.888 908.896 64.696 908.68 64.456 908.68H62.248L58.744 911.416C58.672 911.488 58.6 911.68 58.6 911.776V913.288C58.6 913.528 58.792 913.744 59.032 913.744H61.336V924.544ZM67.9366 920.656C67.9366 923.272 70.2406 925.24 73.7206 925.24C77.3206 925.24 79.6246 923.272 79.6246 920.656C79.6246 918.592 77.7766 917.224 76.6966 916.624V916.528C77.6326 915.928 79.1686 914.656 79.1686 912.832C79.1686 910.144 76.7686 908.44 73.7206 908.44C70.7926 908.44 68.3926 910.144 68.3926 912.832C68.3926 914.728 69.9286 916.024 70.8646 916.552V916.624C70.4086 916.888 67.9366 918.544 67.9366 920.656ZM73.7686 914.968C72.6406 914.536 72.0886 913.84 72.0886 912.976C72.0886 912.16 72.8806 911.416 73.7686 911.416C74.6806 911.416 75.4726 912.16 75.4726 912.976C75.4726 913.792 74.8966 914.56 73.7686 914.968ZM71.8246 920.488C71.8246 919.6 72.5206 918.712 73.7686 918.28C75.0646 918.712 75.7366 919.6 75.7366 920.488C75.7366 921.52 74.7526 922.288 73.7926 922.288C72.8086 922.288 71.8246 921.544 71.8246 920.488ZM83.0898 923.152L83.7858 925C83.9058 925.336 84.1698 925.48 84.5298 925.384C86.7378 924.736 92.5938 921.88 92.5938 914.824C92.5938 911.08 90.5298 908.296 86.8098 908.296C83.8098 908.296 81.3138 910.768 81.3138 913.792C81.3138 917.344 83.8338 919 86.0898 919C86.7378 919 87.7458 918.784 88.3698 918.52C87.8658 920.992 84.6738 922.096 83.5458 922.456C83.0658 922.6 82.9938 922.864 83.0898 923.152ZM86.8578 916.24C85.5858 916.24 84.5538 915.184 84.5538 913.912C84.5538 912.664 85.5858 911.608 86.8578 911.608C88.1298 911.608 89.1618 912.664 89.1618 913.912C89.1618 915.184 88.1298 916.24 86.8578 916.24ZM94.3724 924.544C94.3724 924.808 94.5884 925 94.8524 925H97.2284C97.5884 925 97.9244 924.904 98.2124 924.304L105.388 909.304V909.136C105.388 908.896 105.172 908.68 104.932 908.68H94.8044C94.5644 908.68 94.3484 908.896 94.3484 909.136V911.296C94.3484 911.536 94.5644 911.752 94.8044 911.752H100.372L94.3724 924.28V924.544Z" fill="white"/>
<path d="M222.336 715.544C222.336 715.784 222.528 716 222.792 716H225.456C225.696 716 225.888 715.784 225.888 715.544V700.136C225.888 699.896 225.696 699.68 225.456 699.68H223.248L219.744 702.416C219.672 702.488 219.6 702.68 219.6 702.776V704.288C219.6 704.528 219.792 704.744 220.032 704.744H222.336V715.544ZM228.937 711.656C228.937 714.272 231.241 716.24 234.721 716.24C238.321 716.24 240.625 714.272 240.625 711.656C240.625 709.592 238.777 708.224 237.697 707.624V707.528C238.633 706.928 240.169 705.656 240.169 703.832C240.169 701.144 237.769 699.44 234.721 699.44C231.793 699.44 229.393 701.144 229.393 703.832C229.393 705.728 230.929 707.024 231.865 707.552V707.624C231.409 707.888 228.937 709.544 228.937 711.656ZM234.769 705.968C233.641 705.536 233.089 704.84 233.089 703.976C233.089 703.16 233.881 702.416 234.769 702.416C235.681 702.416 236.473 703.16 236.473 703.976C236.473 704.792 235.897 705.56 234.769 705.968ZM232.825 711.488C232.825 710.6 233.521 709.712 234.769 709.28C236.065 709.712 236.737 710.6 236.737 711.488C236.737 712.52 235.753 713.288 234.793 713.288C233.809 713.288 232.825 712.544 232.825 711.488ZM244.09 714.152L244.786 716C244.906 716.336 245.17 716.48 245.53 716.384C247.738 715.736 253.594 712.88 253.594 705.824C253.594 702.08 251.53 699.296 247.81 699.296C244.81 699.296 242.314 701.768 242.314 704.792C242.314 708.344 244.834 710 247.09 710C247.738 710 248.746 709.784 249.37 709.52C248.866 711.992 245.674 713.096 244.546 713.456C244.066 713.6 243.994 713.864 244.09 714.152ZM247.858 707.24C246.586 707.24 245.554 706.184 245.554 704.912C245.554 703.664 246.586 702.608 247.858 702.608C249.13 702.608 250.162 703.664 250.162 704.912C250.162 706.184 249.13 707.24 247.858 707.24ZM257.82 715.544C257.82 715.784 258.012 716 258.276 716H260.94C261.18 716 261.372 715.784 261.372 715.544V700.136C261.372 699.896 261.18 699.68 260.94 699.68H258.732L255.228 702.416C255.156 702.488 255.084 702.68 255.084 702.776V704.288C255.084 704.528 255.276 704.744 255.516 704.744H257.82V715.544Z" fill="white"/>
<path d="M65.336 512.544C65.336 512.784 65.528 513 65.792 513H68.456C68.696 513 68.888 512.784 68.888 512.544V497.136C68.888 496.896 68.696 496.68 68.456 496.68H66.248L62.744 499.416C62.672 499.488 62.6 499.68 62.6 499.776V501.288C62.6 501.528 62.792 501.744 63.032 501.744H65.336V512.544ZM71.8646 512.544C71.8646 512.808 72.0806 513 72.3446 513H74.7206C75.0806 513 75.4166 512.904 75.7046 512.304L82.8806 497.304V497.136C82.8806 496.896 82.6646 496.68 82.4246 496.68H72.2966C72.0566 496.68 71.8406 496.896 71.8406 497.136V499.296C71.8406 499.536 72.0566 499.752 72.2966 499.752H77.8646L71.8646 512.28V512.544ZM85.3319 511.152L86.0279 513C86.1479 513.336 86.4119 513.48 86.7719 513.384C88.9799 512.736 94.8359 509.88 94.8359 502.824C94.8359 499.08 92.7719 496.296 89.0519 496.296C86.0519 496.296 83.5559 498.768 83.5559 501.792C83.5559 505.344 86.0759 507 88.3319 507C88.9799 507 89.9879 506.784 90.6119 506.52C90.1079 508.992 86.9159 510.096 85.7879 510.456C85.3079 510.6 85.2359 510.864 85.3319 511.152ZM89.0999 504.24C87.8279 504.24 86.7959 503.184 86.7959 501.912C86.7959 500.664 87.8279 499.608 89.0999 499.608C90.3719 499.608 91.4039 500.664 91.4039 501.912C91.4039 503.184 90.3719 504.24 89.0999 504.24ZM99.0626 512.544C99.0626 512.784 99.2546 513 99.5186 513H102.183C102.423 513 102.615 512.784 102.615 512.544V497.136C102.615 496.896 102.423 496.68 102.183 496.68H99.9746L96.4706 499.416C96.3986 499.488 96.3266 499.68 96.3266 499.776V501.288C96.3266 501.528 96.5186 501.744 96.7586 501.744H99.0626V512.544Z" fill="white"/>
<path d="M139.064 893.544C139.064 893.784 139.256 894 139.52 894H142.352C142.592 894 142.808 893.784 142.808 893.544V887.904H145.328C148.256 887.904 150.68 885.48 150.68 882.504C150.68 879.6 148.256 877.2 145.304 877.2H139.52C139.256 877.2 139.064 877.416 139.064 877.656V893.544ZM142.808 884.4V880.728H145.088C146.12 880.728 146.984 881.496 146.984 882.504C146.984 883.584 146.12 884.4 145.088 884.4H142.808ZM151.796 893.544C151.796 893.784 152.012 894 152.252 894H154.7C155.084 894 155.228 893.832 155.228 893.544V888.576C155.228 887.76 155.78 887.208 156.5 887.208C156.716 887.208 156.956 887.28 157.076 887.328C157.34 887.424 157.508 887.28 157.604 887.112L158.78 885.192C159.116 884.64 158.18 884.16 156.86 884.16C155.612 884.16 154.724 885.048 154.244 885.744L153.812 884.688C153.74 884.544 153.644 884.4 153.38 884.4H152.252C152.012 884.4 151.796 884.592 151.796 884.856V893.544ZM159.256 889.2C159.256 891.96 161.416 894.24 164.272 894.24C165.784 894.24 166.984 893.712 167.824 892.872C168.04 892.656 167.992 892.368 167.848 892.176L166.648 890.736C166.504 890.568 166.264 890.568 166.048 890.736C165.664 891.024 164.968 891.312 164.368 891.312C163.12 891.312 162.592 890.376 162.52 889.728H168.28C168.496 889.728 168.712 889.56 168.736 889.32C168.76 889.152 168.784 888.84 168.784 888.672C168.784 886.032 166.672 884.16 164.224 884.16C161.392 884.16 159.256 886.488 159.256 889.2ZM162.832 887.856C162.928 887.232 163.48 886.728 164.128 886.728C164.752 886.728 165.352 887.232 165.4 887.856H162.832ZM170.523 893.544C170.523 893.784 170.715 894 170.979 894H173.499C173.739 894 173.955 893.784 173.955 893.544V888.936C173.955 887.952 174.675 887.256 175.635 887.256C176.715 887.256 177.147 888.096 177.147 889.056V893.544C177.147 893.784 177.339 894 177.603 894H179.907C180.171 894 180.363 893.784 180.363 893.544V888.888C180.363 887.952 181.131 887.256 181.971 887.256C183.075 887.256 183.579 888.096 183.579 889.056V893.544C183.579 893.784 183.771 894 184.035 894H186.579C186.843 894 187.035 893.784 187.035 893.544V889.2C187.035 886.464 185.571 884.16 182.595 884.16C180.963 884.16 179.835 885.072 179.283 885.624C178.419 884.664 177.483 884.16 176.139 884.16C174.603 884.16 173.499 885.024 172.899 885.648L172.491 884.664C172.419 884.52 172.251 884.4 172.083 884.4H170.979C170.715 884.4 170.523 884.592 170.523 884.856V893.544ZM191.142 881.496C192.198 881.496 193.062 880.656 193.062 879.6C193.062 878.544 192.198 877.68 191.142 877.68C190.086 877.68 189.246 878.544 189.246 879.6C189.246 880.656 190.086 881.496 191.142 881.496ZM189.39 893.544C189.39 893.784 189.606 894 189.846 894H192.486C192.726 894 192.942 893.784 192.942 893.544V884.856C192.942 884.592 192.726 884.4 192.486 884.4H189.846C189.606 884.4 189.39 884.592 189.39 884.856V893.544ZM194.81 889.2C194.81 891.96 196.97 894.24 199.826 894.24C201.338 894.24 202.538 893.712 203.378 892.872C203.594 892.656 203.546 892.368 203.402 892.176L202.202 890.736C202.058 890.568 201.818 890.568 201.602 890.736C201.218 891.024 200.522 891.312 199.922 891.312C198.674 891.312 198.146 890.376 198.074 889.728H203.834C204.05 889.728 204.266 889.56 204.29 889.32C204.314 889.152 204.338 888.84 204.338 888.672C204.338 886.032 202.226 884.16 199.778 884.16C196.946 884.16 194.81 886.488 194.81 889.2ZM198.386 887.856C198.482 887.232 199.034 886.728 199.682 886.728C200.306 886.728 200.906 887.232 200.954 887.856H198.386ZM206.077 893.544C206.077 893.784 206.293 894 206.533 894H208.981C209.365 894 209.509 893.832 209.509 893.544V888.576C209.509 887.76 210.061 887.208 210.781 887.208C210.997 887.208 211.237 887.28 211.357 887.328C211.621 887.424 211.789 887.28 211.885 887.112L213.061 885.192C213.397 884.64 212.461 884.16 211.141 884.16C209.893 884.16 209.005 885.048 208.525 885.744L208.093 884.688C208.021 884.544 207.925 884.4 207.661 884.4H206.533C206.293 884.4 206.077 884.592 206.077 884.856V893.544ZM219.648 893.544C219.648 893.784 219.864 894 220.104 894H222.624C222.96 894 223.056 893.76 223.056 893.544V888.936C223.056 887.952 223.92 887.256 224.88 887.256C225.96 887.256 226.512 888.096 226.512 889.056V893.544C226.512 893.784 226.704 894 226.968 894H229.536C229.776 894 229.992 893.784 229.992 893.544V889.176C229.992 886.44 228.408 884.16 225.432 884.16C223.68 884.16 222.576 885.072 222.048 885.648L221.664 884.688C221.592 884.52 221.376 884.4 221.232 884.4H220.104C219.864 884.4 219.648 884.592 219.648 884.856V893.544ZM232.111 889.2C232.111 891.936 233.479 894.24 236.335 894.24C238.183 894.24 238.951 893.376 239.575 892.776L239.935 893.664C240.007 893.832 240.175 894 240.391 894H241.519C241.759 894 241.975 893.784 241.975 893.544V884.856C241.975 884.592 241.759 884.4 241.519 884.4H239.071C238.831 884.4 238.567 884.472 238.567 884.856V889.44C238.567 890.256 238.063 891.144 237.127 891.144C236.143 891.144 235.591 890.28 235.591 889.296V884.856C235.591 884.592 235.375 884.4 235.135 884.4H232.567C232.327 884.4 232.111 884.592 232.111 884.856V889.2ZM244.562 893.544C244.562 893.784 244.754 894 245.018 894H247.538C247.778 894 247.994 893.784 247.994 893.544V888.936C247.994 887.952 248.714 887.256 249.674 887.256C250.754 887.256 251.186 888.096 251.186 889.056V893.544C251.186 893.784 251.378 894 251.642 894H253.946C254.21 894 254.402 893.784 254.402 893.544V888.888C254.402 887.952 255.17 887.256 256.01 887.256C257.114 887.256 257.618 888.096 257.618 889.056V893.544C257.618 893.784 257.81 894 258.074 894H260.618C260.882 894 261.074 893.784 261.074 893.544V889.2C261.074 886.464 259.61 884.16 256.634 884.16C255.002 884.16 253.874 885.072 253.322 885.624C252.458 884.664 251.522 884.16 250.178 884.16C248.642 884.16 247.538 885.024 246.938 885.648L246.53 884.664C246.458 884.52 246.29 884.4 246.122 884.4H245.018C244.754 884.4 244.562 884.592 244.562 884.856V893.544ZM262.709 889.2C262.709 891.96 264.869 894.24 267.725 894.24C269.237 894.24 270.437 893.712 271.277 892.872C271.493 892.656 271.445 892.368 271.301 892.176L270.101 890.736C269.957 890.568 269.717 890.568 269.501 890.736C269.117 891.024 268.421 891.312 267.821 891.312C266.573 891.312 266.045 890.376 265.973 889.728H271.733C271.949 889.728 272.165 889.56 272.189 889.32C272.213 889.152 272.237 888.84 272.237 888.672C272.237 886.032 270.125 884.16 267.677 884.16C264.845 884.16 262.709 886.488 262.709 889.2ZM266.285 887.856C266.381 887.232 266.933 886.728 267.581 886.728C268.205 886.728 268.805 887.232 268.853 887.856H266.285ZM266.021 881.712L270.389 879.744C270.581 879.624 270.725 879.384 270.533 879.024L269.717 877.608C269.597 877.392 269.237 877.44 269.093 877.536L265.013 880.032C264.893 880.128 264.773 880.296 264.869 880.488L265.373 881.496C265.493 881.736 265.709 881.904 266.021 881.712ZM273.976 893.544C273.976 893.784 274.192 894 274.432 894H276.88C277.264 894 277.408 893.832 277.408 893.544V888.576C277.408 887.76 277.96 887.208 278.68 887.208C278.896 887.208 279.136 887.28 279.256 887.328C279.52 887.424 279.688 887.28 279.784 887.112L280.96 885.192C281.296 884.64 280.36 884.16 279.04 884.16C277.792 884.16 276.904 885.048 276.424 885.744L275.992 884.688C275.92 884.544 275.824 884.4 275.56 884.4H274.432C274.192 884.4 273.976 884.592 273.976 884.856V893.544ZM281.411 889.176C281.411 891.936 283.667 894.24 286.403 894.24C289.139 894.24 291.395 891.936 291.395 889.176C291.395 886.464 289.139 884.16 286.403 884.16C283.667 884.16 281.411 886.464 281.411 889.176ZM284.507 889.176C284.507 888.12 285.347 887.256 286.403 887.256C287.459 887.256 288.299 888.12 288.299 889.176C288.299 890.256 287.459 891.144 286.403 891.144C285.347 891.144 284.507 890.256 284.507 889.176ZM137.6 913.2C137.6 915.96 139.64 918.24 142.352 918.24C144.464 918.24 145.568 916.728 145.568 916.728L145.856 917.52C145.952 917.784 146.12 918 146.36 918H147.488C147.728 918 147.944 917.784 147.944 917.544V901.656C147.944 901.416 147.728 901.2 147.488 901.2H144.824C144.584 901.2 144.368 901.416 144.368 901.656V908.616C144.08 908.448 143.192 908.16 142.376 908.16C139.808 908.16 137.6 909.816 137.6 913.2ZM140.888 913.176C140.888 912.096 141.728 911.256 142.832 911.256C143.936 911.256 144.752 912.096 144.752 913.176C144.752 914.28 143.936 915.144 142.832 915.144C141.728 915.144 140.888 914.28 140.888 913.176ZM150.314 913.2C150.314 915.936 151.682 918.24 154.538 918.24C156.386 918.24 157.154 917.376 157.778 916.776L158.138 917.664C158.21 917.832 158.378 918 158.594 918H159.722C159.962 918 160.178 917.784 160.178 917.544V908.856C160.178 908.592 159.962 908.4 159.722 908.4H157.274C157.034 908.4 156.77 908.472 156.77 908.856V913.44C156.77 914.256 156.266 915.144 155.33 915.144C154.346 915.144 153.794 914.28 153.794 913.296V908.856C153.794 908.592 153.578 908.4 153.338 908.4H150.77C150.53 908.4 150.314 908.592 150.314 908.856V913.2ZM169.838 905.496C170.894 905.496 171.758 904.656 171.758 903.6C171.758 902.544 170.894 901.68 169.838 901.68C168.782 901.68 167.942 902.544 167.942 903.6C167.942 904.656 168.782 905.496 169.838 905.496ZM168.062 920.208C168.062 921.384 167.63 922.2 166.55 922.2C166.07 922.2 165.614 921.984 165.302 921.816C165.11 921.72 164.822 921.816 164.75 921.984L163.742 923.976C163.646 924.144 163.694 924.408 163.838 924.528C164.246 924.912 165.518 925.44 166.766 925.44C169.55 925.44 171.638 923.568 171.638 920.208V908.856C171.638 908.592 171.422 908.4 171.182 908.4H168.518C168.278 908.4 168.062 908.592 168.062 908.856V920.208ZM173.482 913.176C173.482 915.936 175.738 918.24 178.474 918.24C181.21 918.24 183.466 915.936 183.466 913.176C183.466 910.464 181.21 908.16 178.474 908.16C175.738 908.16 173.482 910.464 173.482 913.176ZM176.578 913.176C176.578 912.12 177.418 911.256 178.474 911.256C179.53 911.256 180.37 912.12 180.37 913.176C180.37 914.256 179.53 915.144 178.474 915.144C177.418 915.144 176.578 914.256 176.578 913.176ZM185.096 913.2C185.096 915.936 186.464 918.24 189.32 918.24C191.168 918.24 191.936 917.376 192.56 916.776L192.92 917.664C192.992 917.832 193.16 918 193.376 918H194.504C194.744 918 194.96 917.784 194.96 917.544V908.856C194.96 908.592 194.744 908.4 194.504 908.4H192.056C191.816 908.4 191.552 908.472 191.552 908.856V913.44C191.552 914.256 191.048 915.144 190.112 915.144C189.128 915.144 188.576 914.28 188.576 913.296V908.856C188.576 908.592 188.36 908.4 188.12 908.4H185.552C185.312 908.4 185.096 908.592 185.096 908.856V913.2ZM197.546 917.544C197.546 917.784 197.762 918 198.002 918H200.45C200.834 918 200.978 917.832 200.978 917.544V912.576C200.978 911.76 201.53 911.208 202.25 911.208C202.466 911.208 202.706 911.28 202.826 911.328C203.09 911.424 203.258 911.28 203.354 911.112L204.53 909.192C204.866 908.64 203.93 908.16 202.61 908.16C201.362 908.16 200.474 909.048 199.994 909.744L199.562 908.688C199.49 908.544 199.394 908.4 199.13 908.4H198.002C197.762 908.4 197.546 908.592 197.546 908.856V917.544ZM205.819 917.544C205.819 917.784 206.035 918 206.275 918H208.795C209.131 918 209.227 917.76 209.227 917.544V912.936C209.227 911.952 210.091 911.256 211.051 911.256C212.131 911.256 212.683 912.096 212.683 913.056V917.544C212.683 917.784 212.875 918 213.139 918H215.707C215.947 918 216.163 917.784 216.163 917.544V913.176C216.163 910.44 214.579 908.16 211.603 908.16C209.851 908.16 208.747 909.072 208.219 909.648L207.835 908.688C207.763 908.52 207.547 908.4 207.403 908.4H206.275C206.035 908.4 205.819 908.592 205.819 908.856V917.544ZM217.851 915.072C217.851 916.968 219.267 918.24 221.163 918.24C222.675 918.24 223.515 917.544 224.067 917.04L224.403 917.688C224.523 917.952 224.691 918 224.835 918H225.891C226.131 918 226.347 917.784 226.347 917.544V912.24C226.347 909.408 225.267 908.16 222.291 908.16C220.995 908.16 219.315 908.448 219.099 908.52C218.883 908.592 218.667 908.76 218.739 909.168L218.955 910.68C219.003 911.04 219.171 911.304 219.531 911.184C220.155 910.992 221.283 910.824 221.931 910.824C223.083 910.824 223.227 911.304 223.227 912.24C223.227 912.24 222.459 911.856 221.379 911.856C219.195 911.856 217.851 913.224 217.851 915.072ZM220.971 914.832C220.971 914.28 221.427 913.824 222.003 913.824C222.579 913.824 223.035 914.28 223.059 914.832C223.059 915.408 222.579 915.888 222.003 915.888C221.427 915.888 220.971 915.408 220.971 914.832ZM228.788 917.544C228.788 917.784 229.004 918 229.244 918H231.884C232.124 918 232.34 917.784 232.34 917.544V901.656C232.34 901.416 232.124 901.2 231.884 901.2H229.244C229.004 901.2 228.788 901.416 228.788 901.656V917.544ZM246.346 908.184C247.45 908.184 248.242 907.392 248.242 906.456C248.242 905.496 247.45 904.752 246.514 904.752C245.962 904.752 245.554 904.92 245.554 904.92C245.578 903.288 246.994 902.232 247.258 902.04C247.402 901.92 247.45 901.704 247.282 901.512L246.922 901.152C246.73 900.936 246.562 900.984 246.394 901.104C245.842 901.56 244.162 902.88 244.162 905.4C244.162 907.488 245.434 908.184 246.346 908.184ZM241.57 908.184C242.674 908.184 243.466 907.392 243.466 906.456C243.466 905.496 242.674 904.752 241.738 904.752C241.186 904.752 240.778 904.92 240.778 904.92C240.802 903.288 242.218 902.232 242.482 902.04C242.626 901.92 242.674 901.704 242.506 901.512L242.146 901.152C241.954 900.936 241.786 900.984 241.618 901.104C241.066 901.56 239.386 902.88 239.386 905.4C239.386 907.488 240.658 908.184 241.57 908.184ZM250.533 917.544C250.533 917.784 250.725 918 250.989 918H260.013C260.277 918 260.469 917.784 260.469 917.544V914.928C260.469 914.688 260.277 914.472 260.013 914.472H254.301V901.656C254.301 901.416 254.085 901.2 253.845 901.2H250.989C250.725 901.2 250.533 901.416 250.533 901.656V917.544ZM261.375 915.072C261.375 916.968 262.791 918.24 264.687 918.24C266.199 918.24 267.039 917.544 267.591 917.04L267.927 917.688C268.047 917.952 268.215 918 268.359 918H269.415C269.655 918 269.871 917.784 269.871 917.544V912.24C269.871 909.408 268.791 908.16 265.815 908.16C264.519 908.16 262.839 908.448 262.623 908.52C262.407 908.592 262.191 908.76 262.263 909.168L262.479 910.68C262.527 911.04 262.695 911.304 263.055 911.184C263.679 910.992 264.807 910.824 265.455 910.824C266.607 910.824 266.751 911.304 266.751 912.24C266.751 912.24 265.983 911.856 264.903 911.856C262.719 911.856 261.375 913.224 261.375 915.072ZM264.495 914.832C264.495 914.28 264.951 913.824 265.527 913.824C266.103 913.824 266.559 914.28 266.583 914.832C266.583 915.408 266.103 915.888 265.527 915.888C264.951 915.888 264.495 915.408 264.495 914.832ZM138.8 941.544C138.8 941.784 139.016 942 139.256 942H142.016C142.256 942 142.472 941.784 142.472 941.544V935.448H144.68C144.944 935.448 145.136 935.232 145.136 934.992V932.856C145.136 932.592 144.944 932.4 144.68 932.4H142.472V930.192C142.472 929.016 142.88 928.2 143.888 928.2C144.368 928.2 144.824 928.416 145.136 928.584C145.328 928.68 145.616 928.584 145.688 928.416L146.696 926.424C146.792 926.256 146.744 925.992 146.6 925.872C146.192 925.488 144.92 924.96 143.672 924.96C140.888 924.96 138.8 926.832 138.8 930.192V932.4H138.296C138.032 932.4 137.84 932.592 137.84 932.856V934.992C137.84 935.232 138.032 935.448 138.296 935.448H138.8V941.544ZM146.851 941.544C146.851 941.784 147.067 942 147.307 942H149.755C150.139 942 150.283 941.832 150.283 941.544V936.576C150.283 935.76 150.835 935.208 151.555 935.208C151.771 935.208 152.011 935.28 152.131 935.328C152.395 935.424 152.563 935.28 152.659 935.112L153.835 933.192C154.171 932.64 153.235 932.16 151.915 932.16C150.667 932.16 149.779 933.048 149.299 933.744L148.867 932.688C148.795 932.544 148.699 932.4 148.435 932.4H147.307C147.067 932.4 146.851 932.592 146.851 932.856V941.544ZM154.286 937.176C154.286 939.936 156.542 942.24 159.278 942.24C162.014 942.24 164.27 939.936 164.27 937.176C164.27 934.464 162.014 932.16 159.278 932.16C156.542 932.16 154.286 934.464 154.286 937.176ZM157.382 937.176C157.382 936.12 158.222 935.256 159.278 935.256C160.334 935.256 161.174 936.12 161.174 937.176C161.174 938.256 160.334 939.144 159.278 939.144C158.222 939.144 157.382 938.256 157.382 937.176ZM166.116 941.544C166.116 941.784 166.332 942 166.572 942H169.092C169.428 942 169.524 941.76 169.524 941.544V936.936C169.524 935.952 170.388 935.256 171.348 935.256C172.428 935.256 172.98 936.096 172.98 937.056V941.544C172.98 941.784 173.172 942 173.436 942H176.004C176.244 942 176.46 941.784 176.46 941.544V937.176C176.46 934.44 174.876 932.16 171.9 932.16C170.148 932.16 169.044 933.072 168.516 933.648L168.132 932.688C168.06 932.52 167.844 932.4 167.7 932.4H166.572C166.332 932.4 166.116 932.592 166.116 932.856V941.544ZM178.1 937.2C178.1 939.96 180.14 942.24 182.852 942.24C184.964 942.24 186.068 940.728 186.068 940.728L186.356 941.52C186.452 941.784 186.62 942 186.86 942H187.988C188.228 942 188.444 941.784 188.444 941.544V925.656C188.444 925.416 188.228 925.2 187.988 925.2H185.324C185.084 925.2 184.868 925.416 184.868 925.656V932.616C184.58 932.448 183.692 932.16 182.876 932.16C180.308 932.16 178.1 933.816 178.1 937.2ZM181.388 937.176C181.388 936.096 182.228 935.256 183.332 935.256C184.436 935.256 185.252 936.096 185.252 937.176C185.252 938.28 184.436 939.144 183.332 939.144C182.228 939.144 181.388 938.28 181.388 937.176ZM190.31 937.2C190.31 939.96 192.47 942.24 195.326 942.24C196.838 942.24 198.038 941.712 198.878 940.872C199.094 940.656 199.046 940.368 198.902 940.176L197.702 938.736C197.558 938.568 197.318 938.568 197.102 938.736C196.718 939.024 196.022 939.312 195.422 939.312C194.174 939.312 193.646 938.376 193.574 937.728H199.334C199.55 937.728 199.766 937.56 199.79 937.32C199.814 937.152 199.838 936.84 199.838 936.672C199.838 934.032 197.726 932.16 195.278 932.16C192.446 932.16 190.31 934.488 190.31 937.2ZM193.886 935.856C193.982 935.232 194.534 934.728 195.182 934.728C195.806 934.728 196.406 935.232 196.454 935.856H193.886ZM206.056 931.992C206.248 932.208 206.416 932.16 206.584 932.04C207.136 931.584 208.816 930.264 208.816 927.744C208.816 925.656 207.544 924.96 206.632 924.96C205.528 924.96 204.736 925.752 204.736 926.688C204.736 927.648 205.528 928.392 206.464 928.392C207.016 928.392 207.424 928.224 207.424 928.224C207.4 929.856 205.984 930.912 205.72 931.104C205.576 931.224 205.528 931.44 205.696 931.632L206.056 931.992ZM201.28 931.992C201.472 932.208 201.64 932.16 201.808 932.04C202.36 931.584 204.04 930.264 204.04 927.744C204.04 925.656 202.768 924.96 201.856 924.96C200.752 924.96 199.96 925.752 199.96 926.688C199.96 927.648 200.752 928.392 201.688 928.392C202.24 928.392 202.648 928.224 202.648 928.224C202.624 929.856 201.208 930.912 200.944 931.104C200.8 931.224 200.752 931.44 200.92 931.632L201.28 931.992ZM209.906 940.008C209.906 941.232 210.938 942.24 212.138 942.24C212.858 942.24 213.386 941.976 213.386 941.976C213.362 944.112 211.514 945.48 211.226 945.72C210.986 945.912 210.986 946.176 211.178 946.392L211.682 946.968C211.874 947.184 212.162 947.136 212.354 946.968C213.05 946.344 215.234 944.664 215.234 941.352C215.234 938.64 213.578 937.728 212.402 937.728C210.938 937.728 209.906 938.784 209.906 940.008ZM224.26 929.496C225.316 929.496 226.18 928.656 226.18 927.6C226.18 926.544 225.316 925.68 224.26 925.68C223.204 925.68 222.364 926.544 222.364 927.6C222.364 928.656 223.204 929.496 224.26 929.496ZM222.484 944.208C222.484 945.384 222.052 946.2 220.971 946.2C220.491 946.2 220.035 945.984 219.723 945.816C219.531 945.72 219.243 945.816 219.171 945.984L218.163 947.976C218.067 948.144 218.115 948.408 218.259 948.528C218.667 948.912 219.939 949.44 221.188 949.44C223.972 949.44 226.06 947.568 226.06 944.208V932.856C226.06 932.592 225.844 932.4 225.604 932.4H222.94C222.7 932.4 222.484 932.592 222.484 932.856V944.208ZM227.904 937.176C227.904 939.936 230.16 942.24 232.896 942.24C235.632 942.24 237.888 939.936 237.888 937.176C237.888 934.464 235.632 932.16 232.896 932.16C230.16 932.16 227.904 934.464 227.904 937.176ZM231 937.176C231 936.12 231.84 935.256 232.896 935.256C233.952 935.256 234.792 936.12 234.792 937.176C234.792 938.256 233.952 939.144 232.896 939.144C231.84 939.144 231 938.256 231 937.176ZM239.518 937.2C239.518 939.936 240.886 942.24 243.742 942.24C245.59 942.24 246.358 941.376 246.982 940.776L247.342 941.664C247.414 941.832 247.582 942 247.798 942H248.926C249.166 942 249.382 941.784 249.382 941.544V932.856C249.382 932.592 249.166 932.4 248.926 932.4H246.478C246.238 932.4 245.974 932.472 245.974 932.856V937.44C245.974 938.256 245.47 939.144 244.534 939.144C243.55 939.144 242.998 938.28 242.998 937.296V932.856C242.998 932.592 242.782 932.4 242.542 932.4H239.974C239.734 932.4 239.518 932.592 239.518 932.856V937.2ZM251.968 941.544C251.968 941.784 252.184 942 252.424 942H254.872C255.256 942 255.4 941.832 255.4 941.544V936.576C255.4 935.76 255.952 935.208 256.672 935.208C256.888 935.208 257.128 935.28 257.248 935.328C257.512 935.424 257.68 935.28 257.776 935.112L258.952 933.192C259.288 932.64 258.352 932.16 257.032 932.16C255.784 932.16 254.896 933.048 254.416 933.744L253.984 932.688C253.912 932.544 253.816 932.4 253.552 932.4H252.424C252.184 932.4 251.968 932.592 251.968 932.856V941.544ZM260.241 941.544C260.241 941.784 260.457 942 260.697 942H263.217C263.553 942 263.649 941.76 263.649 941.544V936.936C263.649 935.952 264.513 935.256 265.473 935.256C266.553 935.256 267.105 936.096 267.105 937.056V941.544C267.105 941.784 267.297 942 267.561 942H270.129C270.369 942 270.585 941.784 270.585 941.544V937.176C270.585 934.44 269.001 932.16 266.025 932.16C264.273 932.16 263.169 933.072 262.641 933.648L262.257 932.688C262.185 932.52 261.969 932.4 261.825 932.4H260.697C260.457 932.4 260.241 932.592 260.241 932.856V941.544ZM272.273 939.072C272.273 940.968 273.689 942.24 275.585 942.24C277.097 942.24 277.937 941.544 278.489 941.04L278.825 941.688C278.945 941.952 279.113 942 279.257 942H280.313C280.553 942 280.769 941.784 280.769 941.544V936.24C280.769 933.408 279.689 932.16 276.713 932.16C275.417 932.16 273.737 932.448 273.521 932.52C273.305 932.592 273.089 932.76 273.161 933.168L273.377 934.68C273.425 935.04 273.593 935.304 273.953 935.184C274.577 934.992 275.705 934.824 276.353 934.824C277.505 934.824 277.649 935.304 277.649 936.24C277.649 936.24 276.881 935.856 275.801 935.856C273.617 935.856 272.273 937.224 272.273 939.072ZM275.393 938.832C275.393 938.28 275.849 937.824 276.425 937.824C277.001 937.824 277.457 938.28 277.481 938.832C277.481 939.408 277.001 939.888 276.425 939.888C275.849 939.888 275.393 939.408 275.393 938.832ZM283.21 941.544C283.21 941.784 283.426 942 283.666 942H286.306C286.546 942 286.762 941.784 286.762 941.544V925.656C286.762 925.416 286.546 925.2 286.306 925.2H283.666C283.426 925.2 283.21 925.416 283.21 925.656V941.544ZM138.8 965.544C138.8 965.784 139.016 966 139.256 966H142.016C142.256 966 142.472 965.784 142.472 965.544V959.448H144.68C144.944 959.448 145.136 959.232 145.136 958.992V956.856C145.136 956.592 144.944 956.4 144.68 956.4H142.472V954.192C142.472 953.016 142.88 952.2 143.888 952.2C144.368 952.2 144.824 952.416 145.136 952.584C145.328 952.68 145.616 952.584 145.688 952.416L146.696 950.424C146.792 950.256 146.744 949.992 146.6 949.872C146.192 949.488 144.92 948.96 143.672 948.96C140.888 948.96 138.8 950.832 138.8 954.192V956.4H138.296C138.032 956.4 137.84 956.592 137.84 956.856V958.992C137.84 959.232 138.032 959.448 138.296 959.448H138.8V965.544ZM146.131 961.2C146.131 963.96 148.291 966.24 151.147 966.24C152.659 966.24 153.859 965.712 154.699 964.872C154.915 964.656 154.867 964.368 154.723 964.176L153.523 962.736C153.379 962.568 153.139 962.568 152.923 962.736C152.539 963.024 151.843 963.312 151.243 963.312C149.995 963.312 149.467 962.376 149.395 961.728H155.155C155.371 961.728 155.587 961.56 155.611 961.32C155.635 961.152 155.659 960.84 155.659 960.672C155.659 958.032 153.547 956.16 151.099 956.16C148.267 956.16 146.131 958.488 146.131 961.2ZM149.707 959.856C149.803 959.232 150.355 958.728 151.003 958.728C151.627 958.728 152.227 959.232 152.275 959.856H149.707ZM149.443 953.712L153.811 951.744C154.003 951.624 154.147 951.384 153.955 951.024L153.139 949.608C153.019 949.392 152.659 949.44 152.515 949.536L148.435 952.032C148.315 952.128 148.195 952.296 148.291 952.488L148.795 953.496C148.915 953.736 149.131 953.904 149.443 953.712ZM157.398 965.544C157.398 965.784 157.59 966 157.854 966H160.374C160.614 966 160.83 965.784 160.83 965.544V960.936C160.83 959.952 161.55 959.256 162.51 959.256C163.59 959.256 164.022 960.096 164.022 961.056V965.544C164.022 965.784 164.214 966 164.478 966H166.782C167.046 966 167.238 965.784 167.238 965.544V960.888C167.238 959.952 168.006 959.256 168.846 959.256C169.95 959.256 170.454 960.096 170.454 961.056V965.544C170.454 965.784 170.646 966 170.91 966H173.454C173.718 966 173.91 965.784 173.91 965.544V961.2C173.91 958.464 172.446 956.16 169.47 956.16C167.838 956.16 166.71 957.072 166.158 957.624C165.294 956.664 164.358 956.16 163.014 956.16C161.478 956.16 160.374 957.024 159.774 957.648L159.366 956.664C159.294 956.52 159.126 956.4 158.958 956.4H157.854C157.59 956.4 157.398 956.592 157.398 956.856V965.544ZM178.017 953.496C179.073 953.496 179.937 952.656 179.937 951.6C179.937 950.544 179.073 949.68 178.017 949.68C176.961 949.68 176.121 950.544 176.121 951.6C176.121 952.656 176.961 953.496 178.017 953.496ZM176.265 965.544C176.265 965.784 176.481 966 176.721 966H179.361C179.601 966 179.817 965.784 179.817 965.544V956.856C179.817 956.592 179.601 956.4 179.361 956.4H176.721C176.481 956.4 176.265 956.592 176.265 956.856V965.544ZM182.405 965.544C182.405 965.784 182.621 966 182.861 966H185.381C185.717 966 185.813 965.76 185.813 965.544V960.936C185.813 959.952 186.677 959.256 187.637 959.256C188.717 959.256 189.269 960.096 189.269 961.056V965.544C189.269 965.784 189.461 966 189.725 966H192.293C192.533 966 192.749 965.784 192.749 965.544V961.176C192.749 958.44 191.165 956.16 188.189 956.16C186.437 956.16 185.333 957.072 184.805 957.648L184.421 956.688C184.349 956.52 184.133 956.4 183.989 956.4H182.861C182.621 956.4 182.405 956.592 182.405 956.856V965.544ZM196.837 953.496C197.893 953.496 198.757 952.656 198.757 951.6C198.757 950.544 197.893 949.68 196.837 949.68C195.781 949.68 194.941 950.544 194.941 951.6C194.941 952.656 195.781 953.496 196.837 953.496ZM195.085 965.544C195.085 965.784 195.301 966 195.541 966H198.181C198.421 966 198.637 965.784 198.637 965.544V956.856C198.637 956.592 198.421 956.4 198.181 956.4H195.541C195.301 956.4 195.085 956.592 195.085 956.856V965.544ZM200.89 965.448C201.37 965.832 202.57 966.24 204.154 966.24C206.866 966.24 208.21 964.872 208.21 963.192C208.21 961.272 206.866 960.504 204.922 959.832C204.106 959.544 203.842 959.304 203.842 959.064C203.842 958.8 204.058 958.728 204.37 958.728C205.306 958.728 206.41 959.28 206.41 959.28C206.602 959.352 206.842 959.28 206.914 959.136L207.802 957.504C207.946 957.264 207.778 957.048 207.562 956.904C207.034 956.568 205.882 956.16 204.37 956.16C201.778 956.16 200.626 957.456 200.626 959.064C200.626 960.552 201.442 961.632 203.314 962.28C204.538 962.712 204.682 963.048 204.682 963.288C204.682 963.576 204.466 963.72 204.226 963.72C203.194 963.72 202.066 963.096 202.066 963.096C201.874 963 201.634 963.144 201.562 963.288L200.722 964.944C200.602 965.16 200.722 965.304 200.89 965.448ZM210.516 962.904C210.516 965.088 211.572 966.24 213.396 966.24C214.596 966.24 216.3 965.712 216.3 965.712C216.54 965.64 216.66 965.376 216.612 965.16L216.084 963.168C216.012 962.904 215.796 962.808 215.556 962.856C215.316 962.904 214.956 963.024 214.62 963.024C214.332 963.024 213.972 962.976 213.972 962.448V959.448H215.748C216.012 959.448 216.204 959.232 216.204 958.992V956.856C216.204 956.592 216.012 956.4 215.748 956.4H213.972V953.736C213.972 953.496 213.78 953.28 213.54 953.28H210.972C210.732 953.28 210.516 953.496 210.516 953.736V956.4H209.892C209.652 956.4 209.46 956.592 209.46 956.856V958.992C209.46 959.232 209.652 959.448 209.892 959.448H210.516V962.904ZM217.662 961.2C217.662 963.96 219.822 966.24 222.678 966.24C224.19 966.24 225.39 965.712 226.23 964.872C226.446 964.656 226.398 964.368 226.254 964.176L225.054 962.736C224.91 962.568 224.67 962.568 224.454 962.736C224.07 963.024 223.374 963.312 222.774 963.312C221.526 963.312 220.998 962.376 220.926 961.728H226.686C226.902 961.728 227.118 961.56 227.142 961.32C227.166 961.152 227.19 960.84 227.19 960.672C227.19 958.032 225.078 956.16 222.63 956.16C219.798 956.16 217.662 958.488 217.662 961.2ZM221.238 959.856C221.334 959.232 221.886 958.728 222.534 958.728C223.158 958.728 223.758 959.232 223.806 959.856H221.238Z" fill="black"/>
<path d="M74.064 695.544C74.064 695.784 74.256 696 74.52 696H77.352C77.592 696 77.808 695.784 77.808 695.544V689.904H80.328C83.256 689.904 85.68 687.48 85.68 684.504C85.68 681.6 83.256 679.2 80.304 679.2H74.52C74.256 679.2 74.064 679.416 74.064 679.656V695.544ZM77.808 686.4V682.728H80.088C81.12 682.728 81.984 683.496 81.984 684.504C81.984 685.584 81.12 686.4 80.088 686.4H77.808ZM86.796 695.544C86.796 695.784 87.012 696 87.252 696H89.7C90.084 696 90.228 695.832 90.228 695.544V690.576C90.228 689.76 90.78 689.208 91.5 689.208C91.716 689.208 91.956 689.28 92.076 689.328C92.34 689.424 92.508 689.28 92.604 689.112L93.78 687.192C94.116 686.64 93.18 686.16 91.86 686.16C90.612 686.16 89.724 687.048 89.244 687.744L88.812 686.688C88.74 686.544 88.644 686.4 88.38 686.4H87.252C87.012 686.4 86.796 686.592 86.796 686.856V695.544ZM94.2557 691.2C94.2557 693.96 96.4157 696.24 99.2717 696.24C100.784 696.24 101.984 695.712 102.824 694.872C103.04 694.656 102.992 694.368 102.848 694.176L101.648 692.736C101.504 692.568 101.264 692.568 101.048 692.736C100.664 693.024 99.9677 693.312 99.3677 693.312C98.1197 693.312 97.5917 692.376 97.5197 691.728H103.28C103.496 691.728 103.712 691.56 103.736 691.32C103.76 691.152 103.784 690.84 103.784 690.672C103.784 688.032 101.672 686.16 99.2237 686.16C96.3917 686.16 94.2557 688.488 94.2557 691.2ZM97.8317 689.856C97.9277 689.232 98.4797 688.728 99.1277 688.728C99.7517 688.728 100.352 689.232 100.4 689.856H97.8317ZM105.523 695.544C105.523 695.784 105.715 696 105.979 696H108.499C108.739 696 108.955 695.784 108.955 695.544V690.936C108.955 689.952 109.675 689.256 110.635 689.256C111.715 689.256 112.147 690.096 112.147 691.056V695.544C112.147 695.784 112.339 696 112.603 696H114.907C115.171 696 115.363 695.784 115.363 695.544V690.888C115.363 689.952 116.131 689.256 116.971 689.256C118.075 689.256 118.579 690.096 118.579 691.056V695.544C118.579 695.784 118.771 696 119.035 696H121.579C121.843 696 122.035 695.784 122.035 695.544V691.2C122.035 688.464 120.571 686.16 117.595 686.16C115.963 686.16 114.835 687.072 114.283 687.624C113.419 686.664 112.483 686.16 111.139 686.16C109.603 686.16 108.499 687.024 107.899 687.648L107.491 686.664C107.419 686.52 107.251 686.4 107.083 686.4H105.979C105.715 686.4 105.523 686.592 105.523 686.856V695.544ZM126.142 683.496C127.198 683.496 128.062 682.656 128.062 681.6C128.062 680.544 127.198 679.68 126.142 679.68C125.086 679.68 124.246 680.544 124.246 681.6C124.246 682.656 125.086 683.496 126.142 683.496ZM124.39 695.544C124.39 695.784 124.606 696 124.846 696H127.486C127.726 696 127.942 695.784 127.942 695.544V686.856C127.942 686.592 127.726 686.4 127.486 686.4H124.846C124.606 686.4 124.39 686.592 124.39 686.856V695.544ZM129.81 691.2C129.81 693.96 131.97 696.24 134.826 696.24C136.338 696.24 137.538 695.712 138.378 694.872C138.594 694.656 138.546 694.368 138.402 694.176L137.202 692.736C137.058 692.568 136.818 692.568 136.602 692.736C136.218 693.024 135.522 693.312 134.922 693.312C133.674 693.312 133.146 692.376 133.074 691.728H138.834C139.05 691.728 139.266 691.56 139.29 691.32C139.314 691.152 139.338 690.84 139.338 690.672C139.338 688.032 137.226 686.16 134.778 686.16C131.946 686.16 129.81 688.488 129.81 691.2ZM133.386 689.856C133.482 689.232 134.034 688.728 134.682 688.728C135.306 688.728 135.906 689.232 135.954 689.856H133.386ZM136.77 683.712C137.082 683.904 137.298 683.736 137.418 683.496L137.922 682.488C138.018 682.296 137.898 682.128 137.778 682.032L133.698 679.536C133.554 679.44 133.194 679.392 133.074 679.608L132.258 681.024C132.066 681.384 132.21 681.624 132.402 681.744L136.77 683.712ZM141.077 695.544C141.077 695.784 141.293 696 141.533 696H143.981C144.365 696 144.509 695.832 144.509 695.544V690.576C144.509 689.76 145.061 689.208 145.781 689.208C145.997 689.208 146.237 689.28 146.357 689.328C146.621 689.424 146.789 689.28 146.885 689.112L148.061 687.192C148.397 686.64 147.461 686.16 146.141 686.16C144.893 686.16 144.005 687.048 143.525 687.744L143.093 686.688C143.021 686.544 142.925 686.4 142.661 686.4H141.533C141.293 686.4 141.077 686.592 141.077 686.856V695.544ZM148.537 691.2C148.537 693.96 150.697 696.24 153.553 696.24C155.065 696.24 156.265 695.712 157.105 694.872C157.321 694.656 157.273 694.368 157.129 694.176L155.929 692.736C155.785 692.568 155.545 692.568 155.329 692.736C154.945 693.024 154.249 693.312 153.649 693.312C152.401 693.312 151.873 692.376 151.801 691.728H157.561C157.777 691.728 157.993 691.56 158.017 691.32C158.041 691.152 158.065 690.84 158.065 690.672C158.065 688.032 155.953 686.16 153.505 686.16C150.673 686.16 148.537 688.488 148.537 691.2ZM152.113 689.856C152.209 689.232 152.761 688.728 153.409 688.728C154.033 688.728 154.633 689.232 154.681 689.856H152.113ZM76.608 720C76.68 720.12 76.872 720.24 77.016 720.24H77.136C77.28 720.24 77.472 720.12 77.544 720L82.104 711.048C82.272 710.736 82.056 710.4 81.696 710.4H79.272C78.936 710.4 78.768 710.376 78.624 710.664L77.112 713.928C77.088 713.928 77.064 713.928 77.04 713.928L75.624 710.664C75.552 710.52 75.36 710.4 75.192 710.4H72.504C72.144 710.4 71.928 710.736 72.096 711.048L76.608 720ZM82.8668 717.072C82.8668 718.968 84.2828 720.24 86.1788 720.24C87.6908 720.24 88.5308 719.544 89.0828 719.04L89.4188 719.688C89.5388 719.952 89.7068 720 89.8508 720H90.9068C91.1468 720 91.3628 719.784 91.3628 719.544V714.24C91.3628 711.408 90.2828 710.16 87.3068 710.16C86.0108 710.16 84.3308 710.448 84.1148 710.52C83.8988 710.592 83.6828 710.76 83.7548 711.168L83.9708 712.68C84.0188 713.04 84.1868 713.304 84.5468 713.184C85.1708 712.992 86.2988 712.824 86.9468 712.824C88.0988 712.824 88.2428 713.304 88.2428 714.24C88.2428 714.24 87.4748 713.856 86.3948 713.856C84.2108 713.856 82.8668 715.224 82.8668 717.072ZM85.9868 716.832C85.9868 716.28 86.4428 715.824 87.0188 715.824C87.5948 715.824 88.0508 716.28 88.0748 716.832C88.0748 717.408 87.5948 717.888 87.0188 717.888C86.4428 717.888 85.9868 717.408 85.9868 716.832ZM92.7718 719.136C92.7718 721.032 94.3078 721.704 94.6198 721.8V721.872C94.3558 722.016 93.1558 722.736 93.1558 724.176C93.1558 725.688 94.4518 727.44 98.1718 727.44C101.964 727.44 103.572 725.568 103.572 723.264C103.572 721.128 101.7 719.76 99.4438 719.76H96.5638C96.2038 719.76 95.7958 719.568 95.7958 719.112C95.7958 718.728 96.0838 718.464 96.5878 718.464H98.3158C100.86 718.464 102.468 716.592 102.468 714.84C102.468 713.256 101.556 712.512 101.556 712.512L102.948 712.008C103.092 711.936 103.212 711.768 103.212 711.6V710.616C103.212 710.352 103.02 710.16 102.756 710.16H98.2198C95.8918 710.16 93.9958 712.08 93.9958 714.312C93.9958 715.776 94.6918 716.496 94.6918 716.496C94.6918 716.496 92.7718 717.24 92.7718 719.136ZM97.0438 714.528C97.0438 713.808 97.5958 713.28 98.3158 713.28C99.0598 713.28 99.5878 713.808 99.5878 714.528C99.5878 715.248 99.0598 715.776 98.3158 715.776C97.5958 715.776 97.0438 715.248 97.0438 714.528ZM96.4438 723.504C96.4438 722.808 97.3078 722.496 98.1718 722.496C99.4678 722.496 99.8998 723 99.8998 723.504C99.8998 724.152 99.3718 724.632 98.1718 724.632C97.0198 724.632 96.4438 724.176 96.4438 723.504ZM104.744 715.2C104.744 717.936 106.112 720.24 108.968 720.24C110.816 720.24 111.584 719.376 112.208 718.776L112.568 719.664C112.64 719.832 112.808 720 113.024 720H114.152C114.392 720 114.608 719.784 114.608 719.544V710.856C114.608 710.592 114.392 710.4 114.152 710.4H111.704C111.464 710.4 111.2 710.472 111.2 710.856V715.44C111.2 716.256 110.696 717.144 109.76 717.144C108.776 717.144 108.224 716.28 108.224 715.296V710.856C108.224 710.592 108.008 710.4 107.768 710.4H105.2C104.96 710.4 104.744 710.592 104.744 710.856V715.2ZM116.474 715.2C116.474 717.96 118.634 720.24 121.49 720.24C123.002 720.24 124.202 719.712 125.042 718.872C125.258 718.656 125.21 718.368 125.066 718.176L123.866 716.736C123.722 716.568 123.482 716.568 123.266 716.736C122.882 717.024 122.186 717.312 121.586 717.312C120.338 717.312 119.81 716.376 119.738 715.728H125.498C125.714 715.728 125.93 715.56 125.954 715.32C125.978 715.152 126.002 714.84 126.002 714.672C126.002 712.032 123.89 710.16 121.442 710.16C118.61 710.16 116.474 712.488 116.474 715.2ZM120.05 713.856C120.146 713.232 120.698 712.728 121.346 712.728C121.97 712.728 122.57 713.232 122.618 713.856H120.05ZM132.342 715.2C132.342 717.96 134.382 720.24 137.094 720.24C139.206 720.24 140.31 718.728 140.31 718.728L140.598 719.52C140.694 719.784 140.862 720 141.102 720H142.23C142.47 720 142.686 719.784 142.686 719.544V703.656C142.686 703.416 142.47 703.2 142.23 703.2H139.566C139.326 703.2 139.11 703.416 139.11 703.656V710.616C138.822 710.448 137.934 710.16 137.118 710.16C134.55 710.16 132.342 711.816 132.342 715.2ZM135.63 715.176C135.63 714.096 136.47 713.256 137.574 713.256C138.678 713.256 139.494 714.096 139.494 715.176C139.494 716.28 138.678 717.144 137.574 717.144C136.47 717.144 135.63 716.28 135.63 715.176ZM145.057 715.2C145.057 717.936 146.425 720.24 149.281 720.24C151.129 720.24 151.897 719.376 152.521 718.776L152.881 719.664C152.953 719.832 153.121 720 153.337 720H154.465C154.705 720 154.921 719.784 154.921 719.544V710.856C154.921 710.592 154.705 710.4 154.465 710.4H152.017C151.777 710.4 151.513 710.472 151.513 710.856V715.44C151.513 716.256 151.009 717.144 150.073 717.144C149.089 717.144 148.537 716.28 148.537 715.296V710.856C148.537 710.592 148.321 710.4 148.081 710.4H145.513C145.273 710.4 145.057 710.592 145.057 710.856V715.2ZM73.8 743.544C73.8 743.784 74.016 744 74.256 744H77.016C77.256 744 77.472 743.784 77.472 743.544V737.448H79.68C79.944 737.448 80.136 737.232 80.136 736.992V734.856C80.136 734.592 79.944 734.4 79.68 734.4H77.472V732.192C77.472 731.016 77.88 730.2 78.888 730.2C79.368 730.2 79.824 730.416 80.136 730.584C80.328 730.68 80.616 730.584 80.688 730.416L81.696 728.424C81.792 728.256 81.744 727.992 81.6 727.872C81.192 727.488 79.92 726.96 78.672 726.96C75.888 726.96 73.8 728.832 73.8 732.192V734.4H73.296C73.032 734.4 72.84 734.592 72.84 734.856V736.992C72.84 737.232 73.032 737.448 73.296 737.448H73.8V743.544ZM81.1307 739.2C81.1307 741.96 83.2907 744.24 86.1467 744.24C87.6587 744.24 88.8587 743.712 89.6987 742.872C89.9147 742.656 89.8667 742.368 89.7227 742.176L88.5227 740.736C88.3787 740.568 88.1387 740.568 87.9227 740.736C87.5387 741.024 86.8427 741.312 86.2427 741.312C84.9947 741.312 84.4667 740.376 84.3947 739.728H90.1547C90.3707 739.728 90.5867 739.56 90.6107 739.32C90.6347 739.152 90.6587 738.84 90.6587 738.672C90.6587 736.032 88.5467 734.16 86.0987 734.16C83.2667 734.16 81.1307 736.488 81.1307 739.2ZM84.7067 737.856C84.8027 737.232 85.3547 736.728 86.0027 736.728C86.6267 736.728 87.2267 737.232 87.2747 737.856H84.7067ZM84.4427 731.712L88.8107 729.744C89.0027 729.624 89.1467 729.384 88.9547 729.024L88.1387 727.608C88.0187 727.392 87.6587 727.44 87.5147 727.536L83.4347 730.032C83.3147 730.128 83.1947 730.296 83.2907 730.488L83.7947 731.496C83.9147 731.736 84.1307 731.904 84.4427 731.712ZM92.3976 743.544C92.3976 743.784 92.5896 744 92.8536 744H95.3736C95.6136 744 95.8296 743.784 95.8296 743.544V738.936C95.8296 737.952 96.5496 737.256 97.5096 737.256C98.5896 737.256 99.0216 738.096 99.0216 739.056V743.544C99.0216 743.784 99.2136 744 99.4776 744H101.782C102.046 744 102.238 743.784 102.238 743.544V738.888C102.238 737.952 103.006 737.256 103.846 737.256C104.95 737.256 105.454 738.096 105.454 739.056V743.544C105.454 743.784 105.646 744 105.91 744H108.454C108.718 744 108.91 743.784 108.91 743.544V739.2C108.91 736.464 107.446 734.16 104.47 734.16C102.838 734.16 101.71 735.072 101.158 735.624C100.294 734.664 99.3576 734.16 98.0136 734.16C96.4776 734.16 95.3736 735.024 94.7736 735.648L94.3656 734.664C94.2936 734.52 94.1256 734.4 93.9576 734.4H92.8536C92.5896 734.4 92.3976 734.592 92.3976 734.856V743.544ZM113.017 731.496C114.073 731.496 114.937 730.656 114.937 729.6C114.937 728.544 114.073 727.68 113.017 727.68C111.961 727.68 111.121 728.544 111.121 729.6C111.121 730.656 111.961 731.496 113.017 731.496ZM111.265 743.544C111.265 743.784 111.481 744 111.721 744H114.361C114.601 744 114.817 743.784 114.817 743.544V734.856C114.817 734.592 114.601 734.4 114.361 734.4H111.721C111.481 734.4 111.265 734.592 111.265 734.856V743.544ZM117.405 743.544C117.405 743.784 117.621 744 117.861 744H120.381C120.717 744 120.813 743.76 120.813 743.544V738.936C120.813 737.952 121.677 737.256 122.637 737.256C123.717 737.256 124.269 738.096 124.269 739.056V743.544C124.269 743.784 124.461 744 124.725 744H127.293C127.533 744 127.749 743.784 127.749 743.544V739.176C127.749 736.44 126.165 734.16 123.189 734.16C121.437 734.16 120.333 735.072 119.805 735.648L119.421 734.688C119.349 734.52 119.133 734.4 118.989 734.4H117.861C117.621 734.4 117.405 734.592 117.405 734.856V743.544ZM131.837 731.496C132.893 731.496 133.757 730.656 133.757 729.6C133.757 728.544 132.893 727.68 131.837 727.68C130.781 727.68 129.941 728.544 129.941 729.6C129.941 730.656 130.781 731.496 131.837 731.496ZM130.085 743.544C130.085 743.784 130.301 744 130.541 744H133.181C133.421 744 133.637 743.784 133.637 743.544V734.856C133.637 734.592 133.421 734.4 133.181 734.4H130.541C130.301 734.4 130.085 734.592 130.085 734.856V743.544ZM135.89 743.448C136.37 743.832 137.57 744.24 139.154 744.24C141.866 744.24 143.21 742.872 143.21 741.192C143.21 739.272 141.866 738.504 139.922 737.832C139.106 737.544 138.842 737.304 138.842 737.064C138.842 736.8 139.058 736.728 139.37 736.728C140.306 736.728 141.41 737.28 141.41 737.28C141.602 737.352 141.842 737.28 141.914 737.136L142.802 735.504C142.946 735.264 142.778 735.048 142.562 734.904C142.034 734.568 140.882 734.16 139.37 734.16C136.778 734.16 135.626 735.456 135.626 737.064C135.626 738.552 136.442 739.632 138.314 740.28C139.538 740.712 139.682 741.048 139.682 741.288C139.682 741.576 139.466 741.72 139.226 741.72C138.194 741.72 137.066 741.096 137.066 741.096C136.874 741 136.634 741.144 136.562 741.288L135.722 742.944C135.602 743.16 135.722 743.304 135.89 743.448ZM145.132 743.544C145.132 743.784 145.324 744 145.588 744H148.108C148.348 744 148.564 743.784 148.564 743.544V738.936C148.564 737.952 149.284 737.256 150.244 737.256C151.324 737.256 151.756 738.096 151.756 739.056V743.544C151.756 743.784 151.948 744 152.212 744H154.516C154.78 744 154.972 743.784 154.972 743.544V738.888C154.972 737.952 155.74 737.256 156.58 737.256C157.684 737.256 158.188 738.096 158.188 739.056V743.544C158.188 743.784 158.38 744 158.644 744H161.188C161.452 744 161.644 743.784 161.644 743.544V739.2C161.644 736.464 160.18 734.16 157.204 734.16C155.572 734.16 154.444 735.072 153.892 735.624C153.028 734.664 152.092 734.16 150.748 734.16C149.212 734.16 148.108 735.024 147.508 735.648L147.1 734.664C147.028 734.52 146.86 734.4 146.692 734.4H145.588C145.324 734.4 145.132 734.592 145.132 734.856V743.544ZM163.279 739.2C163.279 741.96 165.439 744.24 168.295 744.24C169.807 744.24 171.007 743.712 171.847 742.872C172.063 742.656 172.015 742.368 171.871 742.176L170.671 740.736C170.527 740.568 170.287 740.568 170.071 740.736C169.687 741.024 168.991 741.312 168.391 741.312C167.143 741.312 166.615 740.376 166.543 739.728H172.303C172.519 739.728 172.735 739.56 172.759 739.32C172.783 739.152 172.807 738.84 172.807 738.672C172.807 736.032 170.695 734.16 168.247 734.16C165.415 734.16 163.279 736.488 163.279 739.2ZM166.855 737.856C166.951 737.232 167.503 736.728 168.151 736.728C168.775 736.728 169.375 737.232 169.423 737.856H166.855Z" fill="black"/>
<path d="M139.064 469.544C139.064 469.784 139.256 470 139.496 470H145.352C149.984 470 153.776 466.232 153.776 461.576C153.776 456.968 149.984 453.2 145.352 453.2H139.496C139.256 453.2 139.064 453.416 139.064 453.656V469.544ZM142.808 466.448V456.728H145.112C147.824 456.728 149.792 458.864 149.792 461.576C149.792 464.312 147.824 466.448 145.112 466.448H142.808ZM154.849 465.2C154.849 467.96 157.009 470.24 159.865 470.24C161.377 470.24 162.577 469.712 163.417 468.872C163.633 468.656 163.585 468.368 163.441 468.176L162.241 466.736C162.097 466.568 161.857 466.568 161.641 466.736C161.257 467.024 160.561 467.312 159.961 467.312C158.713 467.312 158.185 466.376 158.113 465.728H163.873C164.089 465.728 164.305 465.56 164.329 465.32C164.353 465.152 164.377 464.84 164.377 464.672C164.377 462.032 162.265 460.16 159.817 460.16C156.985 460.16 154.849 462.488 154.849 465.2ZM158.425 463.856C158.521 463.232 159.073 462.728 159.721 462.728C160.345 462.728 160.945 463.232 160.993 463.856H158.425ZM165.372 465.2C165.372 468.08 167.796 470.24 170.532 470.24C172.26 470.24 173.508 469.568 174.396 468.224C174.564 467.984 174.444 467.744 174.228 467.552L172.788 466.304C172.644 466.184 172.428 466.232 172.26 466.4C171.876 466.784 171.468 467.144 170.628 467.144C169.572 467.144 168.756 466.28 168.756 465.2C168.756 464.144 169.62 463.256 170.676 463.256C171.228 463.256 171.732 463.52 172.068 463.88C172.188 464 172.476 464.048 172.596 463.928L174.036 462.56C174.252 462.368 174.324 462.104 174.156 461.888C173.244 460.784 172.068 460.16 170.556 460.16C167.82 460.16 165.372 462.368 165.372 465.2ZM176.194 469.544C176.194 469.784 176.41 470 176.65 470H179.29C179.53 470 179.746 469.784 179.746 469.544V453.656C179.746 453.416 179.53 453.2 179.29 453.2H176.65C176.41 453.2 176.194 453.416 176.194 453.656V469.544ZM181.687 467.072C181.687 468.968 183.103 470.24 184.999 470.24C186.511 470.24 187.351 469.544 187.903 469.04L188.239 469.688C188.359 469.952 188.527 470 188.671 470H189.727C189.967 470 190.183 469.784 190.183 469.544V464.24C190.183 461.408 189.103 460.16 186.127 460.16C184.831 460.16 183.151 460.448 182.935 460.52C182.719 460.592 182.503 460.76 182.575 461.168L182.791 462.68C182.839 463.04 183.007 463.304 183.367 463.184C183.991 462.992 185.119 462.824 185.767 462.824C186.919 462.824 187.063 463.304 187.063 464.24C187.063 464.24 186.295 463.856 185.215 463.856C183.031 463.856 181.687 465.224 181.687 467.072ZM184.807 466.832C184.807 466.28 185.263 465.824 185.839 465.824C186.415 465.824 186.871 466.28 186.895 466.832C186.895 467.408 186.415 467.888 185.839 467.888C185.263 467.888 184.807 467.408 184.807 466.832ZM192.624 469.544C192.624 469.784 192.84 470 193.08 470H195.528C195.912 470 196.056 469.832 196.056 469.544V464.576C196.056 463.76 196.608 463.208 197.328 463.208C197.544 463.208 197.784 463.28 197.904 463.328C198.168 463.424 198.336 463.28 198.432 463.112L199.608 461.192C199.944 460.64 199.008 460.16 197.688 460.16C196.44 460.16 195.552 461.048 195.072 461.744L194.64 460.688C194.568 460.544 194.472 460.4 194.208 460.4H193.08C192.84 460.4 192.624 460.592 192.624 460.856V469.544ZM200.25 467.072C200.25 468.968 201.666 470.24 203.562 470.24C205.074 470.24 205.914 469.544 206.466 469.04L206.802 469.688C206.922 469.952 207.09 470 207.234 470H208.29C208.53 470 208.746 469.784 208.746 469.544V464.24C208.746 461.408 207.666 460.16 204.69 460.16C203.394 460.16 201.714 460.448 201.498 460.52C201.282 460.592 201.066 460.76 201.138 461.168L201.354 462.68C201.402 463.04 201.57 463.304 201.93 463.184C202.554 462.992 203.682 462.824 204.33 462.824C205.482 462.824 205.626 463.304 205.626 464.24C205.626 464.24 204.858 463.856 203.778 463.856C201.594 463.856 200.25 465.224 200.25 467.072ZM203.37 466.832C203.37 466.28 203.826 465.824 204.402 465.824C204.978 465.824 205.434 466.28 205.458 466.832C205.458 467.408 204.978 467.888 204.402 467.888C203.826 467.888 203.37 467.408 203.37 466.832ZM211.571 466.904C211.571 469.088 212.627 470.24 214.451 470.24C215.651 470.24 217.355 469.712 217.355 469.712C217.595 469.64 217.715 469.376 217.667 469.16L217.139 467.168C217.067 466.904 216.851 466.808 216.611 466.856C216.371 466.904 216.011 467.024 215.675 467.024C215.387 467.024 215.027 466.976 215.027 466.448V463.448H216.803C217.067 463.448 217.259 463.232 217.259 462.992V460.856C217.259 460.592 217.067 460.4 216.803 460.4H215.027V457.736C215.027 457.496 214.835 457.28 214.595 457.28H212.027C211.787 457.28 211.571 457.496 211.571 457.736V460.4H210.947C210.707 460.4 210.515 460.592 210.515 460.856V462.992C210.515 463.232 210.707 463.448 210.947 463.448H211.571V466.904ZM221.189 457.496C222.245 457.496 223.109 456.656 223.109 455.6C223.109 454.544 222.245 453.68 221.189 453.68C220.133 453.68 219.293 454.544 219.293 455.6C219.293 456.656 220.133 457.496 221.189 457.496ZM219.437 469.544C219.437 469.784 219.653 470 219.893 470H222.533C222.773 470 222.989 469.784 222.989 469.544V460.856C222.989 460.592 222.773 460.4 222.533 460.4H219.893C219.653 460.4 219.437 460.592 219.437 460.856V469.544ZM224.833 465.176C224.833 467.936 227.089 470.24 229.825 470.24C232.561 470.24 234.817 467.936 234.817 465.176C234.817 462.464 232.561 460.16 229.825 460.16C227.089 460.16 224.833 462.464 224.833 465.176ZM227.929 465.176C227.929 464.12 228.769 463.256 229.825 463.256C230.881 463.256 231.721 464.12 231.721 465.176C231.721 466.256 230.881 467.144 229.825 467.144C228.769 467.144 227.929 466.256 227.929 465.176ZM236.663 469.544C236.663 469.784 236.879 470 237.119 470H239.639C239.975 470 240.071 469.76 240.071 469.544V464.936C240.071 463.952 240.935 463.256 241.895 463.256C242.975 463.256 243.527 464.096 243.527 465.056V469.544C243.527 469.784 243.719 470 243.983 470H246.551C246.791 470 247.007 469.784 247.007 469.544V465.176C247.007 462.44 245.423 460.16 242.447 460.16C240.695 460.16 239.591 461.072 239.063 461.648L238.679 460.688C238.607 460.52 238.391 460.4 238.247 460.4H237.119C236.879 460.4 236.663 460.592 236.663 460.856V469.544ZM137.6 489.2C137.6 491.96 139.64 494.24 142.352 494.24C144.464 494.24 145.568 492.728 145.568 492.728L145.856 493.52C145.952 493.784 146.12 494 146.36 494H147.488C147.728 494 147.944 493.784 147.944 493.544V477.656C147.944 477.416 147.728 477.2 147.488 477.2H144.824C144.584 477.2 144.368 477.416 144.368 477.656V484.616C144.08 484.448 143.192 484.16 142.376 484.16C139.808 484.16 137.6 485.816 137.6 489.2ZM140.888 489.176C140.888 488.096 141.728 487.256 142.832 487.256C143.936 487.256 144.752 488.096 144.752 489.176C144.752 490.28 143.936 491.144 142.832 491.144C141.728 491.144 140.888 490.28 140.888 489.176ZM149.81 489.2C149.81 491.96 151.97 494.24 154.826 494.24C156.338 494.24 157.538 493.712 158.378 492.872C158.594 492.656 158.546 492.368 158.402 492.176L157.202 490.736C157.058 490.568 156.818 490.568 156.602 490.736C156.218 491.024 155.522 491.312 154.922 491.312C153.674 491.312 153.146 490.376 153.074 489.728H158.834C159.05 489.728 159.266 489.56 159.29 489.32C159.314 489.152 159.338 488.84 159.338 488.672C159.338 486.032 157.226 484.16 154.778 484.16C151.946 484.16 149.81 486.488 149.81 489.2ZM153.386 487.856C153.482 487.232 154.034 486.728 154.682 486.728C155.306 486.728 155.906 487.232 155.954 487.856H153.386ZM160.741 493.448C161.221 493.832 162.421 494.24 164.005 494.24C166.717 494.24 168.061 492.872 168.061 491.192C168.061 489.272 166.717 488.504 164.773 487.832C163.957 487.544 163.693 487.304 163.693 487.064C163.693 486.8 163.909 486.728 164.221 486.728C165.157 486.728 166.261 487.28 166.261 487.28C166.453 487.352 166.693 487.28 166.765 487.136L167.653 485.504C167.797 485.264 167.629 485.048 167.413 484.904C166.885 484.568 165.733 484.16 164.221 484.16C161.629 484.16 160.477 485.456 160.477 487.064C160.477 488.552 161.293 489.632 163.165 490.28C164.389 490.712 164.533 491.048 164.533 491.288C164.533 491.576 164.317 491.72 164.077 491.72C163.045 491.72 161.917 491.096 161.917 491.096C161.725 491 161.485 491.144 161.413 491.288L160.573 492.944C160.453 493.16 160.573 493.304 160.741 493.448ZM174.584 489.2C174.584 491.96 176.624 494.24 179.336 494.24C181.448 494.24 182.552 492.728 182.552 492.728L182.84 493.52C182.936 493.784 183.104 494 183.344 494H184.472C184.712 494 184.928 493.784 184.928 493.544V477.656C184.928 477.416 184.712 477.2 184.472 477.2H181.808C181.568 477.2 181.352 477.416 181.352 477.656V484.616C181.064 484.448 180.176 484.16 179.36 484.16C176.792 484.16 174.584 485.816 174.584 489.2ZM177.872 489.176C177.872 488.096 178.712 487.256 179.816 487.256C180.92 487.256 181.736 488.096 181.736 489.176C181.736 490.28 180.92 491.144 179.816 491.144C178.712 491.144 177.872 490.28 177.872 489.176ZM187.515 493.544C187.515 493.784 187.731 494 187.971 494H190.419C190.803 494 190.947 493.832 190.947 493.544V488.576C190.947 487.76 191.499 487.208 192.219 487.208C192.435 487.208 192.675 487.28 192.795 487.328C193.059 487.424 193.227 487.28 193.323 487.112L194.499 485.192C194.835 484.64 193.899 484.16 192.579 484.16C191.331 484.16 190.443 485.048 189.963 485.744L189.531 484.688C189.459 484.544 189.363 484.4 189.099 484.4H187.971C187.731 484.4 187.515 484.592 187.515 484.856V493.544ZM194.95 489.176C194.95 491.936 197.206 494.24 199.942 494.24C202.678 494.24 204.934 491.936 204.934 489.176C204.934 486.464 202.678 484.16 199.942 484.16C197.206 484.16 194.95 486.464 194.95 489.176ZM198.046 489.176C198.046 488.12 198.886 487.256 199.942 487.256C200.998 487.256 201.838 488.12 201.838 489.176C201.838 490.256 200.998 491.144 199.942 491.144C198.886 491.144 198.046 490.256 198.046 489.176ZM208.532 481.496C209.588 481.496 210.452 480.656 210.452 479.6C210.452 478.544 209.588 477.68 208.532 477.68C207.476 477.68 206.636 478.544 206.636 479.6C206.636 480.656 207.476 481.496 208.532 481.496ZM206.78 493.544C206.78 493.784 206.996 494 207.236 494H209.876C210.116 494 210.332 493.784 210.332 493.544V484.856C210.332 484.592 210.116 484.4 209.876 484.4H207.236C206.996 484.4 206.78 484.592 206.78 484.856V493.544ZM213.305 490.904C213.305 493.088 214.361 494.24 216.185 494.24C217.385 494.24 219.089 493.712 219.089 493.712C219.329 493.64 219.449 493.376 219.401 493.16L218.873 491.168C218.801 490.904 218.585 490.808 218.345 490.856C218.105 490.904 217.745 491.024 217.409 491.024C217.121 491.024 216.761 490.976 216.761 490.448V487.448H218.537C218.801 487.448 218.993 487.232 218.993 486.992V484.856C218.993 484.592 218.801 484.4 218.537 484.4H216.761V481.736C216.761 481.496 216.569 481.28 216.329 481.28H213.761C213.521 481.28 213.305 481.496 213.305 481.736V484.4H212.681C212.441 484.4 212.249 484.592 212.249 484.856V486.992C212.249 487.232 212.441 487.448 212.681 487.448H213.305V490.904ZM220.835 493.448C221.315 493.832 222.515 494.24 224.099 494.24C226.811 494.24 228.155 492.872 228.155 491.192C228.155 489.272 226.811 488.504 224.867 487.832C224.051 487.544 223.787 487.304 223.787 487.064C223.787 486.8 224.003 486.728 224.315 486.728C225.251 486.728 226.355 487.28 226.355 487.28C226.547 487.352 226.787 487.28 226.859 487.136L227.747 485.504C227.891 485.264 227.723 485.048 227.507 484.904C226.979 484.568 225.827 484.16 224.315 484.16C221.723 484.16 220.571 485.456 220.571 487.064C220.571 488.552 221.387 489.632 223.259 490.28C224.483 490.712 224.627 491.048 224.627 491.288C224.627 491.576 224.411 491.72 224.171 491.72C223.139 491.72 222.011 491.096 222.011 491.096C221.819 491 221.579 491.144 221.507 491.288L220.667 492.944C220.547 493.16 220.667 493.304 220.835 493.448ZM234.678 489.2C234.678 491.96 236.718 494.24 239.43 494.24C241.542 494.24 242.646 492.728 242.646 492.728L242.934 493.52C243.03 493.784 243.198 494 243.438 494H244.566C244.806 494 245.022 493.784 245.022 493.544V477.656C245.022 477.416 244.806 477.2 244.566 477.2H241.902C241.662 477.2 241.446 477.416 241.446 477.656V484.616C241.158 484.448 240.27 484.16 239.454 484.16C236.886 484.16 234.678 485.816 234.678 489.2ZM237.966 489.176C237.966 488.096 238.806 487.256 239.91 487.256C241.014 487.256 241.83 488.096 241.83 489.176C241.83 490.28 241.014 491.144 239.91 491.144C238.806 491.144 237.966 490.28 237.966 489.176ZM246.889 489.2C246.889 491.96 249.049 494.24 251.905 494.24C253.417 494.24 254.617 493.712 255.457 492.872C255.673 492.656 255.625 492.368 255.481 492.176L254.281 490.736C254.137 490.568 253.897 490.568 253.681 490.736C253.297 491.024 252.601 491.312 252.001 491.312C250.753 491.312 250.225 490.376 250.153 489.728H255.913C256.129 489.728 256.345 489.56 256.369 489.32C256.393 489.152 256.417 488.84 256.417 488.672C256.417 486.032 254.305 484.16 251.857 484.16C249.025 484.16 246.889 486.488 246.889 489.2ZM250.465 487.856C250.561 487.232 251.113 486.728 251.761 486.728C252.385 486.728 252.985 487.232 253.033 487.856H250.465ZM263.452 493.544C263.452 493.784 263.668 494 263.908 494H266.548C266.788 494 267.004 493.784 267.004 493.544V477.656C267.004 477.416 266.788 477.2 266.548 477.2H263.908C263.668 477.2 263.452 477.416 263.452 477.656V493.544ZM268.945 491.072C268.945 492.968 270.361 494.24 272.257 494.24C273.769 494.24 274.609 493.544 275.161 493.04L275.497 493.688C275.617 493.952 275.785 494 275.929 494H276.985C277.225 494 277.441 493.784 277.441 493.544V488.24C277.441 485.408 276.361 484.16 273.385 484.16C272.089 484.16 270.409 484.448 270.193 484.52C269.977 484.592 269.761 484.76 269.833 485.168L270.049 486.68C270.097 487.04 270.265 487.304 270.625 487.184C271.249 486.992 272.377 486.824 273.025 486.824C274.177 486.824 274.321 487.304 274.321 488.24C274.321 488.24 273.553 487.856 272.473 487.856C270.289 487.856 268.945 489.224 268.945 491.072ZM272.065 490.832C272.065 490.28 272.521 489.824 273.097 489.824C273.673 489.824 274.129 490.28 274.153 490.832C274.153 491.408 273.673 491.888 273.097 491.888C272.521 491.888 272.065 491.408 272.065 490.832ZM138.8 517.544C138.8 517.784 139.016 518 139.256 518H142.016C142.256 518 142.472 517.784 142.472 517.544V511.448H144.68C144.944 511.448 145.136 511.232 145.136 510.992V508.856C145.136 508.592 144.944 508.4 144.68 508.4H142.472V506.192C142.472 505.016 142.88 504.2 143.888 504.2C144.368 504.2 144.824 504.416 145.136 504.584C145.328 504.68 145.616 504.584 145.688 504.416L146.696 502.424C146.792 502.256 146.744 501.992 146.6 501.872C146.192 501.488 144.92 500.96 143.672 500.96C140.888 500.96 138.8 502.832 138.8 506.192V508.4H138.296C138.032 508.4 137.84 508.592 137.84 508.856V510.992C137.84 511.232 138.032 511.448 138.296 511.448H138.8V517.544ZM146.131 513.2C146.131 515.96 148.291 518.24 151.147 518.24C152.659 518.24 153.859 517.712 154.699 516.872C154.915 516.656 154.867 516.368 154.723 516.176L153.523 514.736C153.379 514.568 153.139 514.568 152.923 514.736C152.539 515.024 151.843 515.312 151.243 515.312C149.995 515.312 149.467 514.376 149.395 513.728H155.155C155.371 513.728 155.587 513.56 155.611 513.32C155.635 513.152 155.659 512.84 155.659 512.672C155.659 510.032 153.547 508.16 151.099 508.16C148.267 508.16 146.131 510.488 146.131 513.2ZM149.707 511.856C149.803 511.232 150.355 510.728 151.003 510.728C151.627 510.728 152.227 511.232 152.275 511.856H149.707ZM157.398 517.544C157.398 517.784 157.59 518 157.854 518H160.374C160.614 518 160.83 517.784 160.83 517.544V512.936C160.83 511.952 161.55 511.256 162.51 511.256C163.59 511.256 164.022 512.096 164.022 513.056V517.544C164.022 517.784 164.214 518 164.478 518H166.782C167.046 518 167.238 517.784 167.238 517.544V512.888C167.238 511.952 168.006 511.256 168.846 511.256C169.95 511.256 170.454 512.096 170.454 513.056V517.544C170.454 517.784 170.646 518 170.91 518H173.454C173.718 518 173.91 517.784 173.91 517.544V513.2C173.91 510.464 172.446 508.16 169.47 508.16C167.838 508.16 166.71 509.072 166.158 509.624C165.294 508.664 164.358 508.16 163.014 508.16C161.478 508.16 160.374 509.024 159.774 509.648L159.366 508.664C159.294 508.52 159.126 508.4 158.958 508.4H157.854C157.59 508.4 157.398 508.592 157.398 508.856V517.544ZM176.265 517.544C176.265 517.784 176.457 518 176.721 518H179.241C179.481 518 179.697 517.784 179.697 517.544V512.936C179.697 511.952 180.417 511.256 181.377 511.256C182.457 511.256 182.889 512.096 182.889 513.056V517.544C182.889 517.784 183.081 518 183.345 518H185.649C185.913 518 186.105 517.784 186.105 517.544V512.888C186.105 511.952 186.873 511.256 187.713 511.256C188.817 511.256 189.321 512.096 189.321 513.056V517.544C189.321 517.784 189.513 518 189.777 518H192.321C192.585 518 192.777 517.784 192.777 517.544V513.2C192.777 510.464 191.313 508.16 188.337 508.16C186.705 508.16 185.577 509.072 185.025 509.624C184.161 508.664 183.225 508.16 181.881 508.16C180.345 508.16 179.241 509.024 178.641 509.648L178.233 508.664C178.161 508.52 177.993 508.4 177.825 508.4H176.721C176.457 508.4 176.265 508.592 176.265 508.856V517.544ZM194.412 513.2C194.412 515.96 196.572 518.24 199.428 518.24C200.94 518.24 202.14 517.712 202.98 516.872C203.196 516.656 203.148 516.368 203.004 516.176L201.804 514.736C201.66 514.568 201.42 514.568 201.204 514.736C200.82 515.024 200.124 515.312 199.524 515.312C198.276 515.312 197.748 514.376 197.676 513.728H203.436C203.652 513.728 203.868 513.56 203.892 513.32C203.916 513.152 203.94 512.84 203.94 512.672C203.94 510.032 201.828 508.16 199.38 508.16C196.548 508.16 194.412 510.488 194.412 513.2ZM197.988 511.856C198.084 511.232 198.636 510.728 199.284 510.728C199.908 510.728 200.508 511.232 200.556 511.856H197.988ZM210.256 513.2C210.256 515.96 212.416 518.24 215.272 518.24C216.784 518.24 217.984 517.712 218.824 516.872C219.04 516.656 218.992 516.368 218.848 516.176L217.648 514.736C217.504 514.568 217.264 514.568 217.048 514.736C216.664 515.024 215.968 515.312 215.368 515.312C214.12 515.312 213.592 514.376 213.52 513.728H219.28C219.496 513.728 219.712 513.56 219.736 513.32C219.76 513.152 219.784 512.84 219.784 512.672C219.784 510.032 217.672 508.16 215.224 508.16C212.392 508.16 210.256 510.488 210.256 513.2ZM213.832 511.856C213.928 511.232 214.48 510.728 215.128 510.728C215.752 510.728 216.352 511.232 216.4 511.856H213.832ZM221.907 514.904C221.907 517.088 222.963 518.24 224.787 518.24C225.987 518.24 227.691 517.712 227.691 517.712C227.931 517.64 228.051 517.376 228.003 517.16L227.475 515.168C227.403 514.904 227.187 514.808 226.947 514.856C226.707 514.904 226.347 515.024 226.011 515.024C225.723 515.024 225.363 514.976 225.363 514.448V511.448H227.139C227.403 511.448 227.595 511.232 227.595 510.992V508.856C227.595 508.592 227.403 508.4 227.139 508.4H225.363V505.736C225.363 505.496 225.171 505.28 224.931 505.28H222.363C222.123 505.28 221.907 505.496 221.907 505.736V508.4H221.283C221.043 508.4 220.851 508.592 220.851 508.856V510.992C220.851 511.232 221.043 511.448 221.283 511.448H221.907V514.904ZM234.373 513.2C234.373 515.96 236.413 518.24 239.125 518.24C241.237 518.24 242.341 516.728 242.341 516.728L242.629 517.52C242.725 517.784 242.893 518 243.133 518H244.261C244.501 518 244.717 517.784 244.717 517.544V501.656C244.717 501.416 244.501 501.2 244.261 501.2H241.597C241.357 501.2 241.141 501.416 241.141 501.656V508.616C240.853 508.448 239.965 508.16 239.149 508.16C236.581 508.16 234.373 509.816 234.373 513.2ZM237.661 513.176C237.661 512.096 238.501 511.256 239.605 511.256C240.709 511.256 241.525 512.096 241.525 513.176C241.525 514.28 240.709 515.144 239.605 515.144C238.501 515.144 237.661 514.28 237.661 513.176ZM246.584 513.2C246.584 515.96 248.744 518.24 251.6 518.24C253.112 518.24 254.312 517.712 255.152 516.872C255.368 516.656 255.32 516.368 255.176 516.176L253.976 514.736C253.832 514.568 253.592 514.568 253.376 514.736C252.992 515.024 252.296 515.312 251.696 515.312C250.448 515.312 249.92 514.376 249.848 513.728H255.608C255.824 513.728 256.04 513.56 256.064 513.32C256.088 513.152 256.112 512.84 256.112 512.672C256.112 510.032 254 508.16 251.552 508.16C248.72 508.16 246.584 510.488 246.584 513.2ZM250.16 511.856C250.256 511.232 250.808 510.728 251.456 510.728C252.08 510.728 252.68 511.232 252.728 511.856H250.16ZM263.148 517.544C263.148 517.784 263.364 518 263.604 518H266.244C266.484 518 266.7 517.784 266.7 517.544V501.656C266.7 501.416 266.484 501.2 266.244 501.2H263.604C263.364 501.2 263.148 501.416 263.148 501.656V517.544ZM268.64 515.072C268.64 516.968 270.056 518.24 271.952 518.24C273.464 518.24 274.304 517.544 274.856 517.04L275.192 517.688C275.312 517.952 275.48 518 275.624 518H276.68C276.92 518 277.136 517.784 277.136 517.544V512.24C277.136 509.408 276.056 508.16 273.08 508.16C271.784 508.16 270.104 508.448 269.888 508.52C269.672 508.592 269.456 508.76 269.528 509.168L269.744 510.68C269.792 511.04 269.96 511.304 270.32 511.184C270.944 510.992 272.072 510.824 272.72 510.824C273.872 510.824 274.016 511.304 274.016 512.24C274.016 512.24 273.248 511.856 272.168 511.856C269.984 511.856 268.64 513.224 268.64 515.072ZM271.76 514.832C271.76 514.28 272.216 513.824 272.792 513.824C273.368 513.824 273.824 514.28 273.848 514.832C273.848 515.408 273.368 515.888 272.792 515.888C272.216 515.888 271.76 515.408 271.76 514.832ZM137.552 537.2C137.552 540.08 139.976 542.24 142.712 542.24C144.44 542.24 145.688 541.568 146.576 540.224C146.744 539.984 146.624 539.744 146.408 539.552L144.968 538.304C144.824 538.184 144.608 538.232 144.44 538.4C144.056 538.784 143.648 539.144 142.808 539.144C141.752 539.144 140.936 538.28 140.936 537.2C140.936 536.144 141.8 535.256 142.856 535.256C143.408 535.256 143.912 535.52 144.248 535.88C144.368 536 144.656 536.048 144.776 535.928L146.216 534.56C146.432 534.368 146.504 534.104 146.336 533.888C145.424 532.784 144.248 532.16 142.736 532.16C140 532.16 137.552 534.368 137.552 537.2ZM150.126 529.496C151.182 529.496 152.046 528.656 152.046 527.6C152.046 526.544 151.182 525.68 150.126 525.68C149.07 525.68 148.23 526.544 148.23 527.6C148.23 528.656 149.07 529.496 150.126 529.496ZM148.374 541.544C148.374 541.784 148.59 542 148.83 542H151.47C151.71 542 151.926 541.784 151.926 541.544V532.856C151.926 532.592 151.71 532.4 151.47 532.4H148.83C148.59 532.4 148.374 532.592 148.374 532.856V541.544ZM154.899 538.904C154.899 541.088 155.955 542.24 157.779 542.24C158.979 542.24 160.683 541.712 160.683 541.712C160.923 541.64 161.043 541.376 160.995 541.16L160.467 539.168C160.395 538.904 160.179 538.808 159.939 538.856C159.699 538.904 159.339 539.024 159.003 539.024C158.715 539.024 158.355 538.976 158.355 538.448V535.448H160.131C160.395 535.448 160.587 535.232 160.587 534.992V532.856C160.587 532.592 160.395 532.4 160.131 532.4H158.355V529.736C158.355 529.496 158.163 529.28 157.923 529.28H155.355C155.115 529.28 154.899 529.496 154.899 529.736V532.4H154.275C154.035 532.4 153.843 532.592 153.843 532.856V534.992C153.843 535.232 154.035 535.448 154.275 535.448H154.899V538.904ZM162.021 537.176C162.021 539.936 164.277 542.24 167.013 542.24C169.749 542.24 172.005 539.936 172.005 537.176C172.005 534.464 169.749 532.16 167.013 532.16C164.277 532.16 162.021 534.464 162.021 537.176ZM165.117 537.176C165.117 536.12 165.957 535.256 167.013 535.256C168.069 535.256 168.909 536.12 168.909 537.176C168.909 538.256 168.069 539.144 167.013 539.144C165.957 539.144 165.117 538.256 165.117 537.176ZM176.299 541.016L172.723 548.552C172.555 548.888 172.771 549.2 173.131 549.2H175.819C176.011 549.2 176.155 549.056 176.227 548.912L183.571 533.024C183.739 532.712 183.523 532.4 183.163 532.4H180.451C180.259 532.4 180.091 532.52 180.043 532.664L178.147 537.128H178.099L176.251 532.664C176.179 532.52 176.035 532.4 175.843 532.4H173.107C172.747 532.4 172.555 532.712 172.699 533.024L176.299 541.016ZM184.287 537.2C184.287 539.96 186.447 542.24 189.303 542.24C190.815 542.24 192.015 541.712 192.855 540.872C193.071 540.656 193.023 540.368 192.879 540.176L191.679 538.736C191.535 538.568 191.295 538.568 191.079 538.736C190.695 539.024 189.999 539.312 189.399 539.312C188.151 539.312 187.623 538.376 187.551 537.728H193.311C193.527 537.728 193.743 537.56 193.767 537.32C193.791 537.152 193.815 536.84 193.815 536.672C193.815 534.032 191.703 532.16 189.255 532.16C186.423 532.16 184.287 534.488 184.287 537.2ZM187.863 535.856C187.959 535.232 188.511 534.728 189.159 534.728C189.783 534.728 190.383 535.232 190.431 535.856H187.863ZM195.554 541.544C195.554 541.784 195.77 542 196.01 542H198.53C198.866 542 198.962 541.76 198.962 541.544V536.936C198.962 535.952 199.826 535.256 200.786 535.256C201.866 535.256 202.418 536.096 202.418 537.056V541.544C202.418 541.784 202.61 542 202.874 542H205.442C205.682 542 205.898 541.784 205.898 541.544V537.176C205.898 534.44 204.314 532.16 201.338 532.16C199.586 532.16 198.482 533.072 197.954 533.648L197.57 532.688C197.498 532.52 197.282 532.4 197.138 532.4H196.01C195.77 532.4 195.554 532.592 195.554 532.856V541.544ZM208.234 541.544C208.234 541.784 208.45 542 208.69 542H211.21C211.546 542 211.642 541.76 211.642 541.544V536.936C211.642 535.952 212.506 535.256 213.466 535.256C214.546 535.256 215.098 536.096 215.098 537.056V541.544C215.098 541.784 215.29 542 215.554 542H218.122C218.362 542 218.578 541.784 218.578 541.544V537.176C218.578 534.44 216.994 532.16 214.018 532.16C212.266 532.16 211.162 533.072 210.634 533.648L210.25 532.688C210.178 532.52 209.962 532.4 209.818 532.4H208.69C208.45 532.4 208.234 532.592 208.234 532.856V541.544ZM220.193 537.2C220.193 539.96 222.353 542.24 225.209 542.24C226.721 542.24 227.921 541.712 228.761 540.872C228.977 540.656 228.929 540.368 228.785 540.176L227.585 538.736C227.441 538.568 227.201 538.568 226.985 538.736C226.601 539.024 225.905 539.312 225.305 539.312C224.057 539.312 223.529 538.376 223.457 537.728H229.217C229.433 537.728 229.649 537.56 229.673 537.32C229.697 537.152 229.721 536.84 229.721 536.672C229.721 534.032 227.609 532.16 225.161 532.16C222.329 532.16 220.193 534.488 220.193 537.2ZM223.769 535.856C223.865 535.232 224.417 534.728 225.065 534.728C225.689 534.728 226.289 535.232 226.337 535.856H223.769Z" fill="black"/>
</svg>
