<svg width="32" height="32" viewBox="0 0 32 32" fill="none" xmlns="http://www.w3.org/2000/svg">
<path  clip-rule="evenodd" d="M9.97404 0.414441C11.6101 0.339125 12.1317 0.322388 16.2992 0.322388C20.4667 0.322388 20.9883 0.340519 22.623 0.414441C24.2576 0.488362 25.3734 0.749179 26.3497 1.12715C27.3721 1.5135 28.2996 2.11742 29.0667 2.89848C29.8477 3.66419 30.4503 4.5903 30.8352 5.61404C31.2146 6.59036 31.474 7.70616 31.5493 9.33801C31.6246 10.9768 31.6414 11.4985 31.6414 15.6646C31.6414 19.8321 31.6232 20.3537 31.5493 21.9897C31.4754 23.6216 31.2146 24.7374 30.8352 25.7137C30.4503 26.7376 29.8467 27.6652 29.0667 28.432C28.2996 29.2131 27.3721 29.8156 26.3497 30.2006C25.3734 30.5799 24.2576 30.8394 22.6258 30.9147C20.9883 30.99 20.4667 31.0067 16.2992 31.0067C12.1317 31.0067 11.6101 30.9886 9.97404 30.9147C8.3422 30.8408 7.2264 30.5799 6.25008 30.2006C5.22623 29.8156 4.29858 29.2121 3.53173 28.432C2.7512 27.6659 2.14719 26.7387 1.7618 25.7151C1.38382 24.7388 1.1244 23.623 1.04908 21.9911C0.973768 20.3523 0.957031 19.8307 0.957031 15.6646C0.957031 11.4971 0.975163 10.9754 1.04908 9.3408C1.12301 7.70616 1.38382 6.59036 1.7618 5.61404C2.14776 4.59042 2.75223 3.66323 3.53312 2.89708C4.29889 2.11673 5.2256 1.51272 6.24869 1.12715C7.22501 0.749179 8.3408 0.489757 9.97265 0.414441H9.97404ZM22.4988 3.17603C20.8809 3.10211 20.3956 3.08677 16.2992 3.08677C12.2028 3.08677 11.7175 3.10211 10.0996 3.17603C8.60301 3.24437 7.79127 3.49403 7.25011 3.70464C6.53461 3.98359 6.02274 4.31414 5.48576 4.85112C4.97674 5.34632 4.58501 5.94917 4.33928 6.61547C4.12868 7.15663 3.87902 7.96837 3.81068 9.46493C3.73675 11.0828 3.72141 11.5682 3.72141 15.6646C3.72141 19.7609 3.73675 20.2463 3.81068 21.8642C3.87902 23.3608 4.12868 24.1725 4.33928 24.7137C4.58476 25.3789 4.97668 25.9829 5.48576 26.478C5.9809 26.9871 6.58482 27.379 7.25011 27.6245C7.79127 27.8351 8.60301 28.0847 10.0996 28.1531C11.7175 28.227 12.2014 28.2424 16.2992 28.2424C20.397 28.2424 20.8809 28.227 22.4988 28.1531C23.9954 28.0847 24.8071 27.8351 25.3483 27.6245C26.0638 27.3455 26.5757 27.015 27.1126 26.478C27.6217 25.9829 28.0137 25.3789 28.2591 24.7137C28.4697 24.1725 28.7194 23.3608 28.7877 21.8642C28.8617 20.2463 28.877 19.7609 28.877 15.6646C28.877 11.5682 28.8617 11.0828 28.7877 9.46493C28.7194 7.96837 28.4697 7.15663 28.2591 6.61547C27.9802 5.89996 27.6496 5.38809 27.1126 4.85112C26.6174 4.34214 26.0146 3.95041 25.3483 3.70464C24.8071 3.49403 23.9954 3.24437 22.4988 3.17603ZM14.3396 20.3941C15.434 20.8497 16.6526 20.9112 17.7873 20.5681C18.922 20.225 19.9024 19.4986 20.561 18.513C21.2196 17.5273 21.5156 16.3436 21.3984 15.164C21.2813 13.9844 20.7582 12.882 19.9186 12.0452C19.3833 11.5103 18.7361 11.1007 18.0236 10.8459C17.311 10.5912 16.5509 10.4975 15.7978 10.5718C15.0447 10.6461 14.3175 10.8864 13.6684 11.2755C13.0194 11.6646 12.4647 12.1927 12.0443 12.8219C11.6238 13.451 11.3481 14.1656 11.237 14.9141C11.1259 15.6627 11.1821 16.4265 11.4016 17.1507C11.6211 17.8749 11.9985 18.5414 12.5065 19.1022C13.0145 19.6631 13.6406 20.1043 14.3396 20.3941ZM10.723 10.0884C11.4553 9.3561 12.3246 8.77523 13.2814 8.37893C14.2382 7.98262 15.2636 7.77865 16.2992 7.77865C17.3348 7.77865 18.3602 7.98262 19.317 8.37893C20.2738 8.77523 21.1431 9.3561 21.8754 10.0884C22.6077 10.8207 23.1885 11.69 23.5848 12.6468C23.9811 13.6035 24.1851 14.629 24.1851 15.6646C24.1851 16.7002 23.9811 17.7256 23.5848 18.6824C23.1885 19.6391 22.6077 20.5085 21.8754 21.2407C20.3965 22.7196 18.3907 23.5505 16.2992 23.5505C14.2077 23.5505 12.2019 22.7196 10.723 21.2407C9.24413 19.7618 8.41329 17.756 8.41329 15.6646C8.41329 13.5731 9.24413 11.5673 10.723 10.0884ZM25.9341 8.95306C26.1156 8.78188 26.2608 8.57603 26.3613 8.3477C26.4618 8.11937 26.5154 7.8732 26.5191 7.62377C26.5227 7.37434 26.4763 7.12671 26.3825 6.89555C26.2887 6.66439 26.1495 6.45439 25.9731 6.27799C25.7967 6.1016 25.5867 5.96239 25.3555 5.86861C25.1244 5.77483 24.8767 5.72838 24.6273 5.73201C24.3779 5.73565 24.1317 5.7893 23.9034 5.88978C23.6751 5.99026 23.4692 6.13553 23.298 6.31699C22.9651 6.6699 22.7829 7.13867 22.7899 7.62377C22.797 8.10887 22.9928 8.57212 23.3359 8.91518C23.679 9.25824 24.1422 9.45409 24.6273 9.46116C25.1124 9.46823 25.5812 9.28597 25.9341 8.95306Z" fill="white"/>
</svg>
