<svg width="87" height="56" viewBox="0 0 87 56" fill="none" xmlns="http://www.w3.org/2000/svg">
<path d="M32.3497 19.083C32.5697 17.917 32.7677 16.905 32.9437 16.047C33.1197 15.167 33.2737 14.353 33.4057 13.605C33.5377 12.857 33.6587 12.12 33.7687 11.394C33.9007 10.646 34.0327 9.821 34.1647 8.919C34.3187 7.995 34.4837 6.95 34.6597 5.784C34.8577 4.596 35.0887 3.177 35.3527 1.527C35.4187 1.109 35.5287 0.844998 35.6827 0.734999C35.8367 0.602999 36.2217 0.536999 36.8377 0.536999C37.0797 0.536999 37.4427 0.558999 37.9267 0.602998C38.4107 0.624999 38.8947 0.723999 39.3787 0.899998C39.8627 1.054 40.2807 1.307 40.6327 1.659C41.0067 1.989 41.1937 2.462 41.1937 3.078C41.1937 3.43 41.1277 3.98 40.9957 4.728C40.8637 5.454 40.6767 6.301 40.4347 7.269C40.2147 8.215 39.9507 9.249 39.6427 10.371C39.3567 11.493 39.0597 12.626 38.7517 13.77C38.4437 14.914 38.1247 16.025 37.7947 17.103C37.4867 18.181 37.1897 19.16 36.9037 20.04C36.6397 20.898 36.3977 21.624 36.1777 22.218C35.9577 22.812 35.8037 23.197 35.7157 23.373C35.5837 23.615 35.3967 23.78 35.1547 23.868C34.9127 23.956 34.6707 24 34.4287 24H31.2937C30.7217 24 30.2377 23.89 29.8417 23.67C29.4677 23.45 29.1487 23.164 28.8847 22.812C28.6427 22.46 28.4447 22.064 28.2907 21.624C28.1587 21.184 28.0707 20.733 28.0267 20.271L26.3767 5.454C26.2447 6.422 26.0907 7.511 25.9147 8.721C25.7607 9.931 25.5847 11.163 25.3867 12.417C25.2107 13.671 25.0347 14.903 24.8587 16.113C24.6827 17.323 24.5067 18.434 24.3307 19.446C24.1547 20.436 23.9897 21.283 23.8357 21.987C23.6817 22.691 23.5497 23.153 23.4397 23.373C23.3297 23.615 23.1537 23.78 22.9117 23.868C22.6697 23.956 22.4167 24 22.1527 24H19.0177C18.4677 24 18.0057 23.901 17.6317 23.703C17.2797 23.483 16.9827 23.197 16.7407 22.845C16.4987 22.493 16.3007 22.097 16.1467 21.657C15.9927 21.195 15.8607 20.733 15.7507 20.271C14.8487 16.685 14.1117 13.737 13.5397 11.427C12.9897 9.117 12.5497 7.269 12.2197 5.883C11.8897 4.475 11.6587 3.452 11.5267 2.814C11.4167 2.154 11.3617 1.681 11.3617 1.395C11.3617 1.021 11.4717 0.778999 11.6917 0.668999C11.9337 0.559 12.4287 0.504 13.1767 0.504C14.1007 0.504 14.8707 0.569999 15.4867 0.701999C16.1247 0.833999 16.6417 1.043 17.0377 1.329C17.4337 1.593 17.7307 1.956 17.9287 2.418C18.1487 2.858 18.2917 3.397 18.3577 4.035C18.3577 4.123 18.3687 4.255 18.3907 4.431C18.4127 4.585 18.4347 4.849 18.4567 5.223C18.5007 5.597 18.5557 6.114 18.6217 6.774C18.7097 7.412 18.8087 8.27 18.9187 9.348C19.0507 10.426 19.2047 11.768 19.3807 13.374C19.5787 14.958 19.8097 16.861 20.0737 19.083C20.3157 17.741 20.5027 16.663 20.6347 15.849C20.7887 15.013 20.9207 14.287 21.0307 13.671C21.1407 13.033 21.2397 12.428 21.3277 11.856C21.4157 11.262 21.5147 10.536 21.6247 9.678C21.7567 8.798 21.8997 7.698 22.0537 6.378C22.2297 5.058 22.4497 3.342 22.7137 1.23C22.7357 1.076 22.8237 0.954999 22.9777 0.866999C23.1537 0.778999 23.3627 0.712999 23.6047 0.668999C23.8467 0.624999 24.1107 0.602998 24.3967 0.602998C24.7047 0.580999 24.9907 0.569999 25.2547 0.569999C26.1347 0.569999 26.8827 0.624999 27.4987 0.734999C28.1147 0.822999 28.6207 0.987999 29.0167 1.23C29.4347 1.472 29.7647 1.802 30.0067 2.22C30.2487 2.616 30.4467 3.111 30.6007 3.705C30.6667 3.991 30.7437 4.387 30.8317 4.893C30.9197 5.377 31.0187 6.158 31.1287 7.236C31.2607 8.314 31.4147 9.799 31.5907 11.691C31.7887 13.561 32.0417 16.025 32.3497 19.083ZM44.7198 18.126C45.6438 18.126 46.3038 18.357 46.6998 18.819C47.0958 19.259 47.2938 19.886 47.2938 20.7C47.2938 21.03 47.2498 21.415 47.1618 21.855C47.0738 22.273 46.9088 22.669 46.6668 23.043C46.4468 23.395 46.1278 23.703 45.7098 23.967C45.2918 24.209 44.7418 24.33 44.0598 24.33C43.0478 24.33 42.3658 24.077 42.0138 23.571C41.6618 23.043 41.4858 22.394 41.4858 21.624C41.4858 21.184 41.5408 20.755 41.6508 20.337C41.7608 19.919 41.9368 19.545 42.1788 19.215C42.4208 18.885 42.7508 18.621 43.1688 18.423C43.5868 18.225 44.1038 18.126 44.7198 18.126ZM54.157 24C52.925 24 52.045 23.758 51.517 23.274C50.989 22.79 50.725 22.097 50.725 21.195C50.725 20.755 50.758 20.007 50.824 18.951C50.89 17.873 50.978 16.652 51.088 15.288C51.198 13.924 51.308 12.483 51.418 10.965C51.528 9.447 51.638 8.017 51.748 6.675C51.858 5.333 51.946 4.156 52.012 3.144C52.078 2.132 52.111 1.439 52.111 1.065C52.111 0.734999 52.287 0.569999 52.639 0.569999H64.255C64.387 0.569999 64.508 0.602999 64.618 0.668999C64.728 0.734999 64.783 0.855998 64.783 1.032L64.651 2.979C64.607 3.639 64.42 4.178 64.09 4.596C63.782 4.992 63.133 5.19 62.143 5.19H57.589L57.259 9.843H61.945C62.077 9.843 62.198 9.876 62.308 9.942C62.418 10.008 62.473 10.129 62.473 10.305L62.341 12.252C62.297 12.912 62.11 13.451 61.78 13.869C61.472 14.265 60.823 14.463 59.833 14.463H56.962L56.599 19.38H63.859C63.991 19.38 64.112 19.424 64.222 19.512C64.332 19.578 64.387 19.688 64.387 19.842L64.255 21.789C64.211 22.449 64.024 22.988 63.694 23.406C63.386 23.802 62.737 24 61.747 24H54.157ZM69.5342 18.126C70.4582 18.126 71.1182 18.357 71.5142 18.819C71.9102 19.259 72.1082 19.886 72.1082 20.7C72.1082 21.03 72.0642 21.415 71.9762 21.855C71.8882 22.273 71.7232 22.669 71.4812 23.043C71.2612 23.395 70.9422 23.703 70.5242 23.967C70.1062 24.209 69.5562 24.33 68.8742 24.33C67.8622 24.33 67.1802 24.077 66.8282 23.571C66.4762 23.043 66.3002 22.394 66.3002 21.624C66.3002 21.184 66.3552 20.755 66.4652 20.337C66.5752 19.919 66.7512 19.545 66.9932 19.215C67.2352 18.885 67.5652 18.621 67.9832 18.423C68.4012 18.225 68.9182 18.126 69.5342 18.126ZM6.93025 45.463L6.30325 54.505C6.28125 54.681 6.25925 54.813 6.23725 54.901C6.23725 54.967 6.13825 55 5.94025 55H4.12525C2.89325 55 2.01325 54.758 1.48525 54.274C0.957254 53.79 0.693254 53.097 0.693254 52.195C0.693254 51.755 0.726254 51.007 0.792254 49.951C0.858254 48.873 0.946254 47.652 1.05625 46.288C1.16625 44.924 1.27625 43.483 1.38625 41.965C1.49625 40.447 1.60625 39.017 1.71625 37.675C1.82625 36.333 1.91425 35.156 1.98025 34.144C2.04625 33.132 2.07925 32.439 2.07925 32.065C2.07925 31.735 2.25525 31.57 2.60725 31.57H14.2233C14.3553 31.57 14.4763 31.603 14.5863 31.669C14.6963 31.735 14.7513 31.856 14.7513 32.032L14.6193 33.979C14.5753 34.639 14.3883 35.178 14.0583 35.596C13.7503 35.992 13.1013 36.19 12.1113 36.19H7.55725L7.22725 40.843H11.9133C12.0453 40.843 12.1663 40.876 12.2763 40.942C12.3863 41.008 12.4413 41.129 12.4413 41.305L12.3093 43.252C12.2653 43.912 12.0783 44.451 11.7483 44.869C11.4403 45.265 10.7913 45.463 9.80125 45.463H6.93025ZM19.4329 55C18.2009 55 17.3209 54.758 16.7929 54.274C16.2649 53.79 16.0009 53.097 16.0009 52.195C16.0009 51.755 16.0339 51.007 16.0999 49.951C16.1659 48.873 16.2539 47.652 16.3639 46.288C16.4739 44.924 16.5839 43.483 16.6939 41.965C16.8039 40.447 16.9139 39.017 17.0239 37.675C17.1339 36.333 17.2219 35.156 17.2879 34.144C17.3539 33.132 17.3869 32.439 17.3869 32.065C17.3869 31.735 17.5629 31.57 17.9149 31.57H19.7299C21.0719 31.57 21.9739 31.856 22.4359 32.428C22.8979 33 23.1289 33.847 23.1289 34.969C23.1289 35.079 23.1069 35.431 23.0629 36.025C23.0409 36.619 22.9969 37.367 22.9309 38.269C22.8649 39.171 22.7879 40.183 22.6999 41.305C22.6339 42.405 22.5569 43.538 22.4689 44.704C22.4029 45.87 22.3259 47.014 22.2379 48.136C22.1719 49.236 22.1059 50.237 22.0399 51.139C21.9739 52.041 21.9189 52.8 21.8749 53.416C21.8309 54.01 21.7979 54.373 21.7759 54.505C21.7539 54.681 21.7099 54.813 21.6439 54.901C21.5779 54.967 21.4459 55 21.2479 55H19.4329ZM41.0298 55C39.8858 55 39.0608 54.769 38.5548 54.307C38.0708 53.823 37.8068 53.229 37.7628 52.525C37.5208 53.273 37.0038 53.933 36.2118 54.505C35.4418 55.055 34.3198 55.33 32.8458 55.33C31.9878 55.33 31.1518 55.165 30.3378 54.835C29.5238 54.483 28.7978 53.911 28.1598 53.119C27.5218 52.327 27.0048 51.271 26.6088 49.951C26.2348 48.631 26.0478 46.992 26.0478 45.034C26.0478 44.286 26.0918 43.428 26.1798 42.46C26.2678 41.47 26.4438 40.469 26.7078 39.457C26.9938 38.423 27.3898 37.422 27.8958 36.454C28.4238 35.464 29.1058 34.584 29.9418 33.814C30.7998 33.044 31.8448 32.428 33.0768 31.966C34.3088 31.482 35.7828 31.24 37.4988 31.24C38.6208 31.24 39.6218 31.361 40.5018 31.603C41.4038 31.845 42.1628 32.186 42.7788 32.626C43.4168 33.066 43.9008 33.605 44.2308 34.243C44.5828 34.881 44.7588 35.596 44.7588 36.388C44.7588 37.664 44.3408 38.632 43.5048 39.292C42.6688 39.93 41.4918 40.249 39.9738 40.249C39.4898 40.249 39.1928 40.216 39.0828 40.15C38.9948 40.062 38.9398 39.897 38.9178 39.655C38.8738 39.259 38.8408 38.863 38.8188 38.467C38.8188 38.071 38.7638 37.708 38.6538 37.378C38.5658 37.048 38.4008 36.784 38.1588 36.586C37.9168 36.388 37.5318 36.289 37.0038 36.289C35.9258 36.289 35.0678 36.597 34.4298 37.213C33.7918 37.829 33.3078 38.577 32.9778 39.457C32.6478 40.337 32.4388 41.25 32.3508 42.196C32.2628 43.12 32.2188 43.901 32.2188 44.539C32.2188 45.595 32.2848 46.486 32.4168 47.212C32.5488 47.916 32.7358 48.499 32.9778 48.961C33.2418 49.401 33.5498 49.72 33.9018 49.918C34.2538 50.094 34.6608 50.182 35.1228 50.182C35.9588 50.182 36.6628 50.006 37.2348 49.654C37.8068 49.302 38.1478 48.664 38.2578 47.74L38.4558 45.892C38.5218 45.254 38.6098 44.737 38.7198 44.341C38.8298 43.923 39.0938 43.714 39.5118 43.714H41.3268C41.8768 43.714 42.3168 43.78 42.6468 43.912C42.9988 44.022 43.2628 44.22 43.4388 44.506C43.6368 44.77 43.7688 45.122 43.8348 45.562C43.9008 46.002 43.9338 46.541 43.9338 47.179C43.9338 47.619 43.9118 48.202 43.8678 48.928C43.8458 49.654 43.8018 50.391 43.7358 51.139C43.6918 51.887 43.6368 52.58 43.5708 53.218C43.5048 53.834 43.4498 54.263 43.4058 54.505C43.3618 54.703 43.3068 54.835 43.2408 54.901C43.1748 54.967 43.0428 55 42.8448 55H41.0298ZM62.7982 55C61.5662 55 60.6862 54.758 60.1582 54.274C59.6302 53.79 59.3662 53.097 59.3662 52.195C59.3662 51.711 59.4102 50.853 59.4982 49.621C59.5862 48.389 59.6852 47.003 59.7952 45.463H53.9212L53.2612 54.505C53.2392 54.681 53.1952 54.813 53.1292 54.901C53.0632 54.967 52.9312 55 52.7332 55H50.9182C49.6862 55 48.8062 54.758 48.2782 54.274C47.7502 53.79 47.4862 53.097 47.4862 52.195C47.4862 51.755 47.5192 51.007 47.5852 49.951C47.6512 48.873 47.7392 47.652 47.8492 46.288C47.9592 44.924 48.0692 43.483 48.1792 41.965C48.2892 40.447 48.3992 39.017 48.5092 37.675C48.6192 36.333 48.7072 35.156 48.7732 34.144C48.8392 33.132 48.8722 32.439 48.8722 32.065C48.8722 31.735 49.0482 31.57 49.4002 31.57H51.2152C52.5572 31.57 53.4592 31.856 53.9212 32.428C54.3832 33 54.6142 33.847 54.6142 34.969C54.6142 35.145 54.5812 35.772 54.5152 36.85C54.4492 37.906 54.3612 39.182 54.2512 40.678H60.1582C60.2242 39.71 60.2902 38.764 60.3562 37.84C60.4442 36.916 60.5102 36.069 60.5542 35.299C60.6202 34.529 60.6642 33.869 60.6862 33.319C60.7302 32.747 60.7522 32.329 60.7522 32.065C60.7522 31.735 60.9282 31.57 61.2802 31.57H63.0952C64.4372 31.57 65.3392 31.856 65.8012 32.428C66.2632 33 66.4942 33.847 66.4942 34.969C66.4942 35.079 66.4722 35.431 66.4282 36.025C66.4062 36.619 66.3622 37.367 66.2962 38.269C66.2302 39.171 66.1532 40.183 66.0652 41.305C65.9992 42.405 65.9222 43.538 65.8342 44.704C65.7682 45.87 65.6912 47.014 65.6032 48.136C65.5372 49.236 65.4712 50.237 65.4052 51.139C65.3392 52.041 65.2842 52.8 65.2402 53.416C65.1962 54.01 65.1632 54.373 65.1412 54.505C65.1192 54.681 65.0752 54.813 65.0092 54.901C64.9432 54.967 64.8112 55 64.6132 55H62.7982ZM80.4146 36.19L79.1606 54.505C79.1386 54.835 79.0176 55 78.7976 55H76.9826C75.7506 55 74.8706 54.758 74.3426 54.274C73.8146 53.79 73.5506 53.097 73.5506 52.195C73.5506 51.865 73.5616 51.37 73.5836 50.71C73.6276 50.05 73.6826 49.28 73.7486 48.4C73.8146 47.498 73.8806 46.53 73.9466 45.496C74.0346 44.44 74.1226 43.384 74.2106 42.328C74.2986 41.25 74.3756 40.183 74.4416 39.127C74.5296 38.071 74.6066 37.092 74.6726 36.19H69.3926C69.1506 36.19 69.0296 36.036 69.0296 35.728L69.1286 33.88C69.1506 33.594 69.1946 33.319 69.2606 33.055C69.3486 32.769 69.4806 32.516 69.6566 32.296C69.8326 32.076 70.0526 31.9 70.3166 31.768C70.6026 31.636 70.9436 31.57 71.3396 31.57H86.0906C86.2226 31.57 86.3436 31.603 86.4536 31.669C86.5636 31.735 86.6186 31.856 86.6186 32.032L86.4866 33.979C86.4426 34.639 86.2556 35.178 85.9256 35.596C85.6176 35.992 84.9686 36.19 83.9786 36.19H80.4146Z" fill="white"/>
</svg>
