<svg width="100" height="99" viewBox="0 0 100 99" fill="none" xmlns="http://www.w3.org/2000/svg">
<path d="M46.4346 52.3208C46.4346 44.3031 46.4346 36.2766 46.4346 28.2415C46.4495 27.9642 46.4032 27.687 46.2991 27.4303C46.195 27.1736 46.0357 26.9437 45.8329 26.7577C45.2165 26.2656 44.6522 25.7094 44.1493 25.0982C44.0574 24.9621 43.9326 24.8523 43.7868 24.7793C43.6411 24.7064 43.4794 24.6728 43.3172 24.6817C41.7105 24.7728 40.1166 24.3693 38.4843 24.8965C37.6009 25.1893 36.5639 25.0136 35.6357 25.1438C32.3117 25.5126 29.0117 26.0776 25.7522 26.8358C24.3567 27.2003 22.9228 27.402 21.521 27.7664C21.0089 27.9031 20.8296 28.1439 20.8232 28.606C20.8273 28.93 20.7551 29.2503 20.6125 29.5401C20.47 29.83 20.2613 30.0809 20.0039 30.272C19.5878 30.5974 19.6006 30.9228 19.8822 31.3458C22.016 34.6518 24.1497 37.9687 26.2835 41.2964C28.1911 44.277 30.1114 47.2598 32.0446 50.2448C32.3903 50.7784 32.6847 51.3381 33.0304 51.8783C33.4913 52.6137 34.029 53.1799 35.0212 52.9976C35.7253 52.8545 35.9686 53.1669 35.943 53.9088C35.7829 58.1649 34.4963 61.8875 31.4621 64.9722C29.0981 67.2907 26.1854 68.9494 23.0061 69.7881C20.6888 70.4389 18.3267 70.3803 15.9647 70.2632C13.2524 70.0729 10.6216 69.2393 8.2832 67.8292C6.20311 66.6538 4.39731 65.0355 2.98938 63.0849C1.70167 61.2437 0.759801 59.1763 0.211242 56.987C-0.0960174 55.8676 0.0576111 54.6116 0 53.4207C0 53.1408 0.115223 52.9651 0.390476 53.0042C1.98438 53.2515 2.47728 52.0019 3.111 50.9477C4.116 49.2556 5.24261 47.6221 6.08118 45.8454C6.91974 44.0688 8.264 42.4158 8.92973 40.4634C9.20498 39.6629 9.8387 39.0967 10.2548 38.3678C11.535 36.1031 12.9113 33.8839 14.1275 31.5801C14.2642 31.378 14.333 31.1364 14.3238 30.8914C14.3146 30.6463 14.2278 30.4108 14.0763 30.2199C13.6866 29.713 13.4496 29.1021 13.3939 28.4612C13.3383 27.8202 13.4663 27.1766 13.7627 26.608C14.051 26.041 14.5066 25.5799 15.0656 25.2893C15.6247 24.9987 16.2591 24.8932 16.8801 24.9876C19.2933 25.3585 21.3609 24.2847 23.531 23.5949C25.0544 23.1068 26.5907 22.6708 28.1398 22.2933C30.9692 21.6425 33.7921 20.8746 36.6599 20.4125C38.616 20.0269 40.6016 19.8157 42.5938 19.7812C42.8535 19.8222 43.1191 19.7757 43.3503 19.6488C43.5814 19.5219 43.7654 19.3215 43.8741 19.0784C44.4353 18.231 45.1345 17.4871 45.9417 16.8787C46.1214 16.7214 46.2604 16.5217 46.3464 16.297C46.4323 16.0723 46.4626 15.8295 46.4346 15.5901C46.4346 13.9371 46.4346 12.2776 46.4346 10.6246C46.4563 10.3893 46.4216 10.1521 46.3335 9.93342C46.2455 9.7147 46.1066 9.5209 45.9289 9.36857C44.1045 7.85873 43.7845 5.7827 44.2454 3.67414C44.5197 2.62061 45.1295 1.6891 45.9795 1.02507C46.8295 0.361043 47.8719 0.00188342 48.9439 0.00367491C49.424 0.00367491 49.9041 0.00367491 50.3778 0.00367491C51.0195 -0.0217401 51.6596 0.0848745 52.2598 0.317125C52.86 0.549375 53.4079 0.902475 53.8705 1.35525C54.3332 1.80802 54.7012 2.35113 54.9524 2.95202C55.2036 3.5529 55.3328 4.19917 55.3323 4.85207C55.3323 6.49858 55.1275 7.9954 53.796 9.12127C53.5016 9.36857 53.5336 9.77206 53.5336 10.117C53.5336 11.9717 53.5336 13.82 53.5336 15.6747C53.496 15.9411 53.5552 16.2123 53.7001 16.4376C53.845 16.6628 54.0658 16.8265 54.3209 16.8982C55.2634 17.2813 56.04 17.9946 56.5101 18.9092C56.6421 19.1385 56.8283 19.3306 57.0519 19.4681C57.2755 19.6057 57.5294 19.6842 57.7904 19.6966C60.5421 19.8411 63.2757 20.2353 65.9584 20.8746C68.6932 21.4942 71.3887 22.2809 74.0303 23.2304C75.8291 23.8812 77.5638 24.6882 79.2985 25.4822C79.7658 25.6969 80.0859 25.3911 80.47 25.339C81.9423 25.1568 83.3889 25.0526 84.5732 26.2045C85.6294 27.2393 85.7254 29.4195 84.65 30.4087C83.9138 31.0595 84.0483 31.6256 84.4836 32.3025C86.4039 35.3221 88.3243 38.3483 90.2959 41.368C91.9666 43.9712 93.6565 46.5418 95.3273 49.1384C95.929 50.0756 96.4859 51.0388 97.094 51.9694C97.7021 52.9 98.2014 53.6549 99.4176 53.4207C99.7377 53.3556 99.9233 53.4792 99.949 53.8892C100.167 56.4116 99.6854 58.9455 98.5599 61.2041C97.1197 64.028 94.9312 66.3859 92.2418 68.0114C89.1015 69.8982 85.4986 70.8394 81.8526 70.7252C77.7118 70.7715 73.6768 69.3957 70.4008 66.8205C67.0018 64.1067 64.8765 60.7356 64.4093 56.3297C64.358 55.8546 64.3325 55.373 64.2748 54.898C64.1404 53.8502 64.3389 53.2189 65.5551 53.4337C66.0864 53.5248 66.3104 53.0172 66.5281 52.6397C68.8389 48.5657 71.0794 44.5113 73.4286 40.4634C75.0929 37.6129 76.7765 34.7755 78.3448 31.8664C78.8889 30.8642 78.3448 29.0095 77.2694 28.6645C75.349 28.0137 73.3838 27.5061 71.425 27.005C70.2216 26.6926 68.9862 26.543 67.7827 26.2436C66.2976 25.8726 64.7485 25.8792 63.3018 25.5017C61.4455 25.0136 59.5187 25.2804 57.6944 24.6817C57.4987 24.6193 57.2894 24.6169 57.0924 24.6748C56.8955 24.7327 56.7197 24.8482 56.587 25.0071C55.7804 25.762 55.0891 26.6796 53.956 27.0115C53.8231 27.0716 53.7117 27.172 53.6372 27.2991C53.5627 27.4261 53.5287 27.5734 53.54 27.7209V28.3717C53.54 44.4245 53.54 60.4774 53.54 76.5303C53.54 77.4869 53.7576 77.8319 54.7562 77.8319C57.6816 77.7863 58.821 78.9122 58.9426 81.8798C58.9426 82.4329 59.1795 82.485 59.6275 82.4915C61.5067 82.4188 63.3886 82.4732 65.2606 82.6542C65.8267 82.7096 66.361 82.9461 66.7866 83.3296C67.2121 83.7132 67.5071 84.2241 67.6291 84.7888C67.7763 85.5633 68.09 85.8496 68.9093 85.778C69.8247 85.6999 70.7593 85.778 71.6811 85.778C73.1214 85.739 75.0929 87.6914 74.9713 89.2533C74.8177 91.2967 74.9713 93.3663 74.9265 95.4228C74.8881 97.7331 73.3838 99.0932 71.1434 98.9175C70.9577 98.9175 70.7657 98.9175 70.5737 98.9175H32.3839C31.5581 98.9175 30.7259 99.2234 29.913 98.6572C28.9528 98.0064 28.2423 97.2319 28.2551 95.9499C28.2551 93.6135 28.3255 91.2707 28.2551 88.9344C28.2802 88.1448 28.5926 87.3929 29.1319 86.8242C29.6712 86.2555 30.3989 85.9105 31.174 85.8561C32.7295 85.8561 33.7985 85.5633 34.5155 83.9688C35.1556 82.5501 36.6855 82.5957 38.0042 82.511C38.9934 82.4525 39.9851 82.4525 40.9743 82.511C41.6145 82.5436 41.7361 82.3223 41.7105 81.7431C41.6721 80.8125 41.6209 79.8819 42.2674 79.0684C42.6067 78.6385 43.0441 78.2993 43.5417 78.0804C44.0392 77.8615 44.5818 77.7695 45.1223 77.8123C46.3642 77.8123 46.4666 77.7017 46.4666 76.4196L46.4346 52.3208ZM51.2995 23.4257C53.1751 22.1241 53.1367 20.4385 51.2035 19.0328C50.1281 18.2519 49.1871 18.382 48.1565 19.3517C47.1259 20.3214 46.8315 21.5123 47.6252 22.5731C47.4396 22.7358 47.4844 22.8855 47.6252 23.0677C48.0314 23.5695 48.5889 23.9211 49.2115 24.0682C49.834 24.2152 50.4869 24.1495 51.0691 23.8812C51.1538 23.8515 51.2251 23.7917 51.2698 23.7127C51.3145 23.6338 51.3296 23.5411 51.3123 23.4517L51.2995 23.4257ZM4.31444 53.0107C4.40405 53.5183 4.80093 53.2449 5.02497 53.2449C13.4618 53.2449 21.9008 53.2449 30.3419 53.2449C30.6811 53.2449 31.0524 53.3686 31.3405 53.0627C31.0204 51.9889 30.1818 51.247 29.6569 50.3099C28.1398 47.5896 26.3411 45.058 24.7024 42.4223C22.8396 39.4482 20.9256 36.5001 19.0373 33.539C18.6481 32.9156 18.2205 32.3178 17.757 31.7493C17.2705 31.1831 16.4768 31.1896 16.2335 31.7493C15.5934 33.2331 14.6268 34.5477 13.8395 35.9599C11.8679 39.5718 9.78109 43.1642 7.7455 46.7631C6.57407 48.8326 5.23621 50.8045 4.31444 53.0107ZM95.5193 53.4207C94.9235 52.193 94.2254 51.0194 93.4325 49.9129C91.5505 46.9062 89.5917 43.9451 87.6714 40.958C85.879 38.1466 84.1123 35.3091 82.3071 32.4977C81.5838 31.3783 80.8732 31.3718 80.2395 32.4977C78.7288 35.1399 77.1669 37.7561 75.6883 40.4113C73.4606 44.4072 71.1434 48.351 68.8709 52.3143C68.6981 52.6072 68.4164 53.0042 68.4997 53.2384C68.6277 53.6289 69.1398 53.4207 69.447 53.4207C77.5169 53.4207 85.5931 53.4207 93.6757 53.4207H95.5193Z" fill="#4A235A"/>
</svg>
