<svg width="96" height="93" viewBox="0 0 96 93" fill="none" xmlns="http://www.w3.org/2000/svg">
<path d="M44.5772 49.1499C44.5772 41.618 44.5772 34.0781 44.5772 26.5299C44.5915 26.2694 44.5471 26.009 44.4471 25.7679C44.3472 25.5267 44.1942 25.3108 43.9995 25.136C43.4078 24.6737 42.8661 24.1512 42.3834 23.5771C42.2951 23.4492 42.1752 23.3461 42.0353 23.2776C41.8954 23.209 41.7402 23.1775 41.5845 23.1858C40.042 23.2714 38.5119 22.8924 36.9449 23.3876C36.0968 23.6627 35.1013 23.4976 34.2103 23.6199C31.0192 23.9664 27.8512 24.4972 24.7221 25.2094C23.3824 25.5518 22.0059 25.7413 20.6601 26.0836C20.1685 26.212 19.9964 26.4382 19.9903 26.8723C19.9942 27.1767 19.9249 27.4776 19.788 27.7498C19.6512 28.0221 19.4508 28.2578 19.2037 28.4373C18.8043 28.743 18.8166 29.0487 19.0869 29.4461C21.1353 32.5517 23.1837 35.6676 25.2321 38.7936C27.0634 41.5936 28.9069 44.3956 30.7628 47.1997C31.0946 47.701 31.3773 48.2267 31.7092 48.7341C32.1516 49.425 32.6678 49.9568 33.6203 49.7857C34.2963 49.6512 34.5298 49.9446 34.5052 50.6416C34.3516 54.6398 33.1164 58.1367 30.2036 61.0345C27.9341 63.2124 25.138 64.7707 22.0858 65.5585C19.8612 66.1698 17.5937 66.1148 15.3261 66.0048C12.7222 65.8261 10.1967 65.043 7.95186 63.7183C5.95497 62.6142 4.2214 61.094 2.86979 59.2616C1.63358 57.5319 0.729392 55.5899 0.202776 53.5332C-0.0921934 52.4817 0.05529 51.3018 -1.67261e-05 50.183C-1.67261e-05 49.9202 0.110597 49.7551 0.37484 49.7918C1.90499 50.0241 2.37817 48.8503 2.98655 47.8599C3.95134 46.2704 5.03289 44.7359 5.83791 43.0669C6.64293 41.3979 7.93342 39.8451 8.57252 38.0111C8.83677 37.2591 9.44514 36.7272 9.84458 36.0425C11.0736 33.915 12.3948 31.8303 13.5624 29.6661C13.6936 29.4763 13.7597 29.2494 13.7508 29.0192C13.742 28.789 13.6586 28.5677 13.5133 28.3884C13.1391 27.9122 12.9116 27.3383 12.8582 26.7362C12.8047 26.1341 12.9277 25.5295 13.2121 24.9954C13.4889 24.4628 13.9263 24.0296 14.463 23.7566C14.9997 23.4836 15.6087 23.3845 16.2048 23.4732C18.5216 23.8216 20.5065 22.8129 22.5897 22.1649C24.0523 21.7064 25.5271 21.2968 27.0142 20.9422C29.7304 20.3308 32.4404 19.6094 35.1935 19.1754C37.0714 18.8131 38.9775 18.6147 40.8901 18.5824C41.1393 18.6209 41.3943 18.5772 41.6162 18.458C41.8382 18.3387 42.0148 18.1505 42.1191 17.9221C42.6579 17.1261 43.3291 16.4273 44.104 15.8558C44.2766 15.708 44.41 15.5204 44.4925 15.3093C44.575 15.0982 44.6041 14.8702 44.5772 14.6453C44.5772 13.0925 44.5772 11.5335 44.5772 9.98068C44.598 9.75963 44.5647 9.53686 44.4802 9.3314C44.3956 9.12593 44.2623 8.94387 44.0917 8.80078C42.3403 7.38244 42.0331 5.43224 42.4755 3.45147C42.7389 2.46178 43.3243 1.58673 44.1403 0.962945C44.9563 0.339163 45.957 0.00176985 46.9861 0.00345277C47.447 0.00345277 47.9079 0.00345277 48.3626 0.00345277C48.9787 -0.0204219 49.5932 0.0797312 50.1694 0.297906C50.7456 0.51608 51.2715 0.84778 51.7157 1.27311C52.1599 1.69844 52.5131 2.20864 52.7543 2.77311C52.9954 3.33758 53.1195 3.94468 53.119 4.55801C53.119 6.10472 52.9223 7.51083 51.6441 8.56846C51.3615 8.80078 51.3922 9.17982 51.3922 9.50383C51.3922 11.2462 51.3922 12.9824 51.3922 14.7248C51.3561 14.975 51.413 15.2298 51.5521 15.4413C51.6912 15.6529 51.9031 15.8068 52.1481 15.8741C53.0529 16.2339 53.7984 16.904 54.2497 17.7632C54.3764 17.9786 54.5552 18.1591 54.7698 18.2883C54.9845 18.4174 55.2282 18.4912 55.4787 18.5029C58.1204 18.6386 60.7446 19.0089 63.32 19.6094C65.9454 20.1915 68.5331 20.9305 71.0691 21.8225C72.7959 22.4339 74.4612 23.1919 76.1266 23.9378C76.5752 24.1395 76.8824 23.8522 77.2512 23.8033C78.6645 23.6321 80.0534 23.5343 81.1902 24.6164C82.2042 25.5884 82.2963 27.6365 81.264 28.5657C80.5573 29.1771 80.6863 29.7089 81.1042 30.3447C82.9477 33.1814 84.7913 36.0242 86.684 38.8608C88.2879 41.3062 89.9103 43.7211 91.5141 46.1604C92.0918 47.0407 92.6264 47.9455 93.2102 48.8197C93.794 49.694 94.2733 50.4031 95.4409 50.183C95.7482 50.1219 95.9264 50.2381 95.951 50.6232C96.1599 52.9927 95.698 55.373 94.6175 57.4948C93.2348 60.1475 91.1339 62.3625 88.5522 63.8895C85.5375 65.662 82.0787 66.5461 78.5785 66.4388C74.6033 66.4824 70.7297 65.1899 67.5848 62.7707C64.3217 60.2214 62.2815 57.0546 61.8329 52.9158C61.7837 52.4695 61.7591 52.0171 61.7038 51.5708C61.5748 50.5865 61.7653 49.9935 62.9329 50.1953C63.4429 50.2809 63.658 49.804 63.8669 49.4494C66.0853 45.6224 68.2362 41.8137 70.4914 38.0111C72.0892 35.3334 73.7054 32.6679 75.211 29.9351C75.7333 28.9937 75.211 27.2513 74.1786 26.9273C72.335 26.3159 70.4484 25.8391 68.568 25.3684C67.4127 25.0749 66.2267 24.9343 65.0714 24.6531C63.6457 24.3046 62.1586 24.3107 60.7698 23.9561C58.9877 23.4976 57.1379 23.7483 55.3866 23.1858C55.1988 23.1272 54.9978 23.125 54.8087 23.1794C54.6197 23.2337 54.4509 23.3423 54.3235 23.4915C53.5492 24.2007 52.8855 25.0627 51.7978 25.3745C51.6702 25.4309 51.5633 25.5252 51.4917 25.6446C51.4202 25.7639 51.3876 25.9023 51.3983 26.0408V26.6522C51.3983 41.7322 51.3983 56.8121 51.3983 71.8921C51.3983 72.7908 51.6073 73.1148 52.5659 73.1148C55.3743 73.072 56.4681 74.1296 56.5849 76.9174C56.5849 77.437 56.8123 77.4859 57.2424 77.492C59.0464 77.4237 60.853 77.4748 62.6502 77.6449C63.1937 77.6969 63.7065 77.919 64.1151 78.2794C64.5236 78.6397 64.8068 79.1196 64.9239 79.6501C65.0652 80.3776 65.3664 80.6466 66.1529 80.5794C67.0317 80.506 67.9289 80.5794 68.8138 80.5794C70.1965 80.5427 72.0892 82.3767 71.9724 83.844C71.825 85.7636 71.9724 87.7077 71.9294 89.6396C71.8925 91.8099 70.4484 93.0876 68.2976 92.9225C68.1194 92.9225 67.9351 92.9225 67.7507 92.9225H31.0885C30.2958 92.9225 29.4969 93.2098 28.7165 92.678C27.7947 92.0666 27.1126 91.3391 27.1248 90.1348C27.1248 87.94 27.1924 85.7391 27.1248 83.5444C27.149 82.8027 27.4489 82.0963 27.9666 81.5621C28.4843 81.0279 29.1829 80.7038 29.9271 80.6527C31.4203 80.6527 32.4466 80.3776 33.1348 78.8798C33.7494 77.5471 35.2181 77.5899 36.484 77.5104C37.4336 77.4554 38.3857 77.4554 39.3353 77.5104C39.9499 77.5409 40.0666 77.3331 40.042 76.789C40.0052 75.9148 39.956 75.0405 40.5767 74.2763C40.9024 73.8725 41.3223 73.5539 41.8 73.3483C42.2776 73.1426 42.7985 73.0562 43.3174 73.0964C44.5096 73.0964 44.6079 72.9925 44.6079 71.7881L44.5772 49.1499ZM49.2475 22.0059C51.0481 20.7832 51.0112 19.1998 49.1553 17.8793C48.123 17.1457 47.2196 17.268 46.2302 18.1789C45.2409 19.0898 44.9582 20.2086 45.7202 21.2051C45.542 21.3579 45.585 21.4985 45.7202 21.6697C46.1101 22.141 46.6453 22.4713 47.243 22.6095C47.8407 22.7476 48.4674 22.6859 49.0263 22.4339C49.1076 22.406 49.176 22.3498 49.2189 22.2756C49.2619 22.2014 49.2764 22.1144 49.2598 22.0304L49.2475 22.0059ZM4.14184 49.7979C4.22787 50.2747 4.60888 50.018 4.82396 50.018C12.9233 50.018 21.0247 50.018 29.1282 50.018C29.4539 50.018 29.8103 50.1341 30.0868 49.8468C29.7796 48.8381 28.9746 48.1411 28.4706 47.2608C27.0142 44.7054 25.2874 42.3272 23.7143 39.8512C21.926 37.0574 20.0886 34.2879 18.2758 31.5063C17.9021 30.9207 17.4916 30.3592 17.0467 29.8251C16.5797 29.2932 15.8177 29.2993 15.5842 29.8251C14.9697 31.219 14.0417 32.4539 13.2859 33.7805C11.3932 37.1735 9.38983 40.5482 7.43566 43.9289C6.31109 45.873 5.02675 47.7254 4.14184 49.7979ZM91.6985 50.183C91.1266 49.0297 90.4563 47.9273 89.6952 46.8879C87.8885 44.0634 86.008 41.2818 84.1645 38.4757C82.4438 35.8347 80.7478 33.1692 79.0148 30.5281C78.3204 29.4766 77.6383 29.4705 77.0299 30.5281C75.5797 33.0102 74.0802 35.4679 72.6607 37.9622C70.5222 41.7158 68.2976 45.4206 66.1161 49.1437C65.9501 49.4189 65.6798 49.7918 65.7597 50.0119C65.8826 50.3787 66.3742 50.183 66.6691 50.183C74.4162 50.183 82.1693 50.183 89.9287 50.183H91.6985Z" fill="white"/>
</svg>
