<svg width="69" height="67" viewBox="0 0 69 67" fill="none" xmlns="http://www.w3.org/2000/svg">
<path d="M32.0399 35.409C32.0399 29.9829 32.0399 24.5509 32.0399 19.113C32.0502 18.9253 32.0182 18.7377 31.9464 18.5639C31.8745 18.3902 31.7646 18.2347 31.6247 18.1088C31.1994 17.7757 30.81 17.3993 30.463 16.9857C30.3996 16.8935 30.3134 16.8192 30.2129 16.7698C30.1123 16.7205 30.0008 16.6977 29.8888 16.7038C28.7802 16.7654 27.6804 16.4924 26.5541 16.8491C25.9446 17.0473 25.2291 16.9284 24.5886 17.0165C22.2951 17.2661 20.018 17.6485 17.769 18.1616C16.8061 18.4083 15.8167 18.5448 14.8495 18.7914C14.4961 18.8839 14.3724 19.0469 14.368 19.3596C14.3708 19.5789 14.321 19.7957 14.2226 19.9918C14.1243 20.188 13.9803 20.3578 13.8027 20.4871C13.5156 20.7073 13.5244 20.9275 13.7187 21.2138C15.191 23.4512 16.6633 25.696 18.1356 27.9481C19.4518 29.9653 20.7769 31.9839 22.1108 34.0041C22.3493 34.3652 22.5524 34.744 22.791 35.1095C23.109 35.6072 23.48 35.9904 24.1646 35.8671C24.6505 35.7702 24.8183 35.9816 24.8006 36.4837C24.6902 39.3641 23.8024 41.8834 21.7088 43.9711C20.0777 45.5401 18.0679 46.6628 15.8742 47.2303C14.2753 47.6707 12.6454 47.6311 11.0156 47.5518C9.14411 47.4231 7.32887 46.8589 5.7154 45.9046C4.28013 45.1092 3.03413 44.0139 2.06266 42.6938C1.17414 41.4477 0.52425 40.0486 0.145745 38.567C-0.066264 37.8094 0.0397397 36.9594 -1.20219e-05 36.1534C-1.20219e-05 35.964 0.0794916 35.8451 0.269416 35.8715C1.36921 36.0389 1.70931 35.1932 2.14658 34.4797C2.84003 33.3346 3.61739 32.2291 4.196 31.0267C4.77461 29.8243 5.70215 28.7056 6.1615 27.3843C6.35142 26.8426 6.78869 26.4594 7.07579 25.9661C7.95916 24.4334 8.90878 22.9315 9.74798 21.3724C9.84227 21.2356 9.88976 21.0721 9.8834 20.9063C9.87703 20.7404 9.81715 20.5811 9.71265 20.4519C9.44374 20.1088 9.28021 19.6954 9.2418 19.2616C9.2034 18.8278 9.29176 18.3922 9.49623 18.0075C9.69517 17.6237 10.0095 17.3116 10.3953 17.115C10.781 16.9183 11.2188 16.8469 11.6472 16.9108C13.3124 17.1618 14.739 16.4351 16.2363 15.9682C17.2876 15.6379 18.3476 15.3428 19.4165 15.0874C21.3687 14.6469 23.3166 14.1272 25.2953 13.8145C26.6451 13.5535 28.0151 13.4106 29.3897 13.3873C29.5689 13.415 29.7522 13.3836 29.9117 13.2977C30.0712 13.2118 30.1981 13.0762 30.2731 12.9116C30.6604 12.3382 31.1428 11.8347 31.6998 11.423C31.8238 11.3165 31.9197 11.1813 31.979 11.0293C32.0383 10.8772 32.0592 10.7129 32.0399 10.5509C32.0399 9.4322 32.0399 8.30909 32.0399 7.19038C32.0548 7.03114 32.0309 6.87064 31.9701 6.72262C31.9093 6.57459 31.8136 6.44343 31.6909 6.34034C30.4321 5.31854 30.2113 3.91355 30.5293 2.48654C30.7186 1.77354 31.1393 1.14313 31.7259 0.693735C32.3124 0.244343 33.0316 0.00127505 33.7713 0.00248748C34.1025 0.00248748 34.4338 0.00248748 34.7606 0.00248748C35.2034 -0.0147126 35.6451 0.0574407 36.0592 0.21462C36.4734 0.371799 36.8514 0.610767 37.1707 0.917188C37.4899 1.22361 37.7438 1.59117 37.9171 1.99783C38.0905 2.40449 38.1796 2.84187 38.1793 3.28373C38.1793 4.39803 38.0379 5.41103 37.1192 6.17298C36.9161 6.34034 36.9381 6.61341 36.9381 6.84685C36.9381 8.10208 36.9381 9.35292 36.9381 10.6082C36.9122 10.7885 36.9531 10.972 37.0531 11.1244C37.1531 11.2768 37.3054 11.3877 37.4814 11.4362C38.1317 11.6954 38.6676 12.1782 38.992 12.7971C39.083 12.9523 39.2115 13.0823 39.3658 13.1754C39.5201 13.2685 39.6952 13.3216 39.8753 13.33C41.774 13.4278 43.6602 13.6946 45.5113 14.1272C47.3983 14.5465 49.2582 15.079 51.0809 15.7216C52.322 16.162 53.519 16.7082 54.716 17.2455C55.0384 17.3909 55.2593 17.1838 55.5243 17.1486C56.5401 17.0253 57.5383 16.9548 58.3555 17.7344C59.0842 18.4347 59.1505 19.9101 58.4085 20.5796C57.9005 21.02 57.9933 21.4032 58.2936 21.8613C59.6187 23.9049 60.9437 25.9529 62.3041 27.9965C63.4569 29.7583 64.623 31.498 65.7758 33.2553C66.191 33.8895 66.5752 34.5414 66.9948 35.1712C67.4144 35.801 67.7589 36.3119 68.5982 36.1534C68.819 36.1093 68.9471 36.193 68.9648 36.4705C69.115 38.1775 68.7829 39.8924 68.0063 41.421C67.0125 43.332 65.5025 44.9278 63.6469 46.0279C61.48 47.3049 58.994 47.9418 56.4783 47.8645C53.6211 47.8959 50.837 46.9648 48.5766 45.2219C46.2312 43.3853 44.7648 41.1039 44.4424 38.1221C44.407 37.8006 44.3894 37.4747 44.3496 37.1532C44.2569 36.4441 44.3938 36.0168 45.233 36.1622C45.5996 36.2238 45.7542 35.8803 45.9044 35.6249C47.4988 32.8677 49.0447 30.1238 50.6657 27.3843C51.8141 25.4552 52.9757 23.5349 54.0579 21.5662C54.4333 20.8879 54.0579 19.6327 53.3158 19.3992C51.9908 18.9588 50.6348 18.6153 49.2832 18.2761C48.4529 18.0647 47.6004 17.9634 46.7701 17.7608C45.7454 17.5098 44.6765 17.5142 43.6783 17.2587C42.3974 16.9284 41.0679 17.109 39.8091 16.7038C39.6741 16.6616 39.5297 16.6599 39.3938 16.6991C39.2579 16.7383 39.1366 16.8165 39.045 16.924C38.4885 17.4349 38.0114 18.0559 37.2297 18.2805C37.1379 18.3212 37.0611 18.3892 37.0097 18.4751C36.9583 18.5611 36.9348 18.6608 36.9426 18.7606V19.201C36.9426 30.0651 36.9426 40.9292 36.9426 51.7932C36.9426 52.4407 37.0927 52.6741 37.7818 52.6741C39.8003 52.6433 40.5865 53.4052 40.6704 55.4136C40.6704 55.788 40.8338 55.8232 41.143 55.8276C42.4396 55.7784 43.7381 55.8152 45.0298 55.9377C45.4204 55.9752 45.7891 56.1352 46.0827 56.3948C46.3764 56.6544 46.5799 57.0001 46.6641 57.3823C46.7656 57.9065 46.9821 58.1002 47.5474 58.0518C48.179 57.9989 48.8239 58.0518 49.4599 58.0518C50.4537 58.0254 51.8141 59.3467 51.7302 60.4037C51.6242 61.7867 51.7302 63.1873 51.6993 64.579C51.6728 66.1426 50.6348 67.0631 49.0889 66.9442C48.9608 66.9442 48.8283 66.9442 48.6958 66.9442H22.3449C21.7751 66.9442 21.2009 67.1512 20.6399 66.768C19.9774 66.3276 19.4871 65.8034 19.496 64.9358C19.496 63.3546 19.5446 61.7691 19.496 60.1879C19.5133 59.6536 19.7289 59.1447 20.101 58.7598C20.4731 58.3749 20.9752 58.1415 21.5101 58.1046C22.5834 58.1046 23.321 57.9065 23.8157 56.8274C24.2574 55.8672 25.313 55.8981 26.2229 55.8408C26.9054 55.8012 27.5897 55.8012 28.2723 55.8408C28.714 55.8628 28.7979 55.7131 28.7802 55.3211C28.7537 54.6913 28.7184 54.0615 29.1645 53.5109C29.3986 53.22 29.7004 52.9904 30.0437 52.8423C30.387 52.6942 30.7614 52.6319 31.1344 52.6609C31.9913 52.6609 32.0619 52.586 32.0619 51.7183L32.0399 35.409ZM35.3967 15.8537C36.6908 14.9729 36.6643 13.8321 35.3304 12.8808C34.5884 12.3523 33.9391 12.4404 33.228 13.0966C32.5169 13.7529 32.3137 14.5589 32.8614 15.2768C32.7333 15.3869 32.7642 15.4882 32.8614 15.6115C33.1416 15.9511 33.5263 16.189 33.9559 16.2886C34.3855 16.3881 34.836 16.3436 35.2377 16.162C35.2961 16.1419 35.3453 16.1014 35.3761 16.048C35.407 15.9946 35.4174 15.9318 35.4055 15.8714L35.3967 15.8537ZM2.97695 35.8759C3.03878 36.2194 3.31263 36.0345 3.46722 36.0345C9.28863 36.0345 15.1115 36.0345 20.9359 36.0345C21.17 36.0345 21.4261 36.1181 21.6249 35.9111C21.4041 35.1844 20.8255 34.6823 20.4633 34.0481C19.4165 32.2071 18.1753 30.4938 17.0446 28.71C15.7593 26.6972 14.4387 24.7021 13.1357 22.6981C12.8671 22.2762 12.5721 21.8717 12.2523 21.4869C11.9167 21.1037 11.369 21.1081 11.2011 21.4869C10.7594 22.4911 10.0925 23.3808 9.54923 24.3365C8.18884 26.7809 6.74894 29.2121 5.34438 31.6477C4.5361 33.0483 3.61298 34.3828 2.97695 35.8759ZM65.9083 36.1534C65.4972 35.3225 65.0155 34.5283 64.4684 33.7794C63.1698 31.7446 61.8183 29.7406 60.4932 27.719C59.2565 25.8164 58.0374 23.8961 56.7919 21.9934C56.2928 21.2358 55.8025 21.2314 55.3653 21.9934C54.3229 23.7816 53.2452 25.5521 52.2249 27.3491C50.6878 30.0534 49.0889 32.7224 47.5209 35.4046C47.4017 35.6028 47.2073 35.8715 47.2647 36.0301C47.3531 36.2943 47.7064 36.1534 47.9184 36.1534C53.4866 36.1534 59.0592 36.1534 64.6362 36.1534H65.9083Z" fill="#6C3483"/>
</svg>
