<svg width="33" height="30" viewBox="0 0 33 30" fill="none" xmlns="http://www.w3.org/2000/svg">
<path d="M32.5722 3.76582C31.3765 4.34772 30.0921 4.74089 28.7418 4.91861C30.1351 4.00297 31.1774 2.56188 31.6744 0.864209C30.3654 1.71816 28.9327 2.31925 27.4388 2.64135C26.4341 1.46319 25.1034 0.682289 23.6532 0.419883C22.2031 0.157476 20.7146 0.428245 19.4189 1.19015C18.1233 1.95206 17.0928 3.16248 16.4877 4.63348C15.8825 6.10449 15.7365 7.75377 16.0722 9.32529C13.4198 9.17902 10.8251 8.42185 8.45645 7.10292C6.08777 5.784 3.99806 3.93278 2.32294 1.66943C1.75018 2.75458 1.42084 4.01274 1.42084 5.35267C1.4202 6.55892 1.69065 7.74669 2.20822 8.81059C2.72578 9.87451 3.47443 10.7817 4.38777 11.4516C3.32854 11.4145 2.29269 11.1002 1.36642 10.5347V10.629C1.36632 12.3209 1.89914 13.9606 2.87449 15.2701C3.84984 16.5795 5.20764 17.478 6.7175 17.8131C5.73489 18.1052 4.7047 18.1482 3.70474 17.9389C4.13073 19.3946 4.96053 20.6676 6.07795 21.5796C7.19538 22.4916 8.5445 22.997 9.93644 23.025C7.57354 25.0623 4.65537 26.1674 1.65137 26.1625C1.11925 26.1627 0.587569 26.1285 0.059082 26.0603C3.10831 28.2136 6.65784 29.3564 10.283 29.3519C22.5545 29.3519 29.263 18.189 29.263 8.50749C29.263 8.19295 29.2559 7.87526 29.243 7.56073C30.5479 6.52428 31.6742 5.24084 32.5693 3.77054L32.5722 3.76582Z" fill="white"/>
</svg>
